<svg width="36" height="36" viewBox="0 0 36 36" fill="none" xmlns="http://www.w3.org/2000/svg">
<path d="M18 36C27.9411 36 36 27.9411 36 18C36 8.05887 27.9411 0 18 0C8.05887 0 0 8.05887 0 18C0 27.9411 8.05887 36 18 36Z" fill="#039BE5"/>
<path d="M8.23641 17.6101L25.5914 10.9186C26.3969 10.6276 27.1004 11.1151 26.8394 12.3331L26.8409 12.3316L23.8859 26.2531C23.6669 27.2401 23.0804 27.4801 22.2599 27.0151L17.7599 23.6986L15.5894 25.7896C15.3494 26.0296 15.1469 26.2321 14.6819 26.2321L15.0014 21.6526L23.3414 14.1181C23.7044 13.7986 23.2604 13.6186 22.7819 13.9366L12.4754 20.4256L8.03241 19.0396C7.06791 18.7336 7.04691 18.0751 8.23641 17.6101Z" fill="white"/>
</svg>
