<svg width="36" height="36" viewBox="0 0 36 36" fill="none" xmlns="http://www.w3.org/2000/svg">
<path d="M18 36C27.9411 36 36 27.9411 36 18C36 8.05888 27.9411 0 18 0C8.05888 0 0 8.05888 0 18C0 27.9411 8.05888 36 18 36Z" fill="#4D76A1"/>
<path fill-rule="evenodd" clip-rule="evenodd" d="M17.32 25.8947H18.7328C18.7328 25.8947 19.1595 25.8479 19.3774 25.613C19.5779 25.3974 19.5715 24.9924 19.5715 24.9924C19.5715 24.9924 19.5439 23.0967 20.4237 22.8176C21.291 22.5426 22.4048 24.6497 23.5852 25.4599C24.4779 26.0731 25.1562 25.9387 25.1562 25.9387L28.3126 25.8947C28.3126 25.8947 29.9637 25.793 29.1808 24.4948C29.1167 24.3886 28.7249 23.5344 26.834 21.7793C24.8549 19.9423 25.1199 20.2394 27.504 17.0619C28.9559 15.1267 29.5364 13.9453 29.3551 13.4393C29.1821 12.9573 28.1143 13.0847 28.1143 13.0847L24.5603 13.1069C24.5603 13.1069 24.2969 13.0709 24.1015 13.1877C23.9106 13.3023 23.7877 13.5692 23.7877 13.5692C23.7877 13.5692 23.2252 15.0667 22.475 16.3402C20.8925 19.0275 20.2598 19.1693 20.0011 19.0025C19.3995 18.6136 19.5497 17.4402 19.5497 16.6066C19.5497 14.0024 19.9447 12.9166 18.7806 12.6355C18.3942 12.5421 18.11 12.4805 17.122 12.4706C15.8539 12.4574 14.7806 12.4744 14.1729 12.7722C13.7686 12.9702 13.4567 13.4114 13.6467 13.4367C13.8816 13.4682 14.4136 13.5802 14.6956 13.9642C15.0598 14.4596 15.047 15.5724 15.047 15.5724C15.047 15.5724 15.2562 18.638 14.5583 19.0188C14.0792 19.28 13.4221 18.7468 12.0112 16.3088C11.2883 15.06 10.7425 13.6796 10.7425 13.6796C10.7425 13.6796 10.6373 13.4216 10.4496 13.2837C10.2218 13.1165 9.90346 13.0632 9.90346 13.0632L6.52633 13.0854C6.52633 13.0854 6.01936 13.0995 5.83326 13.3199C5.66769 13.516 5.82011 13.9216 5.82011 13.9216C5.82011 13.9216 8.46405 20.1072 11.4577 23.2245C14.2028 26.0824 17.32 25.8947 17.32 25.8947Z" fill="white"/>
</svg>
