<svg width="390" height="261" viewBox="0 0 390 261" fill="none" xmlns="http://www.w3.org/2000/svg">
<rect x="1.5" y="30.5" width="150" height="40" rx="5.5" fill="white" stroke="#D5D5D5"/>
<path d="M5.04002 10.1539C4.43335 10.1539 3.86869 10.0606 3.34602 9.8739C2.83269 9.68723 2.38469 9.39323 2.00202 8.9919C1.61935 8.59057 1.31602 8.07723 1.09202 7.4519C0.877353 6.81723 0.77002 6.05657 0.77002 5.1699V4.8899C0.77002 4.04056 0.88202 3.31256 1.10602 2.7059C1.33002 2.0899 1.63335 1.5859 2.01602 1.1939C2.40802 0.801899 2.86069 0.512565 3.37402 0.325898C3.89669 0.139232 4.45202 0.0458984 5.04002 0.0458984C5.58135 0.0458984 6.08535 0.115899 6.55202 0.255898C7.01869 0.386565 7.42469 0.587232 7.77002 0.857898C8.12469 1.12857 8.40935 1.46457 8.62402 1.8659C8.84802 2.26723 8.98335 2.73857 9.03002 3.2799H7.26602C7.14469 2.67323 6.88335 2.2299 6.48202 1.9499C6.09002 1.6699 5.60935 1.5299 5.04002 1.5299C4.73202 1.5299 4.42869 1.5859 4.13002 1.6979C3.83135 1.8099 3.56069 1.99657 3.31802 2.2579C3.08469 2.51923 2.89335 2.86457 2.74402 3.2939C2.60402 3.72323 2.53402 4.25523 2.53402 4.8899V5.1699C2.53402 5.8419 2.60869 6.4019 2.75802 6.8499C2.91669 7.2979 3.11735 7.65723 3.36002 7.9279C3.60269 8.19857 3.86869 8.3899 4.15802 8.5019C4.45669 8.6139 4.75069 8.6699 5.04002 8.6699C5.71202 8.6699 6.23002 8.5159 6.59402 8.2079C6.96735 7.89057 7.19135 7.46123 7.26602 6.9199H9.03002C8.97402 7.49857 8.83402 7.99323 8.61002 8.4039C8.38602 8.81457 8.09669 9.15057 7.74202 9.4119C7.39669 9.6639 6.99069 9.85057 6.52402 9.9719C6.06669 10.0932 5.57202 10.1539 5.04002 10.1539Z" fill="#1B1B1B"/>
<path d="M11.976 12.9539C11.836 12.9539 11.696 12.9399 11.556 12.9119V11.5679C11.696 11.5959 11.836 11.6099 11.976 11.6099C12.1347 11.6099 12.2654 11.5819 12.368 11.5259C12.48 11.4792 12.578 11.3906 12.662 11.2599C12.7554 11.1386 12.844 10.9752 12.928 10.7699C13.0214 10.5646 13.124 10.3079 13.236 9.9999L10.086 2.5799H11.766L14.034 8.3199L16.078 2.5799H17.646L14.776 9.9999C14.5707 10.5226 14.3794 10.9706 14.202 11.3439C14.0247 11.7172 13.8287 12.0206 13.614 12.2539C13.4087 12.4966 13.1754 12.6739 12.914 12.7859C12.6527 12.8979 12.34 12.9539 11.976 12.9539Z" fill="#1B1B1B"/>
<path d="M19.0471 2.5799H20.7831L23.1491 6.9199L25.5151 2.5799H27.1671V9.9999H25.6271V4.8899L23.6671 8.4599H22.5471L20.5871 4.8899V9.9999H19.0471V2.5799Z" fill="#1B1B1B"/>
<path d="M29.2633 2.5799H30.9993L33.3653 6.9199L35.7313 2.5799H37.3833V9.9999H35.8433V4.8899L33.8833 8.4599H32.7633L30.8033 4.8899V9.9999H29.2633V2.5799Z" fill="#1B1B1B"/>
<path d="M41.6495 10.1539C41.2481 10.1539 40.8888 10.0979 40.5715 9.9859C40.2635 9.86457 40.0021 9.70123 39.7875 9.4959C39.5728 9.28123 39.4095 9.0339 39.2975 8.7539C39.1855 8.4739 39.1295 8.1659 39.1295 7.8299C39.1295 7.09257 39.3488 6.54657 39.7875 6.1919C40.2261 5.8279 40.8701 5.6459 41.7195 5.6459H44.0295V5.2399C44.0295 4.6799 43.9035 4.29723 43.6515 4.0919C43.4088 3.87723 43.0215 3.7699 42.4895 3.7699C42.0135 3.7699 41.6635 3.84457 41.4395 3.9939C41.2155 4.14323 41.0848 4.34857 41.0475 4.6099H39.5495C39.5681 4.29257 39.6475 4.00323 39.7875 3.7419C39.9368 3.47123 40.1375 3.2379 40.3895 3.0419C40.6508 2.8459 40.9635 2.69657 41.3275 2.5939C41.6915 2.4819 42.1021 2.4259 42.5595 2.4259C43.0168 2.4259 43.4275 2.47723 43.7915 2.5799C44.1648 2.68257 44.4821 2.8459 44.7435 3.0699C45.0048 3.28457 45.2055 3.56457 45.3455 3.9099C45.4948 4.25523 45.5695 4.67057 45.5695 5.1559V8.1099C45.5695 8.5019 45.5741 8.84723 45.5835 9.1459C45.5928 9.43523 45.6161 9.7199 45.6535 9.9999H44.2535C44.2255 9.78523 44.2021 9.60323 44.1835 9.4539C44.1741 9.30457 44.1695 9.1179 44.1695 8.8939C43.9921 9.23923 43.6841 9.5379 43.2455 9.7899C42.8161 10.0326 42.2841 10.1539 41.6495 10.1539ZM42.0695 8.8099C42.3308 8.8099 42.5781 8.77723 42.8115 8.7119C43.0541 8.63723 43.2641 8.53457 43.4415 8.4039C43.6188 8.2639 43.7588 8.0959 43.8615 7.8999C43.9735 7.69457 44.0295 7.46123 44.0295 7.1999V6.7939H41.9995C41.6075 6.7939 41.2901 6.8779 41.0475 7.0459C40.8141 7.2139 40.6975 7.46123 40.6975 7.7879C40.6975 8.0959 40.8048 8.34323 41.0195 8.5299C41.2435 8.71657 41.5935 8.8099 42.0695 8.8099Z" fill="#1B1B1B"/>
<path d="M51.1071 2.5799H57.5471V9.9999H56.0071V3.8959H52.6471V9.9999H51.1071V2.5799Z" fill="#1B1B1B"/>
<path d="M62.8617 10.1539C62.3483 10.1539 61.8677 10.0746 61.4197 9.9159C60.981 9.7479 60.5983 9.50523 60.2717 9.1879C59.945 8.87057 59.6883 8.47857 59.5017 8.0119C59.315 7.5359 59.2217 6.98523 59.2217 6.3599V6.0799C59.2217 5.4919 59.315 4.9739 59.5017 4.5259C59.6883 4.06856 59.945 3.6859 60.2717 3.3779C60.5983 3.06056 60.981 2.82257 61.4197 2.6639C61.8677 2.50523 62.3483 2.4259 62.8617 2.4259C63.375 2.4259 63.851 2.50523 64.2897 2.6639C64.7377 2.82257 65.125 3.06056 65.4517 3.3779C65.7783 3.6859 66.035 4.06856 66.2217 4.5259C66.4083 4.9739 66.5017 5.4919 66.5017 6.0799V6.3599C66.5017 6.98523 66.4083 7.5359 66.2217 8.0119C66.035 8.47857 65.7783 8.87057 65.4517 9.1879C65.125 9.50523 64.7377 9.7479 64.2897 9.9159C63.851 10.0746 63.375 10.1539 62.8617 10.1539ZM62.8617 8.8099C63.1323 8.8099 63.389 8.76323 63.6317 8.6699C63.8837 8.57657 64.103 8.4319 64.2897 8.2359C64.4857 8.0399 64.6397 7.7879 64.7517 7.4799C64.873 7.1719 64.9337 6.79857 64.9337 6.3599V6.0799C64.9337 5.67857 64.873 5.33323 64.7517 5.0439C64.6397 4.75457 64.4857 4.51657 64.2897 4.3299C64.103 4.14323 63.8837 4.00323 63.6317 3.9099C63.389 3.81657 63.1323 3.7699 62.8617 3.7699C62.591 3.7699 62.3297 3.81657 62.0777 3.9099C61.835 4.00323 61.6157 4.14323 61.4197 4.3299C61.233 4.51657 61.079 4.75457 60.9577 5.0439C60.8457 5.33323 60.7897 5.67857 60.7897 6.0799V6.3599C60.7897 6.79857 60.8457 7.1719 60.9577 7.4799C61.079 7.7879 61.233 8.0399 61.4197 8.2359C61.6157 8.4319 61.835 8.57657 62.0777 8.6699C62.3297 8.76323 62.591 8.8099 62.8617 8.8099Z" fill="#1B1B1B"/>
<path d="M68.1762 2.5799H74.6162V9.9999H73.0762V3.8959H69.7162V9.9999H68.1762V2.5799Z" fill="#1B1B1B"/>
<path d="M79.9307 10.1539C79.4174 10.1539 78.9367 10.0746 78.4887 9.9159C78.0501 9.7479 77.6674 9.50523 77.3407 9.1879C77.0141 8.87057 76.7574 8.47857 76.5707 8.0119C76.3841 7.5359 76.2907 6.98523 76.2907 6.3599V6.0799C76.2907 5.4919 76.3841 4.9739 76.5707 4.5259C76.7574 4.06856 77.0141 3.6859 77.3407 3.3779C77.6674 3.06056 78.0501 2.82257 78.4887 2.6639C78.9367 2.50523 79.4174 2.4259 79.9307 2.4259C80.4441 2.4259 80.9201 2.50523 81.3587 2.6639C81.8067 2.82257 82.1941 3.06056 82.5207 3.3779C82.8474 3.6859 83.1041 4.06856 83.2907 4.5259C83.4774 4.9739 83.5707 5.4919 83.5707 6.0799V6.3599C83.5707 6.98523 83.4774 7.5359 83.2907 8.0119C83.1041 8.47857 82.8474 8.87057 82.5207 9.1879C82.1941 9.50523 81.8067 9.7479 81.3587 9.9159C80.9201 10.0746 80.4441 10.1539 79.9307 10.1539ZM79.9307 8.8099C80.2014 8.8099 80.4581 8.76323 80.7007 8.6699C80.9527 8.57657 81.1721 8.4319 81.3587 8.2359C81.5547 8.0399 81.7087 7.7879 81.8207 7.4799C81.9421 7.1719 82.0027 6.79857 82.0027 6.3599V6.0799C82.0027 5.67857 81.9421 5.33323 81.8207 5.0439C81.7087 4.75457 81.5547 4.51657 81.3587 4.3299C81.1721 4.14323 80.9527 4.00323 80.7007 3.9099C80.4581 3.81657 80.2014 3.7699 79.9307 3.7699C79.6601 3.7699 79.3987 3.81657 79.1467 3.9099C78.9041 4.00323 78.6847 4.14323 78.4887 4.3299C78.3021 4.51657 78.1481 4.75457 78.0267 5.0439C77.9147 5.33323 77.8587 5.67857 77.8587 6.0799V6.3599C77.8587 6.79857 77.9147 7.1719 78.0267 7.4799C78.1481 7.7879 78.3021 8.0399 78.4887 8.2359C78.6847 8.4319 78.9041 8.57657 79.1467 8.6699C79.3987 8.76323 79.6601 8.8099 79.9307 8.8099Z" fill="#1B1B1B"/>
<path d="M84.9685 10.1539C84.8939 10.1539 84.8099 10.1492 84.7165 10.1399C84.6325 10.1399 84.5532 10.1306 84.4785 10.1119V8.6559C84.5252 8.66523 84.5952 8.6699 84.6885 8.6699C84.8845 8.6699 85.0525 8.6139 85.1925 8.5019C85.3325 8.38057 85.4445 8.17523 85.5285 7.8859C85.6219 7.58723 85.6919 7.19057 85.7385 6.6959C85.7852 6.20123 85.8085 5.5759 85.8085 4.8199V2.5799H91.4085V9.9999H89.8685V3.8959H87.2925V5.0999C87.2925 6.09857 87.2412 6.92457 87.1385 7.5779C87.0452 8.2219 86.9005 8.73523 86.7045 9.1179C86.5085 9.50057 86.2659 9.77123 85.9765 9.9299C85.6872 10.0792 85.3512 10.1539 84.9685 10.1539Z" fill="#1B1B1B"/>
<path d="M93.5064 2.5799H95.0463V5.5619H98.5463V2.5799H100.086V9.9999H98.5463V6.8779H95.0463V9.9999H93.5064V2.5799Z" fill="#1B1B1B"/>
<path d="M105.411 10.1539C104.917 10.1539 104.45 10.0792 104.011 9.9299C103.573 9.77123 103.185 9.5379 102.849 9.2299C102.523 8.91257 102.261 8.5159 102.065 8.0399C101.869 7.5639 101.771 7.0039 101.771 6.3599V6.0799C101.771 5.4639 101.865 4.92723 102.051 4.4699C102.238 4.01257 102.49 3.63456 102.807 3.3359C103.134 3.0279 103.507 2.79923 103.927 2.6499C104.347 2.50057 104.795 2.4259 105.271 2.4259C106.401 2.4259 107.264 2.72923 107.861 3.3359C108.468 3.94257 108.771 4.81057 108.771 5.9399V6.7239H103.339C103.349 7.10657 103.409 7.43323 103.521 7.7039C103.643 7.96523 103.797 8.1799 103.983 8.3479C104.179 8.50657 104.399 8.62323 104.641 8.6979C104.893 8.77257 105.15 8.8099 105.411 8.8099C105.943 8.8099 106.331 8.7259 106.573 8.5579C106.825 8.3899 106.998 8.17057 107.091 7.8999H108.631C108.482 8.63723 108.113 9.19723 107.525 9.5799C106.947 9.96257 106.242 10.1539 105.411 10.1539ZM105.341 3.7699C105.08 3.7699 104.828 3.80257 104.585 3.8679C104.352 3.93323 104.142 4.04057 103.955 4.1899C103.778 4.3299 103.633 4.51657 103.521 4.7499C103.409 4.9739 103.349 5.24923 103.339 5.5759H107.231C107.222 5.23057 107.166 4.94123 107.063 4.7079C106.97 4.47457 106.839 4.2879 106.671 4.1479C106.503 4.0079 106.303 3.9099 106.069 3.8539C105.845 3.7979 105.603 3.7699 105.341 3.7699Z" fill="#1B1B1B"/>
<path d="M110.452 2.5799H111.992V5.5619H115.492V2.5799H117.032V9.9999H115.492V6.8779H111.992V9.9999H110.452V2.5799Z" fill="#1B1B1B"/>
<path d="M119.137 2.5799H120.677V7.8299L124.247 2.5799H125.717V9.9999H124.177V4.7499L120.607 9.9999H119.137V2.5799Z" fill="#1B1B1B"/>
<path d="M129.264 7.1859C128.704 7.0179 128.289 6.74257 128.018 6.3599C127.748 5.97723 127.612 5.51523 127.612 4.9739C127.612 4.2459 127.855 3.66723 128.34 3.2379C128.826 2.79923 129.563 2.5799 130.552 2.5799H133.912V9.9999H132.372V7.3679H130.776L129.124 9.9999H127.332L129.264 7.1859ZM129.18 4.9739C129.18 5.3659 129.297 5.6459 129.53 5.8139C129.764 5.97256 130.081 6.0519 130.482 6.0519H132.372V3.8959H130.482C130.081 3.8959 129.764 3.9799 129.53 4.1479C129.297 4.30657 129.18 4.5819 129.18 4.9739Z" fill="#1B1B1B"/>
<path d="M1.26001 131.2H9.24001V141H7.56001V132.656H2.94001V141H1.26001V131.2Z" fill="#1B1B1B"/>
<path d="M11.48 141.154C11.4053 141.154 11.3213 141.15 11.228 141.14C11.144 141.14 11.0647 141.131 10.99 141.112V139.656C11.0367 139.666 11.1067 139.67 11.2 139.67C11.396 139.67 11.564 139.614 11.704 139.502C11.844 139.381 11.956 139.176 12.04 138.886C12.1333 138.588 12.2033 138.191 12.25 137.696C12.2967 137.202 12.32 136.576 12.32 135.82V133.58H17.92V141H16.38V134.896H13.804V136.1C13.804 137.099 13.7527 137.925 13.65 138.578C13.5567 139.222 13.412 139.736 13.216 140.118C13.02 140.501 12.7773 140.772 12.488 140.93C12.1987 141.08 11.8627 141.154 11.48 141.154Z" fill="#1B1B1B"/>
<path d="M22.1878 141.154C21.7865 141.154 21.4272 141.098 21.1098 140.986C20.8018 140.865 20.5405 140.702 20.3258 140.496C20.1112 140.282 19.9478 140.034 19.8358 139.754C19.7238 139.474 19.6678 139.166 19.6678 138.83C19.6678 138.093 19.8872 137.547 20.3258 137.192C20.7645 136.828 21.4085 136.646 22.2578 136.646H24.5678V136.24C24.5678 135.68 24.4418 135.298 24.1898 135.092C23.9472 134.878 23.5598 134.77 23.0278 134.77C22.5518 134.77 22.2018 134.845 21.9778 134.994C21.7538 135.144 21.6232 135.349 21.5858 135.61H20.0878C20.1065 135.293 20.1858 135.004 20.3258 134.742C20.4752 134.472 20.6758 134.238 20.9278 134.042C21.1892 133.846 21.5018 133.697 21.8658 133.594C22.2298 133.482 22.6405 133.426 23.0978 133.426C23.5552 133.426 23.9658 133.478 24.3298 133.58C24.7032 133.683 25.0205 133.846 25.2818 134.07C25.5432 134.285 25.7438 134.565 25.8838 134.91C26.0332 135.256 26.1078 135.671 26.1078 136.156V139.11C26.1078 139.502 26.1125 139.848 26.1218 140.146C26.1312 140.436 26.1545 140.72 26.1918 141H24.7918C24.7638 140.786 24.7405 140.604 24.7218 140.454C24.7125 140.305 24.7078 140.118 24.7078 139.894C24.5305 140.24 24.2225 140.538 23.7838 140.79C23.3545 141.033 22.8225 141.154 22.1878 141.154ZM22.6078 139.81C22.8692 139.81 23.1165 139.778 23.3498 139.712C23.5925 139.638 23.8025 139.535 23.9798 139.404C24.1572 139.264 24.2972 139.096 24.3998 138.9C24.5118 138.695 24.5678 138.462 24.5678 138.2V137.794H22.5378C22.1458 137.794 21.8285 137.878 21.5858 138.046C21.3525 138.214 21.2358 138.462 21.2358 138.788C21.2358 139.096 21.3432 139.344 21.5578 139.53C21.7818 139.717 22.1318 139.81 22.6078 139.81Z" fill="#1B1B1B"/>
<path d="M29.7555 134.896H27.3055V133.58H33.7455V134.896H31.2955V141H29.7555V134.896Z" fill="#1B1B1B"/>
<path d="M38.2288 141.154C37.7341 141.154 37.2674 141.08 36.8288 140.93C36.3901 140.772 36.0028 140.538 35.6668 140.23C35.3401 139.913 35.0788 139.516 34.8828 139.04C34.6868 138.564 34.5888 138.004 34.5888 137.36V137.08C34.5888 136.464 34.6821 135.928 34.8688 135.47C35.0554 135.013 35.3074 134.635 35.6248 134.336C35.9514 134.028 36.3248 133.8 36.7448 133.65C37.1648 133.501 37.6128 133.426 38.0888 133.426C39.2181 133.426 40.0814 133.73 40.6788 134.336C41.2854 134.943 41.5888 135.811 41.5888 136.94V137.724H36.1568C36.1661 138.107 36.2268 138.434 36.3388 138.704C36.4601 138.966 36.6141 139.18 36.8008 139.348C36.9968 139.507 37.2161 139.624 37.4588 139.698C37.7108 139.773 37.9674 139.81 38.2288 139.81C38.7608 139.81 39.1481 139.726 39.3908 139.558C39.6428 139.39 39.8154 139.171 39.9088 138.9H41.4488C41.2994 139.638 40.9308 140.198 40.3428 140.58C39.7641 140.963 39.0594 141.154 38.2288 141.154ZM38.1588 134.77C37.8974 134.77 37.6454 134.803 37.4028 134.868C37.1694 134.934 36.9594 135.041 36.7728 135.19C36.5954 135.33 36.4508 135.517 36.3388 135.75C36.2268 135.974 36.1661 136.25 36.1568 136.576H40.0488C40.0394 136.231 39.9834 135.942 39.8808 135.708C39.7874 135.475 39.6568 135.288 39.4888 135.148C39.3208 135.008 39.1201 134.91 38.8868 134.854C38.6628 134.798 38.4201 134.77 38.1588 134.77Z" fill="#1B1B1B"/>
<path d="M44.9564 137.178L42.4364 133.58H44.2004L46.2164 136.562H46.9164V133.58H48.4564V136.562H49.1564L51.3404 133.58H52.9364L50.2764 137.108L53.0764 141H51.3404L49.1564 137.878H48.4564V141H46.9164V137.878H46.2164L44.1164 141H42.2964L44.9564 137.178Z" fill="#1B1B1B"/>
<path d="M54.4704 133.58H56.0104V136.562H59.5104V133.58H61.0504V141H59.5104V137.878H56.0104V141H54.4704V133.58Z" fill="#1B1B1B"/>
<path d="M63.1553 133.58H64.6953V136.184H66.0953C67.0473 136.184 67.752 136.39 68.2093 136.8C68.6667 137.202 68.8953 137.799 68.8953 138.592C68.8953 139.339 68.6713 139.927 68.2233 140.356C67.7753 140.786 67.066 141 66.0953 141H63.1553V133.58ZM65.9553 139.684C66.4687 139.684 66.828 139.596 67.0333 139.418C67.248 139.232 67.3553 138.956 67.3553 138.592C67.3553 138.228 67.248 137.958 67.0333 137.78C66.828 137.594 66.4687 137.5 65.9553 137.5H64.6953V139.684H65.9553ZM69.8753 133.58H71.4153V141H69.8753V133.58Z" fill="#1B1B1B"/>
<path d="M73.5219 133.58H75.0619V138.83L78.6319 133.58H80.1019V141H78.5619V135.75L74.9919 141H73.5219V133.58ZM76.8119 132.74C76.0372 132.74 75.4679 132.572 75.1039 132.236C74.7492 131.891 74.5719 131.406 74.5719 130.78H75.9999C75.9999 131.116 76.0652 131.359 76.1959 131.508C76.3359 131.658 76.5412 131.732 76.8119 131.732C77.0825 131.732 77.2832 131.658 77.4139 131.508C77.5539 131.359 77.6239 131.116 77.6239 130.78H79.0519C79.0519 131.406 78.8699 131.891 78.5059 132.236C78.1419 132.572 77.5772 132.74 76.8119 132.74Z" fill="#1B1B1B"/>
<path d="M85.7101 133.58H87.4461L89.8121 137.92L92.1781 133.58H93.8301V141H92.2901V135.89L90.3301 139.46H89.2101L87.2501 135.89V141H85.7101V133.58Z" fill="#1B1B1B"/>
<path d="M99.1463 141.154C98.6516 141.154 98.1849 141.08 97.7463 140.93C97.3076 140.772 96.9203 140.538 96.5843 140.23C96.2576 139.913 95.9963 139.516 95.8003 139.04C95.6043 138.564 95.5063 138.004 95.5063 137.36V137.08C95.5063 136.464 95.5996 135.928 95.7863 135.47C95.9729 135.013 96.2249 134.635 96.5423 134.336C96.8689 134.028 97.2423 133.8 97.6623 133.65C98.0823 133.501 98.5303 133.426 99.0063 133.426C100.136 133.426 100.999 133.73 101.596 134.336C102.203 134.943 102.506 135.811 102.506 136.94V137.724H97.0743C97.0836 138.107 97.1443 138.434 97.2563 138.704C97.3776 138.966 97.5316 139.18 97.7183 139.348C97.9143 139.507 98.1336 139.624 98.3763 139.698C98.6283 139.773 98.8849 139.81 99.1463 139.81C99.6783 139.81 100.066 139.726 100.308 139.558C100.56 139.39 100.733 139.171 100.826 138.9H102.366C102.217 139.638 101.848 140.198 101.26 140.58C100.682 140.963 99.9769 141.154 99.1463 141.154ZM99.0763 134.77C98.8149 134.77 98.5629 134.803 98.3203 134.868C98.0869 134.934 97.8769 135.041 97.6903 135.19C97.5129 135.33 97.3683 135.517 97.2563 135.75C97.1443 135.974 97.0836 136.25 97.0743 136.576H100.966C100.957 136.231 100.901 135.942 100.798 135.708C100.705 135.475 100.574 135.288 100.406 135.148C100.238 135.008 100.038 134.91 99.8043 134.854C99.5803 134.798 99.3376 134.77 99.0763 134.77Z" fill="#1B1B1B"/>
<path d="M105.801 134.896H103.351V133.58H109.791V134.896H107.341V141H105.801V134.896Z" fill="#1B1B1B"/>
<path d="M114.274 141.154C113.761 141.154 113.28 141.075 112.832 140.916C112.393 140.748 112.011 140.506 111.684 140.188C111.357 139.871 111.101 139.479 110.914 139.012C110.727 138.536 110.634 137.986 110.634 137.36V137.08C110.634 136.492 110.727 135.974 110.914 135.526C111.101 135.069 111.357 134.686 111.684 134.378C112.011 134.061 112.393 133.823 112.832 133.664C113.28 133.506 113.761 133.426 114.274 133.426C114.787 133.426 115.263 133.506 115.702 133.664C116.15 133.823 116.537 134.061 116.864 134.378C117.191 134.686 117.447 135.069 117.634 135.526C117.821 135.974 117.914 136.492 117.914 137.08V137.36C117.914 137.986 117.821 138.536 117.634 139.012C117.447 139.479 117.191 139.871 116.864 140.188C116.537 140.506 116.15 140.748 115.702 140.916C115.263 141.075 114.787 141.154 114.274 141.154ZM114.274 139.81C114.545 139.81 114.801 139.764 115.044 139.67C115.296 139.577 115.515 139.432 115.702 139.236C115.898 139.04 116.052 138.788 116.164 138.48C116.285 138.172 116.346 137.799 116.346 137.36V137.08C116.346 136.679 116.285 136.334 116.164 136.044C116.052 135.755 115.898 135.517 115.702 135.33C115.515 135.144 115.296 135.004 115.044 134.91C114.801 134.817 114.545 134.77 114.274 134.77C114.003 134.77 113.742 134.817 113.49 134.91C113.247 135.004 113.028 135.144 112.832 135.33C112.645 135.517 112.491 135.755 112.37 136.044C112.258 136.334 112.202 136.679 112.202 137.08V137.36C112.202 137.799 112.258 138.172 112.37 138.48C112.491 138.788 112.645 139.04 112.832 139.236C113.028 139.432 113.247 139.577 113.49 139.67C113.742 139.764 114.003 139.81 114.274 139.81Z" fill="#1B1B1B"/>
<path d="M118.82 139.684H119.66C119.753 139.544 119.837 139.334 119.912 139.054C119.996 138.774 120.066 138.457 120.122 138.102C120.178 137.738 120.22 137.351 120.248 136.94C120.276 136.52 120.29 136.1 120.29 135.68V133.58H125.82V139.684H126.8V142.75H125.372V141H120.248V142.75H118.82V139.684ZM124.28 139.684V134.896H121.774V135.96C121.774 136.679 121.732 137.37 121.648 138.032C121.564 138.686 121.424 139.236 121.228 139.684H124.28Z" fill="#1B1B1B"/>
<path d="M30.5894 232.2H36.9594V233.334H31.9054V236.12H34.0894C34.7334 236.12 35.2934 236.19 35.7694 236.33C36.2454 236.47 36.6374 236.671 36.9454 236.932C37.2627 237.194 37.496 237.506 37.6454 237.87C37.7947 238.225 37.8694 238.622 37.8694 239.06C37.8694 239.499 37.7947 239.9 37.6454 240.264C37.496 240.619 37.2627 240.927 36.9454 241.188C36.6374 241.45 36.2454 241.65 35.7694 241.79C35.2934 241.93 34.7334 242 34.0894 242H30.5894V232.2ZM34.0194 240.852C34.9527 240.852 35.606 240.698 35.9794 240.39C36.362 240.073 36.5534 239.63 36.5534 239.06C36.5534 238.491 36.362 238.052 35.9794 237.744C35.606 237.427 34.9527 237.268 34.0194 237.268H31.9054V240.852H34.0194Z" fill="#1B1B1B"/>
<path d="M41.7339 242.14C41.3232 242.14 40.9592 242.084 40.6419 241.972C40.3339 241.851 40.0726 241.688 39.8579 241.482C39.6432 241.277 39.4799 241.034 39.3679 240.754C39.2559 240.474 39.1999 240.166 39.1999 239.83C39.1999 239.093 39.4146 238.561 39.8439 238.234C40.2826 237.908 40.9079 237.744 41.7199 237.744H44.1279V237.24C44.1279 236.606 43.9832 236.167 43.6939 235.924C43.4139 235.682 42.9892 235.56 42.4199 235.56C41.8879 235.56 41.5006 235.663 41.2579 235.868C41.0152 236.064 40.8799 236.288 40.8519 236.54H39.6199C39.6386 236.242 39.7179 235.966 39.8579 235.714C40.0072 235.453 40.2032 235.229 40.4459 235.042C40.6979 234.856 40.9966 234.711 41.3419 234.608C41.6872 234.496 42.0699 234.44 42.4899 234.44C43.3672 234.44 44.0626 234.65 44.5759 235.07C45.0986 235.481 45.3599 236.158 45.3599 237.1V240.11C45.3599 240.502 45.3599 240.848 45.3599 241.146C45.3692 241.436 45.3926 241.72 45.4299 242H44.3519C44.3239 241.786 44.3052 241.585 44.2959 241.398C44.2866 241.202 44.2819 240.983 44.2819 240.74C44.0859 241.132 43.7686 241.464 43.3299 241.734C42.8912 242.005 42.3592 242.14 41.7339 242.14ZM41.9999 241.02C42.2892 241.02 42.5599 240.983 42.8119 240.908C43.0732 240.824 43.3019 240.708 43.4979 240.558C43.6939 240.4 43.8479 240.208 43.9599 239.984C44.0719 239.76 44.1279 239.499 44.1279 239.2V238.696H41.9299C41.4726 238.696 41.1132 238.79 40.8519 238.976C40.5906 239.154 40.4599 239.438 40.4599 239.83C40.4599 240.176 40.5812 240.46 40.8239 240.684C41.0759 240.908 41.4679 241.02 41.9999 241.02Z" fill="#1B1B1B"/>
<path d="M47.5359 234.58H48.7679V237.674H52.6039V234.58H53.8359V242H52.6039V238.766H48.7679V242H47.5359V234.58Z" fill="#1B1B1B"/>
<path d="M56.0808 234.58H57.3128V237.688H58.2928L61.0648 234.58H62.5208L59.3008 238.136L62.6608 242H61.0928L58.2928 238.752H57.3128V242H56.0808V234.58Z" fill="#1B1B1B"/>
<path d="M66.9401 242.14C66.4641 242.14 66.0115 242.066 65.5821 241.916C65.1528 241.758 64.7748 241.524 64.4481 241.216C64.1215 240.899 63.8601 240.502 63.6641 240.026C63.4681 239.55 63.3701 238.995 63.3701 238.36V238.08C63.3701 237.483 63.4681 236.956 63.6641 236.498C63.8601 236.041 64.1215 235.663 64.4481 235.364C64.7748 235.056 65.1528 234.828 65.5821 234.678C66.0115 234.52 66.4641 234.44 66.9401 234.44C67.4161 234.44 67.8688 234.52 68.2981 234.678C68.7275 234.828 69.1055 235.056 69.4321 235.364C69.7588 235.663 70.0201 236.041 70.2161 236.498C70.4121 236.956 70.5101 237.483 70.5101 238.08V238.36C70.5101 238.995 70.4121 239.55 70.2161 240.026C70.0201 240.502 69.7588 240.899 69.4321 241.216C69.1055 241.524 68.7275 241.758 68.2981 241.916C67.8688 242.066 67.4161 242.14 66.9401 242.14ZM66.9401 241.02C67.2201 241.02 67.5001 240.974 67.7801 240.88C68.0601 240.778 68.3075 240.624 68.5221 240.418C68.7368 240.204 68.9095 239.928 69.0401 239.592C69.1801 239.256 69.2501 238.846 69.2501 238.36V238.08C69.2501 237.632 69.1801 237.25 69.0401 236.932C68.9095 236.615 68.7368 236.354 68.5221 236.148C68.3075 235.943 68.0601 235.794 67.7801 235.7C67.5001 235.607 67.2201 235.56 66.9401 235.56C66.6601 235.56 66.3801 235.607 66.1001 235.7C65.8201 235.794 65.5728 235.943 65.3581 236.148C65.1435 236.354 64.9661 236.615 64.8261 236.932C64.6955 237.25 64.6301 237.632 64.6301 238.08V238.36C64.6301 238.846 64.6955 239.256 64.8261 239.592C64.9661 239.928 65.1435 240.204 65.3581 240.418C65.5728 240.624 65.8201 240.778 66.1001 240.88C66.3801 240.974 66.6601 241.02 66.9401 241.02Z" fill="#1B1B1B"/>
<path d="M72.2547 234.58H75.4747C76.3893 234.58 77.0613 234.772 77.4907 235.154C77.92 235.528 78.1347 236.013 78.1347 236.61C78.1347 236.769 78.1067 236.932 78.0507 237.1C77.9947 237.259 77.9153 237.408 77.8127 237.548C77.7193 237.688 77.6027 237.81 77.4627 237.912C77.332 238.015 77.1827 238.094 77.0147 238.15C77.472 238.262 77.8173 238.477 78.0507 238.794C78.2933 239.102 78.4147 239.466 78.4147 239.886C78.4147 240.53 78.2 241.044 77.7707 241.426C77.3413 241.809 76.6693 242 75.7547 242H72.2547V234.58ZM75.7547 240.908C76.2773 240.908 76.646 240.815 76.8607 240.628C77.0753 240.442 77.1827 240.176 77.1827 239.83C77.1827 239.476 77.0753 239.205 76.8607 239.018C76.646 238.822 76.2773 238.724 75.7547 238.724H73.4867V240.908H75.7547ZM75.4747 237.716C76.0067 237.716 76.3753 237.623 76.5807 237.436C76.7953 237.25 76.9027 236.993 76.9027 236.666C76.9027 236.358 76.7953 236.116 76.5807 235.938C76.3753 235.761 76.0067 235.672 75.4747 235.672H73.4867V237.716H75.4747Z" fill="#1B1B1B"/>
<path d="M83.0407 242.14C82.5647 242.14 82.1214 242.066 81.7107 241.916C81.3 241.758 80.9453 241.524 80.6467 241.216C80.348 240.899 80.11 240.502 79.9327 240.026C79.7647 239.55 79.6807 238.995 79.6807 238.36V238.08C79.6807 237.483 79.774 236.956 79.9607 236.498C80.1474 236.041 80.3947 235.663 80.7027 235.364C81.0107 235.056 81.3654 234.828 81.7667 234.678C82.1774 234.52 82.602 234.44 83.0407 234.44C83.4793 234.44 83.8713 234.501 84.2167 234.622C84.5713 234.744 84.8747 234.912 85.1267 235.126C85.388 235.341 85.598 235.593 85.7567 235.882C85.9247 236.172 86.046 236.484 86.1207 236.82H84.8607C84.786 236.643 84.6973 236.48 84.5947 236.33C84.5013 236.172 84.38 236.036 84.2307 235.924C84.0907 235.812 83.9227 235.724 83.7267 235.658C83.5307 235.593 83.302 235.56 83.0407 235.56C82.77 235.56 82.5087 235.612 82.2567 235.714C82.0047 235.808 81.7807 235.957 81.5847 236.162C81.3887 236.358 81.23 236.615 81.1087 236.932C80.9967 237.25 80.9407 237.632 80.9407 238.08V238.36C80.9407 238.836 80.9967 239.247 81.1087 239.592C81.23 239.928 81.3887 240.204 81.5847 240.418C81.7807 240.624 82.0047 240.778 82.2567 240.88C82.5087 240.974 82.77 241.02 83.0407 241.02C83.498 241.02 83.8807 240.908 84.1887 240.684C84.506 240.46 84.73 240.152 84.8607 239.76H86.1207C85.9433 240.498 85.5793 241.081 85.0287 241.51C84.478 241.93 83.8153 242.14 83.0407 242.14Z" fill="#1B1B1B"/>
<path d="M87.7996 234.58H89.0316V237.688H90.0116L92.7836 234.58H94.2396L91.0196 238.136L94.3796 242H92.8116L90.0116 238.752H89.0316V242H87.7996V234.58Z" fill="#1B1B1B"/>
<path d="M97.8296 242.14C97.4189 242.14 97.0549 242.084 96.7376 241.972C96.4296 241.851 96.1683 241.688 95.9536 241.482C95.7389 241.277 95.5756 241.034 95.4636 240.754C95.3516 240.474 95.2956 240.166 95.2956 239.83C95.2956 239.093 95.5103 238.561 95.9396 238.234C96.3783 237.908 97.0036 237.744 97.8156 237.744H100.224V237.24C100.224 236.606 100.079 236.167 99.7896 235.924C99.5096 235.682 99.0849 235.56 98.5156 235.56C97.9836 235.56 97.5963 235.663 97.3536 235.868C97.1109 236.064 96.9756 236.288 96.9476 236.54H95.7156C95.7343 236.242 95.8136 235.966 95.9536 235.714C96.1029 235.453 96.2989 235.229 96.5416 235.042C96.7936 234.856 97.0923 234.711 97.4376 234.608C97.7829 234.496 98.1656 234.44 98.5856 234.44C99.4629 234.44 100.158 234.65 100.672 235.07C101.194 235.481 101.456 236.158 101.456 237.1V240.11C101.456 240.502 101.456 240.848 101.456 241.146C101.465 241.436 101.488 241.72 101.526 242H100.448C100.42 241.786 100.401 241.585 100.392 241.398C100.382 241.202 100.378 240.983 100.378 240.74C100.182 241.132 99.8643 241.464 99.4256 241.734C98.9869 242.005 98.4549 242.14 97.8296 242.14ZM98.0956 241.02C98.3849 241.02 98.6556 240.983 98.9076 240.908C99.1689 240.824 99.3976 240.708 99.5936 240.558C99.7896 240.4 99.9436 240.208 100.056 239.984C100.168 239.76 100.224 239.499 100.224 239.2V238.696H98.0256C97.5683 238.696 97.2089 238.79 96.9476 238.976C96.6863 239.154 96.5556 239.438 96.5556 239.83C96.5556 240.176 96.6769 240.46 96.9196 240.684C97.1716 240.908 97.5636 241.02 98.0956 241.02Z" fill="#1B1B1B"/>
<path d="M105.088 239.06C104.472 238.92 104.028 238.668 103.758 238.304C103.487 237.931 103.352 237.455 103.352 236.876C103.352 236.148 103.571 235.584 104.01 235.182C104.458 234.781 105.172 234.58 106.152 234.58H109.372V242H108.14V239.172H106.25L104.444 242H103.072L105.088 239.06ZM104.584 236.876C104.584 237.268 104.696 237.567 104.92 237.772C105.153 237.978 105.54 238.08 106.082 238.08H108.14V235.672H106.082C105.54 235.672 105.153 235.775 104.92 235.98C104.696 236.186 104.584 236.484 104.584 236.876Z" fill="#1B1B1B"/>
<path d="M115.116 234.58H116.348V237.688H117.328L120.1 234.58H121.556L118.336 238.136L121.696 242H120.128L117.328 238.752H116.348V242H115.116V234.58Z" fill="#1B1B1B"/>
<path d="M125.146 242.14C124.735 242.14 124.371 242.084 124.054 241.972C123.746 241.851 123.485 241.688 123.27 241.482C123.055 241.277 122.892 241.034 122.78 240.754C122.668 240.474 122.612 240.166 122.612 239.83C122.612 239.093 122.827 238.561 123.256 238.234C123.695 237.908 124.32 237.744 125.132 237.744H127.54V237.24C127.54 236.606 127.395 236.167 127.106 235.924C126.826 235.682 126.401 235.56 125.832 235.56C125.3 235.56 124.913 235.663 124.67 235.868C124.427 236.064 124.292 236.288 124.264 236.54H123.032C123.051 236.242 123.13 235.966 123.27 235.714C123.419 235.453 123.615 235.229 123.858 235.042C124.11 234.856 124.409 234.711 124.754 234.608C125.099 234.496 125.482 234.44 125.902 234.44C126.779 234.44 127.475 234.65 127.988 235.07C128.511 235.481 128.772 236.158 128.772 237.1V240.11C128.772 240.502 128.772 240.848 128.772 241.146C128.781 241.436 128.805 241.72 128.842 242H127.764C127.736 241.786 127.717 241.585 127.708 241.398C127.699 241.202 127.694 240.983 127.694 240.74C127.498 241.132 127.181 241.464 126.742 241.734C126.303 242.005 125.771 242.14 125.146 242.14ZM125.412 241.02C125.701 241.02 125.972 240.983 126.224 240.908C126.485 240.824 126.714 240.708 126.91 240.558C127.106 240.4 127.26 240.208 127.372 239.984C127.484 239.76 127.54 239.499 127.54 239.2V238.696H125.342C124.885 238.696 124.525 238.79 124.264 238.976C124.003 239.154 123.872 239.438 123.872 239.83C123.872 240.176 123.993 240.46 124.236 240.684C124.488 240.908 124.88 241.02 125.412 241.02Z" fill="#1B1B1B"/>
<path d="M130.948 234.58H132.096V235.98C132.348 235.486 132.698 235.108 133.146 234.846C133.603 234.576 134.131 234.44 134.728 234.44C135.661 234.44 136.408 234.748 136.968 235.364C137.528 235.971 137.808 236.876 137.808 238.08V238.36C137.808 238.995 137.733 239.55 137.584 240.026C137.435 240.493 137.225 240.885 136.954 241.202C136.683 241.51 136.357 241.744 135.974 241.902C135.601 242.061 135.185 242.14 134.728 242.14C134.093 242.14 133.561 242 133.132 241.72C132.712 241.44 132.395 241.09 132.18 240.67V244.8H130.948V234.58ZM134.448 241.048C134.747 241.048 135.027 240.992 135.288 240.88C135.549 240.759 135.773 240.586 135.96 240.362C136.156 240.138 136.305 239.858 136.408 239.522C136.52 239.186 136.576 238.799 136.576 238.36V238.08C136.576 237.679 136.52 237.32 136.408 237.002C136.305 236.685 136.156 236.419 135.96 236.204C135.773 235.98 135.549 235.812 135.288 235.7C135.027 235.588 134.747 235.532 134.448 235.532C134.112 235.532 133.804 235.588 133.524 235.7C133.244 235.803 133.006 235.952 132.81 236.148C132.614 236.335 132.46 236.559 132.348 236.82C132.236 237.082 132.18 237.362 132.18 237.66V238.78C132.18 239.116 132.236 239.424 132.348 239.704C132.46 239.984 132.614 240.222 132.81 240.418C133.006 240.614 133.244 240.768 133.524 240.88C133.804 240.992 134.112 241.048 134.448 241.048Z" fill="#1B1B1B"/>
<path d="M141.119 235.672H138.585V234.58H144.885V235.672H142.351V242H141.119V235.672Z" fill="#1B1B1B"/>
<path d="M148.128 242.14C147.718 242.14 147.354 242.084 147.036 241.972C146.728 241.851 146.467 241.688 146.252 241.482C146.038 241.277 145.874 241.034 145.762 240.754C145.65 240.474 145.594 240.166 145.594 239.83C145.594 239.093 145.809 238.561 146.238 238.234C146.677 237.908 147.302 237.744 148.114 237.744H150.522V237.24C150.522 236.606 150.378 236.167 150.088 235.924C149.808 235.682 149.384 235.56 148.814 235.56C148.282 235.56 147.895 235.663 147.652 235.868C147.41 236.064 147.274 236.288 147.246 236.54H146.014C146.033 236.242 146.112 235.966 146.252 235.714C146.402 235.453 146.598 235.229 146.84 235.042C147.092 234.856 147.391 234.711 147.736 234.608C148.082 234.496 148.464 234.44 148.884 234.44C149.762 234.44 150.457 234.65 150.97 235.07C151.493 235.481 151.754 236.158 151.754 237.1V240.11C151.754 240.502 151.754 240.848 151.754 241.146C151.764 241.436 151.787 241.72 151.824 242H150.746C150.718 241.786 150.7 241.585 150.69 241.398C150.681 241.202 150.676 240.983 150.676 240.74C150.48 241.132 150.163 241.464 149.724 241.734C149.286 242.005 148.754 242.14 148.128 242.14ZM148.394 241.02C148.684 241.02 148.954 240.983 149.206 240.908C149.468 240.824 149.696 240.708 149.892 240.558C150.088 240.4 150.242 240.208 150.354 239.984C150.466 239.76 150.522 239.499 150.522 239.2V238.696H148.324C147.867 238.696 147.508 238.79 147.246 238.976C146.985 239.154 146.854 239.438 146.854 239.83C146.854 240.176 146.976 240.46 147.218 240.684C147.47 240.908 147.862 241.02 148.394 241.02Z" fill="#1B1B1B"/>
<path d="M290.585 242.14C290.025 242.14 289.484 242.047 288.961 241.86C288.438 241.664 287.976 241.365 287.575 240.964C287.174 240.563 286.852 240.049 286.609 239.424C286.366 238.799 286.245 238.047 286.245 237.17V236.89C286.245 236.05 286.366 235.327 286.609 234.72C286.852 234.113 287.174 233.614 287.575 233.222C287.976 232.821 288.438 232.527 288.961 232.34C289.484 232.153 290.025 232.06 290.585 232.06C291.145 232.06 291.686 232.153 292.209 232.34C292.732 232.527 293.194 232.821 293.595 233.222C293.996 233.614 294.318 234.113 294.561 234.72C294.804 235.327 294.925 236.05 294.925 236.89V237.17C294.925 237.963 294.827 238.649 294.631 239.228C294.435 239.797 294.174 240.283 293.847 240.684L294.785 241.622L293.987 242.42L293.007 241.454C292.652 241.687 292.27 241.86 291.859 241.972C291.448 242.084 291.024 242.14 290.585 242.14ZM290.585 240.964C290.856 240.964 291.117 240.931 291.369 240.866C291.63 240.791 291.873 240.684 292.097 240.544L290.585 239.018L291.383 238.22L292.895 239.746C293.091 239.447 293.245 239.088 293.357 238.668C293.469 238.239 293.525 237.739 293.525 237.17V236.89C293.525 236.246 293.441 235.695 293.273 235.238C293.114 234.771 292.9 234.393 292.629 234.104C292.358 233.805 292.046 233.586 291.691 233.446C291.336 233.306 290.968 233.236 290.585 233.236C290.202 233.236 289.834 233.306 289.479 233.446C289.124 233.586 288.812 233.805 288.541 234.104C288.27 234.393 288.051 234.771 287.883 235.238C287.724 235.695 287.645 236.246 287.645 236.89V237.17C287.645 237.851 287.724 238.435 287.883 238.92C288.051 239.396 288.27 239.788 288.541 240.096C288.812 240.395 289.124 240.614 289.479 240.754C289.834 240.894 290.202 240.964 290.585 240.964Z" fill="#1B1B1B"/>
<path d="M297.028 234.58H298.26V242H297.028V234.58ZM297.644 233.6C297.402 233.6 297.201 233.521 297.042 233.362C296.884 233.203 296.804 233.003 296.804 232.76C296.804 232.517 296.884 232.317 297.042 232.158C297.201 231.999 297.402 231.92 297.644 231.92C297.887 231.92 298.088 231.999 298.246 232.158C298.405 232.317 298.484 232.517 298.484 232.76C298.484 233.003 298.405 233.203 298.246 233.362C298.088 233.521 297.887 233.6 297.644 233.6Z" fill="#1B1B1B"/>
<path d="M299.934 234.58H301.278L302.706 240.32L304.638 234.58H305.73L307.732 240.32L309.146 234.58H310.434L308.404 242H307.172L305.156 236.26L303.196 242H301.964L299.934 234.58Z" fill="#1B1B1B"/>
<path d="M312.108 234.58H313.34V242H312.108V234.58ZM312.724 233.6C312.482 233.6 312.281 233.521 312.122 233.362C311.964 233.203 311.884 233.003 311.884 232.76C311.884 232.517 311.964 232.317 312.122 232.158C312.281 231.999 312.482 231.92 312.724 231.92C312.967 231.92 313.168 231.999 313.326 232.158C313.485 232.317 313.564 232.517 313.564 232.76C313.564 233.003 313.485 233.203 313.326 233.362C313.168 233.521 312.967 233.6 312.724 233.6Z" fill="#1B1B1B"/>
<rect x="1.5" y="161.5" width="179" height="99" rx="5.5" stroke="#3078FE"/>
<rect x="210.25" y="161.25" width="179.5" height="99.5" rx="5.75" stroke="#DDDDDD" stroke-width="0.5"/>
<path d="M75.1666 186.667H106.833C109.134 186.667 111 188.532 111 190.834V209.167C111 211.468 109.134 213.334 106.833 213.334H75.1666C72.8655 213.334 71 211.468 71 209.167V190.834C71 188.532 72.8655 186.667 75.1666 186.667Z" fill="#2196F3"/>
<path d="M111 191.667H71V198.334H111V191.667Z" fill="#455A64"/>
<path d="M83.5 205H76.8334C76.3731 205 76 204.627 76 204.166C76 203.706 76.3731 203.333 76.8334 203.333H83.5C83.9602 203.333 84.3334 203.706 84.3334 204.166C84.3334 204.627 83.9602 205 83.5 205Z" fill="#FAFAFA"/>
<path d="M88.5 208.333H76.8334C76.3731 208.333 76 207.96 76 207.499C76 207.039 76.3731 206.666 76.8334 206.666H88.5C88.9602 206.666 89.3334 207.039 89.3334 207.499C89.3334 207.96 88.9602 208.333 88.5 208.333Z" fill="#FAFAFA"/>
<circle cx="164" cy="177" r="5" fill="#3078FE"/>
<circle cx="164" cy="177" r="3" fill="white"/>
<path d="M317.506 218.668C317.339 218.205 317.035 217.889 316.816 217.478C316.283 216.772 315.655 216.161 315.028 215.549C314.808 215.476 314.714 215.265 314.505 215.181C314.369 215.002 314.15 214.907 313.972 214.77C313.616 214.496 313.23 214.264 312.832 214.032C312.079 213.547 311.149 213.242 310.229 212.926C309.236 212.683 308.19 212.504 307.103 212.357C306.026 212.199 304.949 212.051 304.133 211.619C303.663 211.482 303.318 211.219 302.91 211.008C302.534 210.755 302.126 210.544 301.812 210.228C301.425 209.996 301.185 209.606 300.882 209.29C300.777 209.08 300.599 208.953 300.516 208.721C300.411 208.679 300.38 208.553 300.317 208.479C300.244 208.395 300.244 208.226 300.118 208.194C300.056 208.627 300.077 209.143 300.118 209.585C300.171 209.775 300.192 210.007 300.244 210.197C300.275 210.365 300.432 210.639 300.369 210.766C297.107 210.597 294.723 209.554 292.653 208.184C291.629 207.499 290.75 206.667 289.935 205.771C289.579 205.276 289.193 204.801 288.879 204.254C288.555 203.716 288.283 203.105 287.99 202.536C287.509 201.303 287.06 200.039 286.892 198.49C286.673 197.046 286.725 195.202 287.049 193.864C287.164 193.126 287.405 192.505 287.614 191.862C287.75 191.567 287.896 191.272 288.022 190.966C288.199 190.713 288.293 190.366 288.513 190.144C289.109 189.017 289.998 188.174 290.907 187.362C291.89 186.635 293.009 186.045 294.358 185.687C295.654 185.392 297.421 185.339 298.822 185.645C301.666 186.235 303.809 187.52 305.608 189.164C307.427 190.776 308.828 192.821 309.79 195.307C310.783 197.668 311.128 201.345 310.239 204.022C309.873 203.811 309.507 203.611 309.141 203.411C308.702 203.284 308.274 203.137 307.761 203.084C307.145 203.073 306.538 203.084 306.141 203.284C306.946 203.2 307.594 203.421 308.096 203.611C308.389 203.727 308.556 203.8 308.786 203.937C309.236 204.201 309.633 204.443 309.967 204.801C310.919 205.644 311.599 206.761 311.923 208.237C311.923 208.279 311.975 208.268 311.964 208.194C312.006 208.184 312.027 208.152 312.048 208.11C312.1 208.047 312.163 207.984 312.215 207.91C312.32 207.784 312.425 207.657 312.498 207.499C312.717 207.236 312.895 206.941 313.062 206.635C313.449 206.066 313.742 205.413 314.076 204.791C314.652 203.463 315.122 202.03 315.415 200.407C316 196.804 315.3 193.39 314.076 190.871C312.822 188.332 311.065 186.298 308.796 184.77C306.507 183.253 303.83 182.136 300.15 182.031C300.129 181.957 300.098 182.041 300.024 182.031C298.08 181.967 296.511 182.241 294.953 182.642C294.232 182.884 293.479 183.095 292.841 183.421C292.11 183.664 291.524 184.064 290.855 184.359C290.614 184.591 290.249 184.707 289.998 184.928C289.673 185.086 289.433 185.339 289.109 185.497C288.586 185.961 288.032 186.372 287.52 186.846C287.018 187.31 286.579 187.837 286.098 188.321C286.025 188.49 285.899 188.606 285.774 188.732C285.69 188.89 285.585 189.027 285.449 189.143C285.397 189.333 285.23 189.407 285.167 189.596C285.031 189.702 285 189.912 284.843 190.007C284.707 190.344 284.467 190.587 284.31 190.903C284.122 191.208 283.975 191.546 283.787 191.841C283.494 192.526 283.181 193.189 282.94 193.927C282.689 194.644 282.48 195.402 282.334 196.224C282.177 196.993 282.031 197.994 282.051 198.806C281.947 199.101 282.031 199.649 282.051 199.997C282.051 200.06 282.01 200.081 282.01 200.123C282.01 200.513 282.114 200.987 282.135 201.229C282.219 202.125 282.376 202.957 282.627 203.685C282.783 204.496 283.118 205.128 283.358 205.855C283.724 206.466 283.975 207.193 284.414 207.741C284.739 208.384 285.199 208.89 285.638 209.417C286.108 209.923 286.579 210.439 287.143 210.85C288.178 211.756 289.391 212.483 290.719 213.105C293.197 214.317 296.898 215.107 300.223 214.907C301.07 214.791 301.927 214.685 302.701 214.496C303.412 214.232 304.238 214.074 305.095 213.969C307.05 213.842 308.744 214.022 310.25 214.464C311.776 214.875 313.094 215.497 314.233 216.308C314.84 216.666 315.342 217.13 315.854 217.573C316.377 218.026 316.795 218.584 317.276 219.09C317.339 219.28 317.464 219.417 317.558 219.585C317.684 219.722 317.621 220.038 317.924 219.996C318.112 219.806 317.893 219.533 317.882 219.301C317.694 219.1 317.652 218.837 317.506 218.668Z" fill="#FCB316"/>
<path d="M131.68 54.4042H130.42V53.3962H131.68V52.2202H130.42V51.0722H131.68V46.2002H134.76C135.339 46.2002 135.843 46.2749 136.272 46.4242C136.711 46.5735 137.075 46.7835 137.364 47.0542C137.663 47.3155 137.887 47.6329 138.036 48.0062C138.185 48.3702 138.26 48.7715 138.26 49.2102C138.26 49.6489 138.185 50.0549 138.036 50.4282C137.887 50.7922 137.663 51.1095 137.364 51.3802C137.075 51.6415 136.711 51.8469 136.272 51.9962C135.843 52.1455 135.339 52.2202 134.76 52.2202H132.996V53.3962H136.3V54.4042H132.996V56.0002H131.68V54.4042ZM134.69 51.0722C135.493 51.0722 136.067 50.9042 136.412 50.5682C136.767 50.2322 136.944 49.7795 136.944 49.2102C136.944 48.6409 136.767 48.1882 136.412 47.8522C136.067 47.5162 135.493 47.3482 134.69 47.3482H132.996V51.0722H134.69Z" fill="#1B1B1B"/>
</svg>
