<svg width="221" height="252" viewBox="0 0 221 252" fill="none" xmlns="http://www.w3.org/2000/svg">
<path d="M66.8862 116.2H68.2022V120.386H73.4102V116.2H74.7262V126H73.4102V121.534H68.2022V126H66.8862V116.2Z" fill="#1B1B1B"/>
<path d="M79.3569 126.14C78.9463 126.14 78.5823 126.084 78.2649 125.972C77.9569 125.85 77.6956 125.687 77.4809 125.482C77.2663 125.276 77.103 125.034 76.991 124.754C76.879 124.474 76.8229 124.166 76.8229 123.83C76.8229 123.092 77.0376 122.56 77.4669 122.234C77.9056 121.907 78.5309 121.744 79.3429 121.744H81.7509V121.24C81.7509 120.605 81.6063 120.166 81.3169 119.924C81.0369 119.681 80.6123 119.56 80.0429 119.56C79.5109 119.56 79.1236 119.662 78.881 119.868C78.6383 120.064 78.5029 120.288 78.4749 120.54H77.243C77.2616 120.241 77.3409 119.966 77.4809 119.714C77.6303 119.452 77.8263 119.228 78.0689 119.042C78.3209 118.855 78.6196 118.71 78.965 118.608C79.3103 118.496 79.6929 118.44 80.1129 118.44C80.9903 118.44 81.6856 118.65 82.199 119.07C82.7216 119.48 82.9829 120.157 82.9829 121.1V124.11C82.9829 124.502 82.9829 124.847 82.9829 125.146C82.9923 125.435 83.0156 125.72 83.0529 126H81.9749C81.9469 125.785 81.9283 125.584 81.9189 125.398C81.9096 125.202 81.9049 124.982 81.9049 124.74C81.7089 125.132 81.3916 125.463 80.9529 125.734C80.5143 126.004 79.9823 126.14 79.3569 126.14ZM79.6229 125.02C79.9123 125.02 80.183 124.982 80.435 124.908C80.6963 124.824 80.9249 124.707 81.1209 124.558C81.3169 124.399 81.4709 124.208 81.5829 123.984C81.6949 123.76 81.7509 123.498 81.7509 123.2V122.696H79.5529C79.0956 122.696 78.7363 122.789 78.4749 122.976C78.2136 123.153 78.0829 123.438 78.0829 123.83C78.0829 124.175 78.2043 124.46 78.4469 124.684C78.6989 124.908 79.0909 125.02 79.6229 125.02Z" fill="#1B1B1B"/>
<path d="M89.457 123.046C89.2423 123.176 88.981 123.293 88.673 123.396C88.3743 123.498 87.9963 123.55 87.539 123.55C87.1096 123.55 86.7223 123.503 86.377 123.41C86.041 123.316 85.7563 123.167 85.523 122.962C85.2896 122.756 85.1123 122.49 84.991 122.164C84.8696 121.837 84.809 121.436 84.809 120.96V118.58H86.041V120.75C86.041 121.067 86.069 121.333 86.125 121.548C86.1903 121.762 86.293 121.935 86.433 122.066C86.573 122.196 86.7503 122.29 86.965 122.346C87.1796 122.402 87.441 122.43 87.749 122.43C88.169 122.43 88.5283 122.388 88.827 122.304C89.1256 122.22 89.3356 122.131 89.457 122.038V118.58H90.689V126H89.457V123.046Z" fill="#1B1B1B"/>
<path d="M92.9246 118.58H94.1566V124.18L97.9926 118.58H99.2246V126H97.9926V120.4L94.1566 126H92.9246V118.58Z" fill="#1B1B1B"/>
<path d="M101.47 118.58H102.702V121.674H106.538V118.58H107.77V126H106.538V122.766H102.702V126H101.47V118.58Z" fill="#1B1B1B"/>
<path d="M112.128 126.14C111.718 126.14 111.354 126.084 111.036 125.972C110.728 125.85 110.467 125.687 110.252 125.482C110.038 125.276 109.874 125.034 109.762 124.754C109.65 124.474 109.594 124.166 109.594 123.83C109.594 123.092 109.809 122.56 110.238 122.234C110.677 121.907 111.302 121.744 112.114 121.744H114.522V121.24C114.522 120.605 114.378 120.166 114.088 119.924C113.808 119.681 113.384 119.56 112.814 119.56C112.282 119.56 111.895 119.662 111.652 119.868C111.41 120.064 111.274 120.288 111.246 120.54H110.014C110.033 120.241 110.112 119.966 110.252 119.714C110.402 119.452 110.598 119.228 110.84 119.042C111.092 118.855 111.391 118.71 111.736 118.608C112.082 118.496 112.464 118.44 112.884 118.44C113.762 118.44 114.457 118.65 114.97 119.07C115.493 119.48 115.754 120.157 115.754 121.1V124.11C115.754 124.502 115.754 124.847 115.754 125.146C115.764 125.435 115.787 125.72 115.824 126H114.746C114.718 125.785 114.7 125.584 114.69 125.398C114.681 125.202 114.676 124.982 114.676 124.74C114.48 125.132 114.163 125.463 113.724 125.734C113.286 126.004 112.754 126.14 112.128 126.14ZM112.394 125.02C112.684 125.02 112.954 124.982 113.206 124.908C113.468 124.824 113.696 124.707 113.892 124.558C114.088 124.399 114.242 124.208 114.354 123.984C114.466 123.76 114.522 123.498 114.522 123.2V122.696H112.324C111.867 122.696 111.508 122.789 111.246 122.976C110.985 123.153 110.854 123.438 110.854 123.83C110.854 124.175 110.976 124.46 111.218 124.684C111.47 124.908 111.862 125.02 112.394 125.02Z" fill="#1B1B1B"/>
<path d="M117.93 118.58H119.162V121.674H120.212C120.25 121.142 120.366 120.675 120.562 120.274C120.758 119.863 121.006 119.522 121.304 119.252C121.612 118.981 121.962 118.78 122.354 118.65C122.746 118.51 123.162 118.44 123.6 118.44C124.076 118.44 124.52 118.519 124.93 118.678C125.35 118.827 125.714 119.056 126.022 119.364C126.33 119.662 126.573 120.04 126.75 120.498C126.937 120.955 127.03 121.482 127.03 122.08V122.36C127.03 122.994 126.937 123.55 126.75 124.026C126.573 124.502 126.33 124.898 126.022 125.216C125.714 125.524 125.35 125.757 124.93 125.916C124.52 126.065 124.076 126.14 123.6 126.14C123.162 126.14 122.742 126.074 122.34 125.944C121.948 125.804 121.598 125.594 121.29 125.314C120.992 125.034 120.744 124.684 120.548 124.264C120.362 123.834 120.25 123.335 120.212 122.766H119.162V126H117.93V118.58ZM123.6 125.02C123.88 125.02 124.151 124.973 124.412 124.88C124.674 124.777 124.902 124.623 125.098 124.418C125.304 124.203 125.467 123.928 125.588 123.592C125.71 123.256 125.77 122.845 125.77 122.36V122.08C125.77 121.632 125.71 121.249 125.588 120.932C125.467 120.614 125.304 120.353 125.098 120.148C124.902 119.942 124.674 119.793 124.412 119.7C124.151 119.606 123.88 119.56 123.6 119.56C123.32 119.56 123.05 119.606 122.788 119.7C122.527 119.793 122.294 119.942 122.088 120.148C121.892 120.353 121.734 120.614 121.612 120.932C121.491 121.249 121.43 121.632 121.43 122.08V122.36C121.43 122.845 121.491 123.256 121.612 123.592C121.734 123.928 121.892 124.203 122.088 124.418C122.294 124.623 122.527 124.777 122.788 124.88C123.05 124.973 123.32 125.02 123.6 125.02Z" fill="#1B1B1B"/>
<path d="M137.9 126H128.786V118.58H130.018V124.908H132.72V118.58H133.952V124.908H136.654V118.58H137.886V124.908H139.076V127.75H137.9V126Z" fill="#1B1B1B"/>
<path d="M140.544 118.58H141.776V124.18L145.612 118.58H146.844V126H145.612V120.4L141.776 126H140.544V118.58Z" fill="#1B1B1B"/>
<path d="M149.089 118.58H150.321V124.18L154.157 118.58H155.389V126H154.157V120.4L150.321 126H149.089V118.58ZM152.239 117.67C151.511 117.67 150.979 117.516 150.643 117.208C150.307 116.89 150.139 116.438 150.139 115.85H151.343C151.343 116.484 151.641 116.802 152.239 116.802C152.855 116.802 153.163 116.484 153.163 115.85H154.339C154.339 116.438 154.171 116.89 153.835 117.208C153.499 117.516 152.967 117.67 152.239 117.67Z" fill="#1B1B1B"/>
<path d="M79.5737 90.5402H84.5837V75.0902L79.5737 78.6602V75.6002L84.6437 72.0002H87.4637V90.5402H91.5737V93.0002H79.5737V90.5402Z" fill="#1B1B1B"/>
<path d="M96.9843 93.3002C96.4043 93.3002 95.9043 93.1002 95.4843 92.7002C95.0843 92.2802 94.8843 91.7802 94.8843 91.2002C94.8843 90.6002 95.0843 90.1002 95.4843 89.7002C95.9043 89.3002 96.4043 89.1002 96.9843 89.1002C97.5643 89.1002 98.0543 89.3002 98.4543 89.7002C98.8743 90.1002 99.0843 90.6002 99.0843 91.2002C99.0843 91.7802 98.8743 92.2802 98.4543 92.7002C98.0543 93.1002 97.5643 93.3002 96.9843 93.3002Z" fill="#1B1B1B"/>
<path d="M110.178 93.3002C109.038 93.3002 108.048 93.1502 107.208 92.8502C106.368 92.5302 105.658 92.1202 105.078 91.6202C104.518 91.1002 104.088 90.5202 103.788 89.8802C103.488 89.2402 103.318 88.5802 103.278 87.9002H106.098C106.198 88.6602 106.598 89.3302 107.298 89.9102C108.018 90.4902 108.978 90.7802 110.178 90.7802C111.538 90.7802 112.608 90.3602 113.388 89.5202C114.168 88.6602 114.558 87.4702 114.558 85.9502C114.558 85.0902 114.428 84.3502 114.168 83.7302C113.928 83.1102 113.598 82.6102 113.178 82.2302C112.778 81.8502 112.318 81.5702 111.798 81.3902C111.278 81.2102 110.738 81.1202 110.178 81.1202C109.098 81.1202 108.248 81.3202 107.628 81.7202C107.028 82.1202 106.568 82.5802 106.248 83.1002H103.728V72.0002H116.178V74.4602H106.548V80.3102C107.588 79.1702 108.948 78.6002 110.628 78.6002C112.708 78.6002 114.348 79.2302 115.548 80.4902C116.768 81.7502 117.378 83.5702 117.378 85.9502C117.378 87.0702 117.198 88.0902 116.838 89.0102C116.498 89.9102 116.008 90.6802 115.368 91.3202C114.748 91.9602 113.988 92.4502 113.088 92.7902C112.208 93.1302 111.238 93.3002 110.178 93.3002Z" fill="#1B1B1B"/>
<path d="M137.181 72.0002H140.181L125.781 93.0002H122.781L137.181 72.0002ZM124.581 81.9002C123.881 81.9002 123.231 81.7802 122.631 81.5402C122.051 81.3002 121.551 80.9702 121.131 80.5502C120.711 80.1102 120.381 79.5902 120.141 78.9902C119.901 78.3702 119.781 77.6902 119.781 76.9502V76.6502C119.781 75.9102 119.901 75.2402 120.141 74.6402C120.381 74.0402 120.711 73.5202 121.131 73.0802C121.551 72.6402 122.051 72.3002 122.631 72.0602C123.231 71.8202 123.881 71.7002 124.581 71.7002C125.281 71.7002 125.921 71.8202 126.501 72.0602C127.101 72.3002 127.611 72.6402 128.031 73.0802C128.451 73.5202 128.781 74.0402 129.021 74.6402C129.261 75.2402 129.381 75.9102 129.381 76.6502V76.9502C129.381 77.6902 129.261 78.3702 129.021 78.9902C128.781 79.5902 128.451 80.1102 128.031 80.5502C127.611 80.9702 127.101 81.3002 126.501 81.5402C125.921 81.7802 125.281 81.9002 124.581 81.9002ZM124.581 79.6202C125.261 79.6202 125.801 79.4002 126.201 78.9602C126.601 78.5202 126.801 77.8502 126.801 76.9502V76.6502C126.801 75.7502 126.601 75.0802 126.201 74.6402C125.801 74.2002 125.261 73.9802 124.581 73.9802C123.901 73.9802 123.361 74.2002 122.961 74.6402C122.561 75.0802 122.361 75.7502 122.361 76.6502V76.9502C122.361 77.8502 122.561 78.5202 122.961 78.9602C123.361 79.4002 123.901 79.6202 124.581 79.6202ZM138.381 93.2702C137.681 93.2702 137.031 93.1502 136.431 92.9102C135.851 92.6702 135.351 92.3402 134.931 91.9202C134.511 91.4802 134.181 90.9602 133.941 90.3602C133.701 89.7402 133.581 89.0602 133.581 88.3202V88.0202C133.581 87.2802 133.701 86.6102 133.941 86.0102C134.181 85.4102 134.511 84.8902 134.931 84.4502C135.351 84.0102 135.851 83.6702 136.431 83.4302C137.031 83.1902 137.681 83.0702 138.381 83.0702C139.081 83.0702 139.721 83.1902 140.301 83.4302C140.901 83.6702 141.411 84.0102 141.831 84.4502C142.251 84.8902 142.581 85.4102 142.821 86.0102C143.061 86.6102 143.181 87.2802 143.181 88.0202V88.3202C143.181 89.0602 143.061 89.7402 142.821 90.3602C142.581 90.9602 142.251 91.4802 141.831 91.9202C141.411 92.3402 140.901 92.6702 140.301 92.9102C139.721 93.1502 139.081 93.2702 138.381 93.2702ZM138.381 90.9902C139.061 90.9902 139.601 90.7702 140.001 90.3302C140.401 89.8902 140.601 89.2202 140.601 88.3202V88.0202C140.601 87.1202 140.401 86.4502 140.001 86.0102C139.601 85.5702 139.061 85.3502 138.381 85.3502C137.701 85.3502 137.161 85.5702 136.761 86.0102C136.361 86.4502 136.161 87.1202 136.161 88.0202V88.3202C136.161 89.2202 136.361 89.8902 136.761 90.3302C137.161 90.7702 137.701 90.9902 138.381 90.9902Z" fill="#1B1B1B"/>
<rect x="1.25" y="37.25" width="219.5" height="109.5" rx="5.75" stroke="#4083FD" stroke-width="0.5"/>
<path d="M1.23755 1.40019H7.26755C8.74355 1.40019 9.81755 1.69419 10.4895 2.28219C11.1615 2.85819 11.4976 3.68619 11.4976 4.76619C11.4976 5.41419 11.3295 5.97219 10.9935 6.44019C10.6575 6.89619 10.2015 7.22619 9.62555 7.43019C10.3695 7.59819 10.9575 7.9402 11.3895 8.4562C11.8215 8.9602 12.0375 9.6202 12.0375 10.4362C12.0375 11.5402 11.6715 12.4102 10.9395 13.0462C10.2195 13.6822 9.05555 14.0002 7.44755 14.0002H1.23755V1.40019ZM6.72755 11.5162C7.50755 11.5162 8.04755 11.4022 8.34755 11.1742C8.64755 10.9342 8.79755 10.5682 8.79755 10.0762C8.79755 9.58419 8.64154 9.2182 8.32954 8.9782C8.02954 8.7382 7.48354 8.61819 6.69154 8.61819H4.47755V11.5162H6.72755ZM6.47555 6.4222C7.17155 6.4222 7.63955 6.31419 7.87955 6.09819C8.13155 5.87019 8.25755 5.5522 8.25755 5.1442C8.25755 4.7242 8.13155 4.41219 7.87955 4.20819C7.63955 3.99219 7.17755 3.88419 6.49355 3.88419H4.47755V6.4222H6.47555Z" fill="#1B1B1B"/>
<path d="M13.569 4.46019H16.341V7.55619H17.889C19.137 7.55619 20.079 7.82019 20.715 8.34819C21.351 8.87619 21.669 9.68619 21.669 10.7782C21.669 11.2582 21.597 11.6962 21.453 12.0922C21.321 12.4882 21.099 12.8302 20.787 13.1182C20.487 13.3942 20.097 13.6102 19.617 13.7662C19.149 13.9222 18.573 14.0002 17.889 14.0002H13.569V4.46019ZM17.529 11.9122C18.021 11.9122 18.369 11.8222 18.573 11.6422C18.789 11.4502 18.8969 11.1622 18.8969 10.7782C18.8969 10.3822 18.789 10.0942 18.573 9.9142C18.369 9.7342 18.021 9.6442 17.529 9.6442H16.341V11.9122H17.529ZM22.497 4.46019H25.269V14.0002H22.497V4.46019Z" fill="#1B1B1B"/>
<path d="M31.659 14.2342C30.963 14.2342 30.315 14.1202 29.715 13.8922C29.127 13.6522 28.617 13.3042 28.185 12.8482C27.753 12.3802 27.411 11.8042 27.159 11.1202C26.919 10.4242 26.799 9.61419 26.799 8.69019V8.33019C26.799 7.26219 26.883 6.30819 27.051 5.46819C27.231 4.62819 27.519 3.9142 27.915 3.32619C28.323 2.7262 28.851 2.26419 29.499 1.94019C30.147 1.60419 30.9509 1.41219 31.9109 1.36419C32.2829 1.35219 32.655 1.34019 33.027 1.32819C33.411 1.31619 33.771 1.29819 34.107 1.27419C34.455 1.25019 34.773 1.2142 35.061 1.16619C35.349 1.1182 35.5949 1.0462 35.799 0.950195V3.32619C35.703 3.3862 35.565 3.44019 35.385 3.48819C35.217 3.52419 34.989 3.56019 34.701 3.5962C34.413 3.63219 34.065 3.66219 33.657 3.6862C33.249 3.7102 32.757 3.72819 32.181 3.74019C31.653 3.74019 31.197 3.79419 30.813 3.90219C30.441 4.0102 30.123 4.18419 29.859 4.42419C29.607 4.65219 29.409 4.9522 29.265 5.3242C29.121 5.6842 29.019 6.12219 28.959 6.6382C29.223 6.15819 29.637 5.75619 30.201 5.43219C30.765 5.10819 31.521 4.94619 32.469 4.94619C33.057 4.94619 33.597 5.03619 34.089 5.21619C34.593 5.38419 35.025 5.64219 35.385 5.99019C35.745 6.32619 36.021 6.75819 36.213 7.28619C36.417 7.80219 36.519 8.40219 36.519 9.08619V9.4282C36.519 10.1842 36.393 10.8622 36.141 11.4622C35.889 12.0622 35.547 12.5662 35.115 12.9742C34.683 13.3822 34.167 13.6942 33.567 13.9102C32.979 14.1262 32.343 14.2342 31.659 14.2342ZM31.659 11.9302C32.307 11.9302 32.805 11.7262 33.153 11.3182C33.501 10.8982 33.6749 10.3522 33.6749 9.68019V9.30219C33.6749 8.59419 33.495 8.04819 33.135 7.66419C32.775 7.26819 32.283 7.07019 31.659 7.07019C31.047 7.07019 30.555 7.26219 30.183 7.64619C29.823 8.03019 29.643 8.58219 29.643 9.30219V9.60819C29.643 10.3042 29.835 10.8682 30.219 11.3002C30.603 11.7202 31.083 11.9302 31.659 11.9302Z" fill="#1B1B1B"/>
<path d="M42.5574 14.2342C41.8614 14.2342 41.2074 14.1382 40.5954 13.9462C39.9954 13.7422 39.4734 13.4362 39.0294 13.0282C38.5854 12.6202 38.2374 12.1102 37.9854 11.4982C37.7334 10.8742 37.6074 10.1482 37.6074 9.32019V8.96019C37.6074 8.16819 37.7274 7.47819 37.9674 6.89019C38.2194 6.30219 38.5554 5.81019 38.9754 5.41419C39.4074 5.01819 39.9114 4.72419 40.4874 4.53219C41.0754 4.32819 41.7054 4.22619 42.3774 4.22619C43.9494 4.22619 45.1374 4.6342 45.9414 5.4502C46.7454 6.2542 47.1474 7.42419 47.1474 8.96019V9.9502H40.4514C40.4634 10.3222 40.5294 10.6402 40.6494 10.9042C40.7694 11.1562 40.9254 11.3662 41.1174 11.5342C41.3094 11.7022 41.5254 11.8282 41.7654 11.9122C42.0174 11.9842 42.2814 12.0202 42.5574 12.0202C43.0854 12.0202 43.4994 11.9422 43.7994 11.7862C44.1114 11.6182 44.3154 11.3962 44.4114 11.1202H46.9674C46.7754 12.1642 46.3014 12.9442 45.5454 13.4602C44.7894 13.9762 43.7934 14.2342 42.5574 14.2342ZM42.4674 6.4222C42.2154 6.4222 41.9694 6.4522 41.7294 6.5122C41.5014 6.5722 41.2914 6.6742 41.0994 6.8182C40.9194 6.9502 40.7694 7.12419 40.6494 7.34019C40.5414 7.55619 40.4814 7.82019 40.4694 8.13219H44.4294C44.4294 7.79619 44.3754 7.5202 44.2674 7.3042C44.1594 7.0882 44.0154 6.91419 43.8354 6.78219C43.6674 6.65019 43.4634 6.5602 43.2234 6.5122C42.9834 6.4522 42.7314 6.4222 42.4674 6.4222Z" fill="#1B1B1B"/>
<path d="M48.5846 4.46019H51.1406V5.7562C51.2606 5.5642 51.4106 5.37819 51.5906 5.19819C51.7826 5.00619 52.0046 4.8382 52.2566 4.69419C52.5086 4.55019 52.7906 4.4362 53.1026 4.3522C53.4146 4.2682 53.7506 4.22619 54.1106 4.22619C55.4546 4.22619 56.4746 4.62219 57.1706 5.41419C57.8666 6.20619 58.2146 7.38819 58.2146 8.96019V9.32019C58.2146 10.1362 58.1186 10.8502 57.9266 11.4622C57.7346 12.0742 57.4586 12.5842 57.0986 12.9922C56.7386 13.4002 56.3066 13.7122 55.8026 13.9282C55.2986 14.1322 54.7346 14.2342 54.1106 14.2342C53.5706 14.2342 53.0546 14.1142 52.5626 13.8742C52.0826 13.6222 51.6806 13.2622 51.3566 12.7942V17.6002H48.5846V4.46019ZM53.4446 11.9482C53.9966 11.9482 54.4526 11.7262 54.8126 11.2822C55.1846 10.8382 55.3706 10.1842 55.3706 9.32019V8.96019C55.3706 8.13219 55.1906 7.5202 54.8306 7.1242C54.4826 6.7162 54.0206 6.5122 53.4446 6.5122C52.8566 6.5122 52.3586 6.69819 51.9506 7.07019C51.5546 7.43019 51.3566 7.97019 51.3566 8.69019V9.59019C51.3566 10.3462 51.5546 10.9282 51.9506 11.3362C52.3586 11.7442 52.8566 11.9482 53.4446 11.9482Z" fill="#1B1B1B"/>
<path d="M59.6588 4.46019H62.3588V10.2202L66.4088 4.46019H68.8388V14.0002H66.1388V8.24019L62.0888 14.0002H59.6588V4.46019Z" fill="#1B1B1B"/>
<path d="M73.0391 6.7282H70.1051V4.46019H78.7451V6.7282H75.8111V14.0002H73.0391V6.7282Z" fill="#1B1B1B"/>
<path d="M84.4109 14.2342C83.7149 14.2342 83.0609 14.1382 82.4489 13.9462C81.8489 13.7422 81.3269 13.4362 80.8829 13.0282C80.4389 12.6202 80.0909 12.1102 79.8389 11.4982C79.5869 10.8742 79.4609 10.1482 79.4609 9.32019V8.96019C79.4609 8.16819 79.5809 7.47819 79.8209 6.89019C80.0729 6.30219 80.4089 5.81019 80.8289 5.41419C81.2609 5.01819 81.7649 4.72419 82.3409 4.53219C82.9289 4.32819 83.5589 4.22619 84.2309 4.22619C85.8029 4.22619 86.9909 4.6342 87.7949 5.4502C88.5989 6.2542 89.0009 7.42419 89.0009 8.96019V9.9502H82.3049C82.3169 10.3222 82.3829 10.6402 82.5029 10.9042C82.6229 11.1562 82.7789 11.3662 82.9709 11.5342C83.1629 11.7022 83.3789 11.8282 83.6189 11.9122C83.8709 11.9842 84.1349 12.0202 84.4109 12.0202C84.9389 12.0202 85.3529 11.9422 85.6529 11.7862C85.9649 11.6182 86.1689 11.3962 86.2649 11.1202H88.8209C88.6289 12.1642 88.1549 12.9442 87.3989 13.4602C86.6429 13.9762 85.6469 14.2342 84.4109 14.2342ZM84.3209 6.4222C84.0689 6.4222 83.8229 6.4522 83.5829 6.5122C83.3549 6.5722 83.1449 6.6742 82.9529 6.8182C82.7729 6.9502 82.6229 7.12419 82.5029 7.34019C82.3949 7.55619 82.3349 7.82019 82.3229 8.13219H86.2829C86.2829 7.79619 86.2289 7.5202 86.1209 7.3042C86.0129 7.0882 85.8689 6.91419 85.6889 6.78219C85.5209 6.65019 85.3169 6.5602 85.0769 6.5122C84.8369 6.4522 84.5849 6.4222 84.3209 6.4222Z" fill="#1B1B1B"/>
<path d="M94.3932 4.46019H97.1652V8.07819H97.8852L100.549 4.46019H103.573L100.063 8.9422L103.753 14.0002H100.477L97.8852 10.2022H97.1652V14.0002H94.3932V4.46019Z" fill="#1B1B1B"/>
<path d="M108.983 14.2342C108.311 14.2342 107.681 14.1382 107.093 13.9462C106.505 13.7422 105.989 13.4362 105.545 13.0282C105.101 12.6202 104.753 12.1102 104.501 11.4982C104.249 10.8742 104.123 10.1482 104.123 9.32019V8.96019C104.123 8.18019 104.249 7.4962 104.501 6.9082C104.753 6.3202 105.101 5.82819 105.545 5.43219C105.989 5.03619 106.505 4.73619 107.093 4.53219C107.681 4.32819 108.311 4.22619 108.983 4.22619C109.655 4.22619 110.285 4.32819 110.873 4.53219C111.461 4.73619 111.977 5.03619 112.421 5.43219C112.865 5.82819 113.213 6.3202 113.465 6.9082C113.717 7.4962 113.843 8.18019 113.843 8.96019V9.32019C113.843 10.1362 113.717 10.8562 113.465 11.4802C113.213 12.0922 112.865 12.6022 112.421 13.0102C111.977 13.4182 111.461 13.7242 110.873 13.9282C110.285 14.1322 109.655 14.2342 108.983 14.2342ZM108.983 11.9302C109.631 11.9302 110.129 11.6962 110.477 11.2282C110.825 10.7602 110.999 10.1242 110.999 9.32019V8.96019C110.999 8.24019 110.825 7.6582 110.477 7.2142C110.129 6.7582 109.631 6.53019 108.983 6.53019C108.335 6.53019 107.837 6.7582 107.489 7.2142C107.141 7.6582 106.967 8.24019 106.967 8.96019V9.32019C106.967 10.1482 107.141 10.7902 107.489 11.2462C107.837 11.7022 108.335 11.9302 108.983 11.9302Z" fill="#1B1B1B"/>
<path d="M115.276 4.46019H118.048V8.0062H121.684V4.46019H124.456V14.0002H121.684V10.2742H118.048V14.0002H115.276V4.46019Z" fill="#1B1B1B"/>
<path d="M128.656 6.7282H125.722V4.46019H134.362V6.7282H131.428V14.0002H128.656V6.7282Z" fill="#1B1B1B"/>
<path d="M135.614 4.46019H138.17V5.7562C138.29 5.5642 138.44 5.37819 138.62 5.19819C138.812 5.00619 139.034 4.8382 139.286 4.69419C139.538 4.55019 139.82 4.4362 140.132 4.3522C140.444 4.2682 140.78 4.22619 141.14 4.22619C142.484 4.22619 143.504 4.62219 144.2 5.41419C144.896 6.20619 145.244 7.38819 145.244 8.96019V9.32019C145.244 10.1362 145.148 10.8502 144.956 11.4622C144.764 12.0742 144.488 12.5842 144.128 12.9922C143.768 13.4002 143.336 13.7122 142.832 13.9282C142.328 14.1322 141.764 14.2342 141.14 14.2342C140.6 14.2342 140.084 14.1142 139.592 13.8742C139.112 13.6222 138.71 13.2622 138.386 12.7942V17.6002H135.614V4.46019ZM140.474 11.9482C141.026 11.9482 141.482 11.7262 141.842 11.2822C142.214 10.8382 142.4 10.1842 142.4 9.32019V8.96019C142.4 8.13219 142.22 7.5202 141.86 7.1242C141.512 6.7162 141.05 6.5122 140.474 6.5122C139.886 6.5122 139.388 6.69819 138.98 7.07019C138.584 7.43019 138.386 7.97019 138.386 8.69019V9.59019C138.386 10.3462 138.584 10.9282 138.98 11.3362C139.388 11.7442 139.886 11.9482 140.474 11.9482Z" fill="#1B1B1B"/>
<path d="M149.658 14.2342C149.142 14.2342 148.68 14.1562 148.272 14.0002C147.876 13.8442 147.54 13.6342 147.264 13.3702C146.988 13.0942 146.778 12.7762 146.634 12.4162C146.49 12.0442 146.418 11.6422 146.418 11.2102C146.418 10.2622 146.706 9.53619 147.282 9.03219C147.87 8.52819 148.752 8.2762 149.928 8.2762H152.646V7.8802C152.646 7.3042 152.508 6.9082 152.232 6.6922C151.956 6.4642 151.578 6.35019 151.098 6.35019C150.642 6.35019 150.306 6.42219 150.09 6.56619C149.874 6.71019 149.754 6.93819 149.73 7.25019H146.958C146.982 6.81819 147.09 6.42219 147.282 6.06219C147.474 5.69019 147.744 5.37219 148.092 5.10819C148.452 4.83219 148.89 4.61619 149.406 4.46019C149.922 4.30419 150.516 4.22619 151.188 4.22619C151.812 4.22619 152.382 4.2982 152.898 4.4422C153.426 4.5742 153.876 4.79619 154.248 5.10819C154.62 5.40819 154.908 5.80419 155.112 6.29619C155.316 6.77619 155.418 7.3642 155.418 8.0602V11.5702C155.418 12.0742 155.43 12.5182 155.454 12.9022C155.478 13.2742 155.514 13.6402 155.562 14.0002H152.934C152.91 13.7962 152.886 13.6162 152.862 13.4602C152.85 13.3042 152.844 13.1122 152.844 12.8842C152.556 13.2682 152.154 13.5922 151.638 13.8562C151.134 14.1082 150.474 14.2342 149.658 14.2342ZM150.558 12.2902C151.146 12.2902 151.638 12.1222 152.034 11.7862C152.442 11.4502 152.646 10.9882 152.646 10.4002V10.0042H150.468C150.06 10.0042 149.754 10.1122 149.55 10.3282C149.358 10.5442 149.262 10.7962 149.262 11.0842C149.262 11.4322 149.358 11.7202 149.55 11.9482C149.754 12.1762 150.09 12.2902 150.558 12.2902Z" fill="#1B1B1B"/>
<path d="M157.129 4.46019H159.901V8.07819H160.621L163.285 4.46019H166.31L162.799 8.9422L166.49 14.0002H163.214L160.621 10.2022H159.901V14.0002H157.129V4.46019Z" fill="#1B1B1B"/>
<path d="M169.965 6.7282H167.031V4.46019H175.671V6.7282H172.737V14.0002H169.965V6.7282Z" fill="#1B1B1B"/>
<path d="M4.32778 192.234C4.19578 192.234 4.06379 192.228 3.93179 192.216C3.81179 192.204 3.70378 192.186 3.60778 192.162V189.48C3.70378 189.492 3.79978 189.504 3.89578 189.516C3.99178 189.528 4.10579 189.534 4.23779 189.534C4.50179 189.534 4.71778 189.522 4.88578 189.498C5.05378 189.462 5.19178 189.408 5.29978 189.336C5.40778 189.264 5.49779 189.168 5.56979 189.048C5.64179 188.928 5.70778 188.778 5.76778 188.598L0.727783 179.4H4.00378L7.35178 185.79L9.97978 179.4H13.1478L8.93578 188.94C8.65978 189.552 8.38979 190.068 8.12579 190.488C7.86179 190.896 7.55579 191.232 7.20779 191.496C6.85979 191.76 6.45178 191.946 5.98378 192.054C5.52778 192.174 4.97578 192.234 4.32778 192.234Z" fill="#1B1B1B"/>
<path d="M13.5943 182.46H16.3663V186.078H17.0863L19.7503 182.46H22.7743L19.2643 186.942L22.9543 192H19.6783L17.0863 188.202H16.3663V192H13.5943V182.46Z" fill="#1B1B1B"/>
<path d="M26.8299 192.234C26.3139 192.234 25.8519 192.156 25.4439 192C25.0479 191.844 24.7119 191.634 24.4359 191.37C24.1599 191.094 23.9499 190.776 23.8059 190.416C23.6619 190.044 23.5899 189.642 23.5899 189.21C23.5899 188.262 23.8779 187.536 24.4539 187.032C25.0419 186.528 25.9239 186.276 27.0999 186.276H29.8179V185.88C29.8179 185.304 29.6799 184.908 29.4039 184.692C29.1279 184.464 28.7499 184.35 28.2699 184.35C27.8139 184.35 27.4779 184.422 27.2619 184.566C27.0459 184.71 26.9259 184.938 26.9019 185.25H24.1299C24.1539 184.818 24.2619 184.422 24.4539 184.062C24.6459 183.69 24.9159 183.372 25.2639 183.108C25.6239 182.832 26.0619 182.616 26.5779 182.46C27.0939 182.304 27.6879 182.226 28.3599 182.226C28.9839 182.226 29.5539 182.298 30.0699 182.442C30.5979 182.574 31.0479 182.796 31.4199 183.108C31.7919 183.408 32.0799 183.804 32.2839 184.296C32.4879 184.776 32.5899 185.364 32.5899 186.06V189.57C32.5899 190.074 32.6019 190.518 32.6259 190.902C32.6499 191.274 32.6859 191.64 32.7339 192H30.1059C30.0819 191.796 30.0579 191.616 30.0339 191.46C30.0219 191.304 30.0159 191.112 30.0159 190.884C29.7279 191.268 29.3259 191.592 28.8099 191.856C28.3059 192.108 27.6459 192.234 26.8299 192.234ZM27.7299 190.29C28.3179 190.29 28.8099 190.122 29.2059 189.786C29.6139 189.45 29.8179 188.988 29.8179 188.4V188.004H27.6399C27.2319 188.004 26.9259 188.112 26.7219 188.328C26.5299 188.544 26.4339 188.796 26.4339 189.084C26.4339 189.432 26.5299 189.72 26.7219 189.948C26.9259 190.176 27.2619 190.29 27.7299 190.29Z" fill="#1B1B1B"/>
<path d="M36.7313 187.086L33.7793 182.46H36.6953L38.8553 186.114H39.3953V182.46H42.1673V186.114H42.7073L44.9933 182.46H47.8013L44.8313 186.888L47.9813 192H44.9213L42.7073 188.166H42.1673V192H39.3953V188.166H38.8373L36.5333 192H33.5813L36.7313 187.086Z" fill="#1B1B1B"/>
<path d="M49.0669 182.46H51.7669V188.22L55.8169 182.46H58.2469V192H55.5469V186.24L51.4969 192H49.0669V182.46Z" fill="#1B1B1B"/>
<path d="M62.4473 184.728H59.5133V182.46H68.1533V184.728H65.2192V192H62.4473V184.728Z" fill="#1B1B1B"/>
<path d="M73.819 192.234C73.123 192.234 72.469 192.138 71.857 191.946C71.257 191.742 70.735 191.436 70.291 191.028C69.847 190.62 69.499 190.11 69.247 189.498C68.995 188.874 68.869 188.148 68.869 187.32V186.96C68.869 186.168 68.989 185.478 69.229 184.89C69.481 184.302 69.817 183.81 70.237 183.414C70.669 183.018 71.173 182.724 71.749 182.532C72.337 182.328 72.967 182.226 73.639 182.226C75.211 182.226 76.399 182.634 77.203 183.45C78.007 184.254 78.409 185.424 78.409 186.96V187.95H71.713C71.725 188.322 71.791 188.64 71.911 188.904C72.031 189.156 72.187 189.366 72.379 189.534C72.571 189.702 72.787 189.828 73.027 189.912C73.279 189.984 73.543 190.02 73.819 190.02C74.347 190.02 74.761 189.942 75.061 189.786C75.373 189.618 75.577 189.396 75.673 189.12H78.229C78.037 190.164 77.563 190.944 76.807 191.46C76.051 191.976 75.055 192.234 73.819 192.234ZM73.729 184.422C73.477 184.422 73.231 184.452 72.991 184.512C72.763 184.572 72.553 184.674 72.361 184.818C72.181 184.95 72.031 185.124 71.911 185.34C71.803 185.556 71.743 185.82 71.731 186.132H75.691C75.691 185.796 75.637 185.52 75.529 185.304C75.421 185.088 75.277 184.914 75.097 184.782C74.929 184.65 74.725 184.56 74.485 184.512C74.245 184.452 73.993 184.422 73.729 184.422Z" fill="#1B1B1B"/>
<path d="M88.3013 192.234C87.5933 192.234 86.9393 192.132 86.3393 191.928C85.7513 191.724 85.2413 191.418 84.8093 191.01C84.3773 190.602 84.0413 190.092 83.8013 189.48C83.5613 188.868 83.4413 188.148 83.4413 187.32V186.96C83.4413 186.204 83.5673 185.532 83.8193 184.944C84.0833 184.356 84.4313 183.864 84.8633 183.468C85.3073 183.06 85.8233 182.754 86.4113 182.55C86.9993 182.334 87.6293 182.226 88.3013 182.226C89.0213 182.226 89.6513 182.322 90.1913 182.514C90.7433 182.706 91.2053 182.97 91.5773 183.306C91.9493 183.63 92.2373 184.014 92.4413 184.458C92.6453 184.902 92.7653 185.376 92.8013 185.88H89.9573C89.8613 185.448 89.6813 185.118 89.4173 184.89C89.1653 184.65 88.7933 184.53 88.3013 184.53C87.7133 184.53 87.2273 184.734 86.8433 185.142C86.4713 185.538 86.2853 186.144 86.2853 186.96V187.32C86.2853 188.208 86.4653 188.862 86.8253 189.282C87.1973 189.702 87.6893 189.912 88.3013 189.912C88.7213 189.912 89.0753 189.804 89.3633 189.588C89.6633 189.36 89.8613 189.024 89.9573 188.58H92.8013C92.7653 189.144 92.6333 189.654 92.4053 190.11C92.1773 190.554 91.8653 190.932 91.4693 191.244C91.0853 191.556 90.6233 191.802 90.0833 191.982C89.5553 192.15 88.9613 192.234 88.3013 192.234Z" fill="#1B1B1B"/>
<path d="M95.746 195.834C95.566 195.834 95.386 195.816 95.206 195.78V193.476C95.386 193.512 95.566 193.53 95.746 193.53C96.094 193.53 96.364 193.41 96.556 193.17C96.748 192.942 96.952 192.546 97.168 191.982L93.136 182.46H96.196L98.572 188.814L100.822 182.46H103.576L99.922 192C99.658 192.672 99.406 193.248 99.166 193.728C98.926 194.22 98.65 194.622 98.338 194.934C98.038 195.246 97.678 195.474 97.258 195.618C96.85 195.762 96.346 195.834 95.746 195.834Z" fill="#1B1B1B"/>
<path d="M104.649 182.46H108.015L110.283 187.194L112.551 182.46H115.809V192H113.181V186.15L111.129 190.2H109.329L107.277 186.15V192H104.649V182.46Z" fill="#1B1B1B"/>
<path d="M117.604 182.46H120.97L123.238 187.194L125.506 182.46H128.764V192H126.136V186.15L124.084 190.2H122.284L120.232 186.15V192H117.604V182.46Z" fill="#1B1B1B"/>
<path d="M132.449 195.834C132.269 195.834 132.089 195.816 131.909 195.78V193.476C132.089 193.512 132.269 193.53 132.449 193.53C132.797 193.53 133.067 193.41 133.259 193.17C133.451 192.942 133.655 192.546 133.871 191.982L129.839 182.46H132.899L135.275 188.814L137.525 182.46H140.279L136.625 192C136.361 192.672 136.109 193.248 135.869 193.728C135.629 194.22 135.353 194.622 135.041 194.934C134.741 195.246 134.381 195.474 133.961 195.618C133.553 195.762 133.049 195.834 132.449 195.834Z" fill="#1B1B1B"/>
<circle cx="207" cy="52" r="5" fill="#3078FE"/>
<circle cx="207" cy="52" r="3" fill="white"/>
<rect x="1.5" y="211.5" width="219" height="40" rx="5.5" fill="white" stroke="#D5D5D5"/>
<path d="M200.68 235.404H199.42V234.396H200.68V233.22H199.42V232.072H200.68V227.2H203.76C204.339 227.2 204.843 227.275 205.272 227.424C205.711 227.574 206.075 227.784 206.364 228.054C206.663 228.316 206.887 228.633 207.036 229.006C207.185 229.37 207.26 229.772 207.26 230.21C207.26 230.649 207.185 231.055 207.036 231.428C206.887 231.792 206.663 232.11 206.364 232.38C206.075 232.642 205.711 232.847 205.272 232.996C204.843 233.146 204.339 233.22 203.76 233.22H201.996V234.396H205.3V235.404H201.996V237H200.68V235.404ZM203.69 232.072C204.493 232.072 205.067 231.904 205.412 231.568C205.767 231.232 205.944 230.78 205.944 230.21C205.944 229.641 205.767 229.188 205.412 228.852C205.067 228.516 204.493 228.348 203.69 228.348H201.996V232.072H203.69Z" fill="#1B1B1B"/>
<path d="M15.77 235.853H18.108V228.643L15.77 230.309V228.881L18.136 227.201H19.452V235.853H21.37V237.001H15.77V235.853Z" fill="#DDDDDD"/>
<path d="M26.1349 237.141C25.6589 237.141 25.2063 237.061 24.7769 236.903C24.3569 236.744 23.9883 236.473 23.6709 236.091C23.3536 235.699 23.1016 235.181 22.9149 234.537C22.7283 233.883 22.6349 233.071 22.6349 232.101V231.821C22.6349 230.915 22.7283 230.159 22.9149 229.553C23.1016 228.946 23.3536 228.461 23.6709 228.097C23.9883 227.723 24.3569 227.457 24.7769 227.299C25.2063 227.14 25.6589 227.061 26.1349 227.061C26.6109 227.061 27.0589 227.14 27.4789 227.299C27.9083 227.457 28.2816 227.723 28.5989 228.097C28.9163 228.461 29.1683 228.946 29.3549 229.553C29.5416 230.159 29.6349 230.915 29.6349 231.821V232.101C29.6349 233.071 29.5416 233.883 29.3549 234.537C29.1683 235.181 28.9163 235.699 28.5989 236.091C28.2816 236.473 27.9083 236.744 27.4789 236.903C27.0589 237.061 26.6109 237.141 26.1349 237.141ZM26.1349 235.993C26.4243 235.993 26.6996 235.941 26.9609 235.839C27.2316 235.727 27.4649 235.531 27.6609 235.251C27.8663 234.961 28.0249 234.565 28.1369 234.061C28.2583 233.557 28.3189 232.903 28.3189 232.101V231.821C28.3189 231.093 28.2583 230.495 28.1369 230.029C28.0249 229.562 27.8663 229.193 27.6609 228.923C27.4649 228.652 27.2316 228.465 26.9609 228.363C26.6996 228.26 26.4243 228.209 26.1349 228.209C25.8363 228.209 25.5563 228.26 25.2949 228.363C25.0336 228.465 24.8003 228.652 24.5949 228.923C24.3989 229.193 24.2403 229.562 24.1189 230.029C24.0069 230.495 23.9509 231.093 23.9509 231.821V232.101C23.9509 232.903 24.0069 233.557 24.1189 234.061C24.2403 234.565 24.3989 234.961 24.5949 235.251C24.8003 235.531 25.0336 235.727 25.2949 235.839C25.5563 235.941 25.8363 235.993 26.1349 235.993Z" fill="#DDDDDD"/>
<path d="M34.8166 237.141C34.3406 237.141 33.8879 237.061 33.4586 236.903C33.0386 236.744 32.6699 236.473 32.3526 236.091C32.0352 235.699 31.7832 235.181 31.5966 234.537C31.4099 233.883 31.3166 233.071 31.3166 232.101V231.821C31.3166 230.915 31.4099 230.159 31.5966 229.553C31.7832 228.946 32.0352 228.461 32.3526 228.097C32.6699 227.723 33.0386 227.457 33.4586 227.299C33.8879 227.14 34.3406 227.061 34.8166 227.061C35.2926 227.061 35.7406 227.14 36.1606 227.299C36.5899 227.457 36.9632 227.723 37.2806 228.097C37.5979 228.461 37.8499 228.946 38.0366 229.553C38.2232 230.159 38.3166 230.915 38.3166 231.821V232.101C38.3166 233.071 38.2232 233.883 38.0366 234.537C37.8499 235.181 37.5979 235.699 37.2806 236.091C36.9632 236.473 36.5899 236.744 36.1606 236.903C35.7406 237.061 35.2926 237.141 34.8166 237.141ZM34.8166 235.993C35.1059 235.993 35.3812 235.941 35.6426 235.839C35.9132 235.727 36.1466 235.531 36.3426 235.251C36.5479 234.961 36.7066 234.565 36.8186 234.061C36.9399 233.557 37.0006 232.903 37.0006 232.101V231.821C37.0006 231.093 36.9399 230.495 36.8186 230.029C36.7066 229.562 36.5479 229.193 36.3426 228.923C36.1466 228.652 35.9132 228.465 35.6426 228.363C35.3812 228.26 35.1059 228.209 34.8166 228.209C34.5179 228.209 34.2379 228.26 33.9766 228.363C33.7152 228.465 33.4819 228.652 33.2766 228.923C33.0806 229.193 32.9219 229.562 32.8006 230.029C32.6886 230.495 32.6326 231.093 32.6326 231.821V232.101C32.6326 232.903 32.6886 233.557 32.8006 234.061C32.9219 234.565 33.0806 234.961 33.2766 235.251C33.4819 235.531 33.7152 235.727 33.9766 235.839C34.2379 235.941 34.5179 235.993 34.8166 235.993Z" fill="#DDDDDD"/>
<path d="M43.4982 237.141C43.0222 237.141 42.5696 237.061 42.1402 236.903C41.7202 236.744 41.3516 236.473 41.0342 236.091C40.7169 235.699 40.4649 235.181 40.2782 234.537C40.0916 233.883 39.9982 233.071 39.9982 232.101V231.821C39.9982 230.915 40.0916 230.159 40.2782 229.553C40.4649 228.946 40.7169 228.461 41.0342 228.097C41.3516 227.723 41.7202 227.457 42.1402 227.299C42.5696 227.14 43.0222 227.061 43.4982 227.061C43.9742 227.061 44.4222 227.14 44.8422 227.299C45.2716 227.457 45.6449 227.723 45.9622 228.097C46.2796 228.461 46.5316 228.946 46.7182 229.553C46.9049 230.159 46.9982 230.915 46.9982 231.821V232.101C46.9982 233.071 46.9049 233.883 46.7182 234.537C46.5316 235.181 46.2796 235.699 45.9622 236.091C45.6449 236.473 45.2716 236.744 44.8422 236.903C44.4222 237.061 43.9742 237.141 43.4982 237.141ZM43.4982 235.993C43.7876 235.993 44.0629 235.941 44.3242 235.839C44.5949 235.727 44.8282 235.531 45.0242 235.251C45.2296 234.961 45.3882 234.565 45.5002 234.061C45.6216 233.557 45.6822 232.903 45.6822 232.101V231.821C45.6822 231.093 45.6216 230.495 45.5002 230.029C45.3882 229.562 45.2296 229.193 45.0242 228.923C44.8282 228.652 44.5949 228.465 44.3242 228.363C44.0629 228.26 43.7876 228.209 43.4982 228.209C43.1996 228.209 42.9196 228.26 42.6582 228.363C42.3969 228.465 42.1636 228.652 41.9582 228.923C41.7622 229.193 41.6036 229.562 41.4822 230.029C41.3702 230.495 41.3142 231.093 41.3142 231.821V232.101C41.3142 232.903 41.3702 233.557 41.4822 234.061C41.6036 234.565 41.7622 234.961 41.9582 235.251C42.1636 235.531 42.3969 235.727 42.6582 235.839C42.9196 235.941 43.1996 235.993 43.4982 235.993Z" fill="#DDDDDD"/>
</svg>
