<svg width="242" height="159" viewBox="0 0 242 159" fill="none" xmlns="http://www.w3.org/2000/svg">
<path d="M3.98988 49.1405C3.45788 49.1405 2.98188 49.0705 2.56188 48.9305C2.15122 48.7812 1.80122 48.5805 1.51188 48.3285C1.22255 48.0765 1.00322 47.7825 0.853883 47.4465C0.70455 47.1012 0.629883 46.7325 0.629883 46.3405H1.94588C1.94588 46.8165 2.10922 47.2085 2.43588 47.5165C2.76255 47.8152 3.28055 47.9645 3.98988 47.9645C4.69922 47.9645 5.21722 47.8105 5.54388 47.5025C5.87055 47.1852 6.03388 46.7745 6.03388 46.2705C6.03388 45.7479 5.86588 45.3279 5.52988 45.0105C5.20322 44.6839 4.68988 44.5205 3.98988 44.5205H2.93988V43.4005H3.98988C4.66188 43.4005 5.14722 43.2605 5.44588 42.9805C5.74455 42.6912 5.89388 42.2945 5.89388 41.7905C5.89388 41.3052 5.74922 40.9272 5.45988 40.6565C5.17055 40.3765 4.68055 40.2365 3.98988 40.2365C3.32722 40.2365 2.84188 40.3812 2.53388 40.6705C2.23522 40.9505 2.08588 41.3005 2.08588 41.7205H0.769883C0.769883 41.3565 0.839883 41.0112 0.979883 40.6845C1.12922 40.3579 1.33922 40.0779 1.60988 39.8445C1.88988 39.6019 2.22588 39.4105 2.61788 39.2705C3.01922 39.1305 3.47655 39.0605 3.98988 39.0605C4.50322 39.0605 4.96055 39.1305 5.36188 39.2705C5.76322 39.4105 6.09922 39.5972 6.36988 39.8305C6.64988 40.0639 6.85988 40.3392 6.99988 40.6565C7.13988 40.9739 7.20988 41.3052 7.20988 41.6505C7.20988 42.2105 7.06055 42.6865 6.76188 43.0785C6.47255 43.4612 6.06188 43.7319 5.52988 43.8905C6.08988 44.0679 6.53322 44.3572 6.85988 44.7585C7.18655 45.1599 7.34988 45.7105 7.34988 46.4105C7.34988 46.7839 7.27522 47.1385 7.12588 47.4745C6.97655 47.8012 6.75722 48.0905 6.46788 48.3425C6.18788 48.5852 5.83788 48.7812 5.41788 48.9305C4.99788 49.0705 4.52188 49.1405 3.98988 49.1405Z" fill="#1B1B1B"/>
<path d="M12.5293 49.1405C12.0533 49.1405 11.6007 49.0612 11.1713 48.9025C10.7513 48.7439 10.3827 48.4732 10.0653 48.0905C9.748 47.6985 9.496 47.1805 9.30934 46.5365C9.12267 45.8832 9.02934 45.0712 9.02934 44.1005V43.8205C9.02934 42.9152 9.12267 42.1592 9.30934 41.5525C9.496 40.9459 9.748 40.4605 10.0653 40.0965C10.3827 39.7232 10.7513 39.4572 11.1713 39.2985C11.6007 39.1399 12.0533 39.0605 12.5293 39.0605C13.0053 39.0605 13.4533 39.1399 13.8733 39.2985C14.3027 39.4572 14.676 39.7232 14.9933 40.0965C15.3107 40.4605 15.5627 40.9459 15.7493 41.5525C15.936 42.1592 16.0293 42.9152 16.0293 43.8205V44.1005C16.0293 45.0712 15.936 45.8832 15.7493 46.5365C15.5627 47.1805 15.3107 47.6985 14.9933 48.0905C14.676 48.4732 14.3027 48.7439 13.8733 48.9025C13.4533 49.0612 13.0053 49.1405 12.5293 49.1405ZM12.5293 47.9925C12.8187 47.9925 13.094 47.9412 13.3553 47.8385C13.626 47.7265 13.8593 47.5305 14.0553 47.2505C14.2607 46.9612 14.4193 46.5645 14.5313 46.0605C14.6527 45.5565 14.7133 44.9032 14.7133 44.1005V43.8205C14.7133 43.0925 14.6527 42.4952 14.5313 42.0285C14.4193 41.5619 14.2607 41.1932 14.0553 40.9225C13.8593 40.6519 13.626 40.4652 13.3553 40.3625C13.094 40.2599 12.8187 40.2085 12.5293 40.2085C12.2307 40.2085 11.9507 40.2599 11.6893 40.3625C11.428 40.4652 11.1947 40.6519 10.9893 40.9225C10.7933 41.1932 10.6347 41.5619 10.5133 42.0285C10.4013 42.4952 10.3453 43.0925 10.3453 43.8205V44.1005C10.3453 44.9032 10.4013 45.5565 10.5133 46.0605C10.6347 46.5645 10.7933 46.9612 10.9893 47.2505C11.1947 47.5305 11.428 47.7265 11.6893 47.8385C11.9507 47.9412 12.2307 47.9925 12.5293 47.9925Z" fill="#1B1B1B"/>
<path d="M21.211 49.1405C20.735 49.1405 20.2823 49.0612 19.853 48.9025C19.433 48.7439 19.0643 48.4732 18.747 48.0905C18.4296 47.6985 18.1776 47.1805 17.991 46.5365C17.8043 45.8832 17.711 45.0712 17.711 44.1005V43.8205C17.711 42.9152 17.8043 42.1592 17.991 41.5525C18.1776 40.9459 18.4296 40.4605 18.747 40.0965C19.0643 39.7232 19.433 39.4572 19.853 39.2985C20.2823 39.1399 20.735 39.0605 21.211 39.0605C21.687 39.0605 22.135 39.1399 22.555 39.2985C22.9843 39.4572 23.3576 39.7232 23.675 40.0965C23.9923 40.4605 24.2443 40.9459 24.431 41.5525C24.6176 42.1592 24.711 42.9152 24.711 43.8205V44.1005C24.711 45.0712 24.6176 45.8832 24.431 46.5365C24.2443 47.1805 23.9923 47.6985 23.675 48.0905C23.3576 48.4732 22.9843 48.7439 22.555 48.9025C22.135 49.0612 21.687 49.1405 21.211 49.1405ZM21.211 47.9925C21.5003 47.9925 21.7756 47.9412 22.037 47.8385C22.3076 47.7265 22.541 47.5305 22.737 47.2505C22.9423 46.9612 23.101 46.5645 23.213 46.0605C23.3343 45.5565 23.395 44.9032 23.395 44.1005V43.8205C23.395 43.0925 23.3343 42.4952 23.213 42.0285C23.101 41.5619 22.9423 41.1932 22.737 40.9225C22.541 40.6519 22.3076 40.4652 22.037 40.3625C21.7756 40.2599 21.5003 40.2085 21.211 40.2085C20.9123 40.2085 20.6323 40.2599 20.371 40.3625C20.1096 40.4652 19.8763 40.6519 19.671 40.9225C19.475 41.1932 19.3163 41.5619 19.195 42.0285C19.083 42.4952 19.027 43.0925 19.027 43.8205V44.1005C19.027 44.9032 19.083 45.5565 19.195 46.0605C19.3163 46.5645 19.475 46.9612 19.671 47.2505C19.8763 47.5305 20.1096 47.7265 20.371 47.8385C20.6323 47.9412 20.9123 47.9925 21.211 47.9925Z" fill="#1B1B1B"/>
<path d="M30.5366 39.2005H31.7126L27.2886 51.8005H26.1126L30.5366 39.2005Z" fill="#1B1B1B"/>
<path d="M36.2692 49.1405C35.7372 49.1405 35.2612 49.0705 34.8412 48.9305C34.4305 48.7812 34.0805 48.5805 33.7912 48.3285C33.5018 48.0765 33.2825 47.7825 33.1332 47.4465C32.9838 47.1012 32.9092 46.7325 32.9092 46.3405H34.2252C34.2252 46.8165 34.3885 47.2085 34.7152 47.5165C35.0418 47.8152 35.5598 47.9645 36.2692 47.9645C36.9785 47.9645 37.4965 47.8105 37.8232 47.5025C38.1498 47.1852 38.3132 46.7745 38.3132 46.2705C38.3132 45.7479 38.1452 45.3279 37.8092 45.0105C37.4825 44.6839 36.9692 44.5205 36.2692 44.5205H35.2192V43.4005H36.2692C36.9412 43.4005 37.4265 43.2605 37.7252 42.9805C38.0238 42.6912 38.1732 42.2945 38.1732 41.7905C38.1732 41.3052 38.0285 40.9272 37.7392 40.6565C37.4498 40.3765 36.9598 40.2365 36.2692 40.2365C35.6065 40.2365 35.1212 40.3812 34.8132 40.6705C34.5145 40.9505 34.3652 41.3005 34.3652 41.7205H33.0492C33.0492 41.3565 33.1192 41.0112 33.2592 40.6845C33.4085 40.3579 33.6185 40.0779 33.8892 39.8445C34.1692 39.6019 34.5052 39.4105 34.8972 39.2705C35.2985 39.1305 35.7558 39.0605 36.2692 39.0605C36.7825 39.0605 37.2398 39.1305 37.6412 39.2705C38.0425 39.4105 38.3785 39.5972 38.6492 39.8305C38.9292 40.0639 39.1392 40.3392 39.2792 40.6565C39.4192 40.9739 39.4892 41.3052 39.4892 41.6505C39.4892 42.2105 39.3398 42.6865 39.0412 43.0785C38.7518 43.4612 38.3412 43.7319 37.8092 43.8905C38.3692 44.0679 38.8125 44.3572 39.1392 44.7585C39.4658 45.1599 39.6292 45.7105 39.6292 46.4105C39.6292 46.7839 39.5545 47.1385 39.4052 47.4745C39.2558 47.8012 39.0365 48.0905 38.7472 48.3425C38.4672 48.5852 38.1172 48.7812 37.6972 48.9305C37.2772 49.0705 36.8012 49.1405 36.2692 49.1405Z" fill="#1B1B1B"/>
<path d="M44.8786 49.1405C44.3373 49.1405 43.8473 49.0519 43.4086 48.8745C42.97 48.6972 42.592 48.4265 42.2746 48.0625C41.9666 47.6892 41.7286 47.2225 41.5606 46.6625C41.3926 46.1025 41.3086 45.4352 41.3086 44.6605V44.3805C41.3086 43.4192 41.4066 42.6025 41.6026 41.9305C41.7986 41.2492 42.0646 40.6985 42.4006 40.2785C42.7366 39.8492 43.1286 39.5412 43.5766 39.3545C44.0246 39.1585 44.5053 39.0605 45.0186 39.0605C45.7746 39.0605 46.4093 39.2425 46.9226 39.6065C47.4453 39.9612 47.7906 40.5025 47.9586 41.2305H46.6426C46.3813 40.5679 45.84 40.2365 45.0186 40.2365C44.664 40.2365 44.3373 40.2972 44.0386 40.4185C43.74 40.5399 43.4786 40.7405 43.2546 41.0205C43.04 41.3005 42.8673 41.6739 42.7366 42.1405C42.606 42.6072 42.5313 43.1905 42.5126 43.8905C42.6433 43.6665 42.802 43.4752 42.9886 43.3165C43.1753 43.1485 43.376 43.0179 43.5906 42.9245C43.8146 42.8219 44.0433 42.7472 44.2766 42.7005C44.51 42.6539 44.734 42.6305 44.9486 42.6305C45.9286 42.6305 46.708 42.9059 47.2866 43.4565C47.8746 43.9979 48.1686 44.7772 48.1686 45.7945V45.9345C48.1686 46.4012 48.08 46.8305 47.9026 47.2225C47.7346 47.6145 47.5013 47.9552 47.2026 48.2445C46.904 48.5245 46.554 48.7439 46.1526 48.9025C45.7513 49.0612 45.3266 49.1405 44.8786 49.1405ZM44.7666 47.9645C45.448 47.9645 45.966 47.7919 46.3206 47.4465C46.6753 47.1012 46.8526 46.6019 46.8526 45.9485V45.8085C46.8526 45.1645 46.6753 44.6699 46.3206 44.3245C45.966 43.9792 45.448 43.8065 44.7666 43.8065C44.0853 43.8065 43.5673 43.9792 43.2126 44.3245C42.858 44.6699 42.6806 45.1645 42.6806 45.8085V45.9485C42.6806 46.5925 42.858 47.0919 43.2126 47.4465C43.5673 47.7919 44.0853 47.9645 44.7666 47.9645Z" fill="#1B1B1B"/>
<path d="M53.0052 49.1405C52.4732 49.1405 52.0112 49.0705 51.6192 48.9305C51.2272 48.7812 50.8959 48.5899 50.6252 48.3565C50.3639 48.1139 50.1632 47.8432 50.0232 47.5445C49.8832 47.2459 49.8039 46.9379 49.7852 46.6205H51.1012C51.1479 46.9752 51.3345 47.2879 51.6612 47.5585C51.9972 47.8292 52.4452 47.9645 53.0052 47.9645C53.6399 47.9645 54.1392 47.7685 54.5032 47.3765C54.8672 46.9752 55.0492 46.4199 55.0492 45.7105C55.0492 45.3092 54.9885 44.9639 54.8672 44.6745C54.7552 44.3852 54.6012 44.1519 54.4052 43.9745C54.2185 43.7972 54.0039 43.6665 53.7612 43.5825C53.5185 43.4985 53.2665 43.4565 53.0052 43.4565C52.5012 43.4565 52.1045 43.5499 51.8152 43.7365C51.5352 43.9232 51.3205 44.1379 51.1712 44.3805H49.9952V39.2005H55.8052V40.3485H51.3112V43.0785C51.7965 42.5465 52.4312 42.2805 53.2152 42.2805C54.1859 42.2805 54.9512 42.5745 55.5112 43.1625C56.0805 43.7505 56.3652 44.5999 56.3652 45.7105C56.3652 46.2332 56.2812 46.7092 56.1132 47.1385C55.9545 47.5585 55.7259 47.9179 55.4272 48.2165C55.1379 48.5152 54.7832 48.7439 54.3632 48.9025C53.9525 49.0612 53.4999 49.1405 53.0052 49.1405Z" fill="#1B1B1B"/>
<path d="M4.25988 71.1205C3.78788 71.1205 3.33988 71.0405 2.91588 70.8805C2.49188 70.7125 2.11588 70.4565 1.78788 70.1125C1.45988 69.7605 1.19988 69.3165 1.00788 68.7805C0.815883 68.2445 0.719883 67.6045 0.719883 66.8605V66.6205C0.719883 65.9005 0.815883 65.2805 1.00788 64.7605C1.19988 64.2405 1.45988 63.8125 1.78788 63.4765C2.11588 63.1405 2.49188 62.8925 2.91588 62.7325C3.33988 62.5645 3.78788 62.4805 4.25988 62.4805C4.71588 62.4805 5.13188 62.5405 5.50788 62.6605C5.89188 62.7805 6.22788 62.9525 6.51588 63.1765C6.80388 63.4005 7.03588 63.6765 7.21188 64.0045C7.39588 64.3325 7.51188 64.7045 7.55988 65.1205H6.35988C6.24788 64.5765 6.01188 64.1685 5.65188 63.8965C5.29188 63.6245 4.82788 63.4885 4.25988 63.4885C3.96388 63.4885 3.67588 63.5445 3.39588 63.6565C3.11588 63.7685 2.86388 63.9485 2.63988 64.1965C2.42388 64.4365 2.24788 64.7565 2.11188 65.1565C1.98388 65.5565 1.91988 66.0445 1.91988 66.6205V66.8605C1.91988 67.4685 1.99188 67.9805 2.13588 68.3965C2.27988 68.8045 2.46388 69.1365 2.68788 69.3925C2.91188 69.6485 3.16388 69.8325 3.44388 69.9445C3.72388 70.0565 3.99588 70.1125 4.25988 70.1125C4.88388 70.1125 5.37188 69.9605 5.72388 69.6565C6.07588 69.3525 6.28788 68.9605 6.35988 68.4805H7.55988C7.49588 68.9445 7.36788 69.3445 7.17588 69.6805C6.98388 70.0085 6.73988 70.2805 6.44388 70.4965C6.15588 70.7125 5.82388 70.8725 5.44788 70.9765C5.07988 71.0725 4.68388 71.1205 4.25988 71.1205Z" fill="#1B1B1B"/>
<path d="M8.45285 71.1205C8.33285 71.1205 8.21285 71.1085 8.09285 71.0845V70.0285C8.13285 70.0365 8.19285 70.0405 8.27285 70.0405C8.44885 70.0405 8.60085 69.9845 8.72885 69.8725C8.86485 69.7605 8.97285 69.5645 9.05285 69.2845C9.13285 69.0045 9.19285 68.6245 9.23285 68.1445C9.27285 67.6645 9.29285 67.0565 9.29285 66.3205V64.6405H13.8529V71.0005H12.7969V65.5765H10.3489V66.5605C10.3489 67.4485 10.3089 68.1845 10.2289 68.7685C10.1489 69.3525 10.0289 69.8205 9.86885 70.1725C9.71685 70.5165 9.52085 70.7605 9.28085 70.9045C9.04085 71.0485 8.76485 71.1205 8.45285 71.1205Z" fill="#1B1B1B"/>
<path d="M18.4124 71.1205C18.0044 71.1205 17.6164 71.0565 17.2484 70.9285C16.8804 70.8005 16.5564 70.6045 16.2764 70.3405C15.9964 70.0685 15.7724 69.7285 15.6044 69.3205C15.4364 68.9125 15.3524 68.4325 15.3524 67.8805V67.6405C15.3524 67.1125 15.4324 66.6565 15.5924 66.2725C15.7524 65.8805 15.9644 65.5565 16.2284 65.3005C16.5004 65.0365 16.8124 64.8405 17.1644 64.7125C17.5244 64.5845 17.9004 64.5205 18.2924 64.5205C19.2284 64.5205 19.9524 64.7765 20.4644 65.2885C20.9764 65.8005 21.2324 66.5245 21.2324 67.4605V68.1325H16.4084C16.4084 68.5085 16.4684 68.8245 16.5884 69.0805C16.7084 69.3365 16.8644 69.5445 17.0564 69.7045C17.2484 69.8645 17.4604 69.9805 17.6924 70.0525C17.9324 70.1245 18.1724 70.1605 18.4124 70.1605C18.8924 70.1605 19.2604 70.0805 19.5164 69.9205C19.7804 69.7605 19.9684 69.5405 20.0804 69.2605H21.1124C21.0484 69.5645 20.9324 69.8325 20.7644 70.0645C20.6044 70.2965 20.4044 70.4925 20.1644 70.6525C19.9324 70.8045 19.6644 70.9205 19.3604 71.0005C19.0644 71.0805 18.7484 71.1205 18.4124 71.1205ZM18.3524 65.4805C18.1044 65.4805 17.8644 65.5165 17.6324 65.5885C17.4004 65.6525 17.1924 65.7605 17.0084 65.9125C16.8324 66.0565 16.6884 66.2405 16.5764 66.4645C16.4644 66.6885 16.4084 66.9565 16.4084 67.2685H20.2364C20.2284 66.9405 20.1724 66.6645 20.0684 66.4405C19.9724 66.2085 19.8404 66.0245 19.6724 65.8885C19.5044 65.7445 19.3044 65.6405 19.0724 65.5765C18.8484 65.5125 18.6084 65.4805 18.3524 65.4805Z" fill="#1B1B1B"/>
<path d="M21.8961 70.0645H22.6761C22.7641 69.9445 22.8441 69.7605 22.9161 69.5125C22.9881 69.2645 23.0521 68.9725 23.1081 68.6365C23.1641 68.3005 23.2041 67.9365 23.2281 67.5445C23.2601 67.1445 23.2761 66.7365 23.2761 66.3205V64.6405H27.7161V70.0645H28.6161V72.5005H27.6081V71.0005H22.9041V72.5005H21.8961V70.0645ZM26.6601 70.0645V65.5765H24.3081V66.5605C24.3081 66.8965 24.2961 67.2325 24.2721 67.5685C24.2481 67.8965 24.2121 68.2125 24.1641 68.5165C24.1161 68.8125 24.0561 69.0965 23.9841 69.3685C23.9201 69.6325 23.8441 69.8645 23.7561 70.0645H26.6601Z" fill="#1B1B1B"/>
<path d="M30.6046 73.5205C30.4846 73.5205 30.3646 73.5086 30.2446 73.4846V72.5245C30.3646 72.5485 30.4846 72.5605 30.6046 72.5605C30.7246 72.5605 30.8286 72.5405 30.9166 72.5005C31.0046 72.4605 31.0886 72.3845 31.1686 72.2725C31.2486 72.1605 31.3326 72.0005 31.4206 71.7925C31.5166 71.5925 31.6246 71.3285 31.7446 71.0005L29.0446 64.6405H30.2206L32.2846 69.8005L34.1566 64.6405H35.2846L32.8846 71.0005C32.7166 71.4485 32.5566 71.8325 32.4046 72.1525C32.2526 72.4725 32.0886 72.7325 31.9126 72.9325C31.7446 73.1405 31.5566 73.2885 31.3486 73.3765C31.1406 73.4725 30.8926 73.5205 30.6046 73.5205Z" fill="#1B1B1B"/>
<path d="M36.4794 64.6405H37.5354V67.2925H38.4354C38.4674 66.8365 38.5674 66.4365 38.7354 66.0925C38.9034 65.7405 39.1154 65.4485 39.3714 65.2165C39.6354 64.9845 39.9354 64.8125 40.2714 64.7005C40.6074 64.5805 40.9634 64.5205 41.3394 64.5205C41.7474 64.5205 42.1274 64.5885 42.4794 64.7245C42.8394 64.8525 43.1514 65.0485 43.4154 65.3125C43.6794 65.5685 43.8874 65.8925 44.0394 66.2845C44.1994 66.6765 44.2794 67.1285 44.2794 67.6405V67.8805C44.2794 68.4245 44.1994 68.9005 44.0394 69.3085C43.8874 69.7165 43.6794 70.0565 43.4154 70.3285C43.1514 70.5925 42.8394 70.7925 42.4794 70.9285C42.1274 71.0565 41.7474 71.1205 41.3394 71.1205C40.9634 71.1205 40.6034 71.0645 40.2594 70.9525C39.9234 70.8325 39.6234 70.6525 39.3594 70.4125C39.1034 70.1725 38.8914 69.8725 38.7234 69.5125C38.5634 69.1445 38.4674 68.7165 38.4354 68.2285H37.5354V71.0005H36.4794V64.6405ZM41.3394 70.1605C41.5794 70.1605 41.8114 70.1205 42.0354 70.0405C42.2594 69.9525 42.4554 69.8205 42.6234 69.6445C42.7994 69.4605 42.9394 69.2245 43.0434 68.9365C43.1474 68.6485 43.1994 68.2965 43.1994 67.8805V67.6405C43.1994 67.2565 43.1474 66.9285 43.0434 66.6565C42.9394 66.3845 42.7994 66.1605 42.6234 65.9845C42.4554 65.8085 42.2594 65.6805 42.0354 65.6005C41.8114 65.5205 41.5794 65.4805 41.3394 65.4805C41.0994 65.4805 40.8674 65.5205 40.6434 65.6005C40.4194 65.6805 40.2194 65.8085 40.0434 65.9845C39.8754 66.1605 39.7394 66.3845 39.6354 66.6565C39.5314 66.9285 39.4794 67.2565 39.4794 67.6405V67.8805C39.4794 68.2965 39.5314 68.6485 39.6354 68.9365C39.7394 69.2245 39.8754 69.4605 40.0434 69.6445C40.2194 69.8205 40.4194 69.9525 40.6434 70.0405C40.8674 70.1205 41.0994 70.1605 41.3394 70.1605Z" fill="#1B1B1B"/>
<path d="M53.5961 71.0005H45.7841V64.6405H46.8401V70.0645H49.1561V64.6405H50.2121V70.0645H52.5281V64.6405H53.5841V70.0645H54.6041V72.5005H53.5961V71.0005Z" fill="#1B1B1B"/>
<path d="M58.5022 71.1205C58.0942 71.1205 57.7062 71.0565 57.3382 70.9285C56.9702 70.8005 56.6462 70.6045 56.3662 70.3405C56.0862 70.0685 55.8622 69.7285 55.6942 69.3205C55.5262 68.9125 55.4422 68.4325 55.4422 67.8805V67.6405C55.4422 67.1125 55.5222 66.6565 55.6822 66.2725C55.8422 65.8805 56.0542 65.5565 56.3182 65.3005C56.5902 65.0365 56.9022 64.8405 57.2542 64.7125C57.6142 64.5845 57.9902 64.5205 58.3822 64.5205C59.3182 64.5205 60.0422 64.7765 60.5542 65.2885C61.0662 65.8005 61.3222 66.5245 61.3222 67.4605V68.1325H56.4982C56.4982 68.5085 56.5582 68.8245 56.6782 69.0805C56.7982 69.3365 56.9542 69.5445 57.1462 69.7045C57.3382 69.8645 57.5502 69.9805 57.7822 70.0525C58.0222 70.1245 58.2622 70.1605 58.5022 70.1605C58.9822 70.1605 59.3502 70.0805 59.6062 69.9205C59.8702 69.7605 60.0582 69.5405 60.1702 69.2605H61.2022C61.1382 69.5645 61.0222 69.8325 60.8542 70.0645C60.6942 70.2965 60.4942 70.4925 60.2542 70.6525C60.0222 70.8045 59.7542 70.9205 59.4502 71.0005C59.1542 71.0805 58.8382 71.1205 58.5022 71.1205ZM58.4422 65.4805C58.1942 65.4805 57.9542 65.5165 57.7222 65.5885C57.4902 65.6525 57.2822 65.7605 57.0982 65.9125C56.9222 66.0565 56.7782 66.2405 56.6662 66.4645C56.5542 66.6885 56.4982 66.9565 56.4982 67.2685H60.3262C60.3182 66.9405 60.2622 66.6645 60.1582 66.4405C60.0622 66.2085 59.9302 66.0245 59.7622 65.8885C59.5942 65.7445 59.3942 65.6405 59.1622 65.5765C58.9382 65.5125 58.6982 65.4805 58.4422 65.4805Z" fill="#1B1B1B"/>
<path d="M65.4632 71.1205C65.0552 71.1205 64.6672 71.0565 64.2992 70.9285C63.9312 70.8005 63.6072 70.6045 63.3272 70.3405C63.0472 70.0685 62.8232 69.7285 62.6552 69.3205C62.4872 68.9125 62.4032 68.4325 62.4032 67.8805V67.6405C62.4032 67.1125 62.4832 66.6565 62.6432 66.2725C62.8032 65.8805 63.0152 65.5565 63.2792 65.3005C63.5512 65.0365 63.8632 64.8405 64.2152 64.7125C64.5752 64.5845 64.9512 64.5205 65.3432 64.5205C66.2792 64.5205 67.0032 64.7765 67.5152 65.2885C68.0272 65.8005 68.2832 66.5245 68.2832 67.4605V68.1325H63.4592C63.4592 68.5085 63.5192 68.8245 63.6392 69.0805C63.7592 69.3365 63.9152 69.5445 64.1072 69.7045C64.2992 69.8645 64.5112 69.9805 64.7432 70.0525C64.9832 70.1245 65.2232 70.1605 65.4632 70.1605C65.9432 70.1605 66.3112 70.0805 66.5672 69.9205C66.8312 69.7605 67.0192 69.5405 67.1312 69.2605H68.1632C68.0992 69.5645 67.9832 69.8325 67.8152 70.0645C67.6552 70.2965 67.4552 70.4925 67.2152 70.6525C66.9832 70.8045 66.7152 70.9205 66.4112 71.0005C66.1152 71.0805 65.7992 71.1205 65.4632 71.1205ZM65.4032 65.4805C65.1552 65.4805 64.9152 65.5165 64.6832 65.5885C64.4512 65.6525 64.2432 65.7605 64.0592 65.9125C63.8832 66.0565 63.7392 66.2405 63.6272 66.4645C63.5152 66.6885 63.4592 66.9565 63.4592 67.2685H67.2872C67.2792 66.9405 67.2232 66.6645 67.1192 66.4405C67.0232 66.2085 66.8912 66.0245 66.7232 65.8885C66.5552 65.7445 66.3552 65.6405 66.1232 65.5765C65.8992 65.5125 65.6592 65.4805 65.4032 65.4805Z" fill="#1B1B1B"/>
<path d="M76.4681 68.4685C76.2841 68.5805 76.0601 68.6805 75.7961 68.7685C75.5401 68.8565 75.2161 68.9005 74.8241 68.9005C74.4561 68.9005 74.1241 68.8605 73.8281 68.7805C73.5401 68.7005 73.2961 68.5725 73.0961 68.3965C72.8961 68.2205 72.7441 67.9925 72.6401 67.7125C72.5361 67.4325 72.4841 67.0885 72.4841 66.6805V64.6405H73.5401V66.5005C73.5401 66.7725 73.5641 67.0005 73.6121 67.1845C73.6681 67.3685 73.7561 67.5165 73.8761 67.6285C73.9961 67.7405 74.1481 67.8205 74.3321 67.8685C74.5161 67.9165 74.7401 67.9405 75.0041 67.9405C75.3641 67.9405 75.6721 67.9045 75.9281 67.8325C76.1841 67.7605 76.3641 67.6845 76.4681 67.6045V64.6405H77.5241V71.0005H76.4681V68.4685Z" fill="#1B1B1B"/>
<path d="M82.0804 71.1205C81.6724 71.1205 81.2844 71.0565 80.9164 70.9285C80.5484 70.8005 80.2244 70.6045 79.9444 70.3405C79.6644 70.0685 79.4404 69.7285 79.2724 69.3205C79.1044 68.9125 79.0204 68.4325 79.0204 67.8805V67.6405C79.0204 67.1125 79.1004 66.6565 79.2604 66.2725C79.4204 65.8805 79.6324 65.5565 79.8964 65.3005C80.1684 65.0365 80.4804 64.8405 80.8324 64.7125C81.1924 64.5845 81.5684 64.5205 81.9604 64.5205C82.8964 64.5205 83.6204 64.7765 84.1324 65.2885C84.6444 65.8005 84.9004 66.5245 84.9004 67.4605V68.1325H80.0764C80.0764 68.5085 80.1364 68.8245 80.2564 69.0805C80.3764 69.3365 80.5324 69.5445 80.7244 69.7045C80.9164 69.8645 81.1284 69.9805 81.3604 70.0525C81.6004 70.1245 81.8404 70.1605 82.0804 70.1605C82.5604 70.1605 82.9284 70.0805 83.1844 69.9205C83.4484 69.7605 83.6364 69.5405 83.7484 69.2605H84.7804C84.7164 69.5645 84.6004 69.8325 84.4324 70.0645C84.2724 70.2965 84.0724 70.4925 83.8324 70.6525C83.6004 70.8045 83.3324 70.9205 83.0284 71.0005C82.7324 71.0805 82.4164 71.1205 82.0804 71.1205ZM82.0204 65.4805C81.7724 65.4805 81.5324 65.5165 81.3004 65.5885C81.0684 65.6525 80.8604 65.7605 80.6764 65.9125C80.5004 66.0565 80.3564 66.2405 80.2444 66.4645C80.1324 66.6885 80.0764 66.9565 80.0764 67.2685H83.9044C83.8964 66.9405 83.8404 66.6645 83.7364 66.4405C83.6404 66.2085 83.5084 66.0245 83.3404 65.8885C83.1724 65.7445 82.9724 65.6405 82.7404 65.5765C82.5164 65.5125 82.2764 65.4805 82.0204 65.4805Z" fill="#1B1B1B"/>
<path d="M86.4013 64.6405H87.3853V65.8405C87.6013 65.4165 87.9013 65.0925 88.2853 64.8685C88.6773 64.6365 89.1293 64.5205 89.6413 64.5205C90.4413 64.5205 91.0813 64.7845 91.5613 65.3125C92.0413 65.8325 92.2813 66.6085 92.2813 67.6405V67.8805C92.2813 68.4245 92.2173 68.9005 92.0893 69.3085C91.9613 69.7085 91.7813 70.0445 91.5493 70.3165C91.3173 70.5805 91.0373 70.7805 90.7093 70.9165C90.3893 71.0525 90.0333 71.1205 89.6413 71.1205C89.0973 71.1205 88.6413 71.0005 88.2733 70.7605C87.9133 70.5205 87.6413 70.2205 87.4573 69.8605V73.4006H86.4013V64.6405ZM89.4013 70.1845C89.6573 70.1845 89.8973 70.1365 90.1213 70.0405C90.3453 69.9365 90.5373 69.7885 90.6973 69.5965C90.8653 69.4045 90.9933 69.1645 91.0813 68.8765C91.1773 68.5885 91.2253 68.2565 91.2253 67.8805V67.6405C91.2253 67.2965 91.1773 66.9885 91.0813 66.7165C90.9933 66.4445 90.8653 66.2165 90.6973 66.0325C90.5373 65.8405 90.3453 65.6965 90.1213 65.6005C89.8973 65.5045 89.6573 65.4565 89.4013 65.4565C89.1133 65.4565 88.8493 65.5045 88.6093 65.6005C88.3693 65.6885 88.1653 65.8165 87.9973 65.9845C87.8293 66.1445 87.6973 66.3365 87.6013 66.5605C87.5053 66.7845 87.4573 67.0245 87.4573 67.2805V68.2405C87.4573 68.5285 87.5053 68.7925 87.6013 69.0325C87.6973 69.2725 87.8293 69.4765 87.9973 69.6445C88.1653 69.8125 88.3693 69.9445 88.6093 70.0405C88.8493 70.1365 89.1133 70.1845 89.4013 70.1845Z" fill="#1B1B1B"/>
<path d="M96.4241 71.1205C96.0161 71.1205 95.6281 71.0565 95.2601 70.9285C94.8921 70.8005 94.5681 70.6045 94.2881 70.3405C94.0081 70.0685 93.7841 69.7285 93.6161 69.3205C93.4481 68.9125 93.3641 68.4325 93.3641 67.8805V67.6405C93.3641 67.1125 93.4441 66.6565 93.6041 66.2725C93.7641 65.8805 93.9761 65.5565 94.2401 65.3005C94.5121 65.0365 94.8241 64.8405 95.1761 64.7125C95.5361 64.5845 95.9121 64.5205 96.3041 64.5205C97.2401 64.5205 97.9641 64.7765 98.4761 65.2885C98.9881 65.8005 99.2441 66.5245 99.2441 67.4605V68.1325H94.4201C94.4201 68.5085 94.4801 68.8245 94.6001 69.0805C94.7201 69.3365 94.8761 69.5445 95.0681 69.7045C95.2601 69.8645 95.4721 69.9805 95.7041 70.0525C95.9441 70.1245 96.1841 70.1605 96.4241 70.1605C96.9041 70.1605 97.2721 70.0805 97.5281 69.9205C97.7921 69.7605 97.9801 69.5405 98.0921 69.2605H99.1241C99.0601 69.5645 98.9441 69.8325 98.7761 70.0645C98.6161 70.2965 98.4161 70.4925 98.1761 70.6525C97.9441 70.8045 97.6761 70.9205 97.3721 71.0005C97.0761 71.0805 96.7601 71.1205 96.4241 71.1205ZM96.3641 65.4805C96.1161 65.4805 95.8761 65.5165 95.6441 65.5885C95.4121 65.6525 95.2041 65.7605 95.0201 65.9125C94.8441 66.0565 94.7001 66.2405 94.5881 66.4645C94.4761 66.6885 94.4201 66.9565 94.4201 67.2685H98.2481C98.2401 66.9405 98.1841 66.6645 98.0801 66.4405C97.9841 66.2085 97.8521 66.0245 97.6841 65.8885C97.5161 65.7445 97.3161 65.6405 97.0841 65.5765C96.8601 65.5125 96.6201 65.4805 96.3641 65.4805Z" fill="#1B1B1B"/>
<path d="M102.905 71.1205C102.105 71.1205 101.477 70.9525 101.021 70.6165C100.565 70.2805 100.313 69.8085 100.265 69.2005H101.321C101.377 69.5125 101.541 69.7525 101.813 69.9205C102.093 70.0805 102.457 70.1605 102.905 70.1605C103.457 70.1605 103.857 70.0685 104.105 69.8845C104.361 69.6925 104.489 69.4645 104.489 69.2005C104.489 68.8885 104.385 68.6445 104.177 68.4685C103.969 68.2845 103.609 68.1925 103.097 68.1925H102.005V67.3285H103.025C103.465 67.3285 103.777 67.2445 103.961 67.0765C104.153 66.9085 104.249 66.6725 104.249 66.3685C104.249 66.1285 104.137 65.9205 103.913 65.7445C103.689 65.5685 103.353 65.4805 102.905 65.4805C102.417 65.4805 102.061 65.5605 101.837 65.7205C101.621 65.8725 101.489 66.0925 101.441 66.3805H100.385C100.409 66.1165 100.481 65.8725 100.601 65.6485C100.729 65.4165 100.901 65.2165 101.117 65.0485C101.333 64.8805 101.589 64.7525 101.885 64.6645C102.189 64.5685 102.529 64.5205 102.905 64.5205C103.313 64.5205 103.665 64.5685 103.961 64.6645C104.265 64.7525 104.517 64.8805 104.717 65.0485C104.917 65.2085 105.065 65.4005 105.161 65.6245C105.257 65.8485 105.305 66.0965 105.305 66.3685C105.305 66.6725 105.229 66.9405 105.077 67.1725C104.925 67.3965 104.681 67.5725 104.345 67.7005C104.793 67.8205 105.105 68.0125 105.281 68.2765C105.457 68.5405 105.545 68.8485 105.545 69.2005C105.545 69.4645 105.489 69.7125 105.377 69.9445C105.265 70.1765 105.097 70.3805 104.873 70.5565C104.657 70.7245 104.381 70.8605 104.045 70.9645C103.717 71.0685 103.337 71.1205 102.905 71.1205Z" fill="#1B1B1B"/>
<path d="M107.89 71.1205C107.658 71.1205 107.458 71.0405 107.29 70.8805C107.13 70.7125 107.05 70.5125 107.05 70.2805C107.05 70.0405 107.13 69.8405 107.29 69.6805C107.458 69.5205 107.658 69.4405 107.89 69.4405C108.122 69.4405 108.318 69.5205 108.478 69.6805C108.646 69.8405 108.73 70.0405 108.73 70.2805C108.73 70.5125 108.646 70.7125 108.478 70.8805C108.318 71.0405 108.122 71.1205 107.89 71.1205ZM107.89 66.2005C107.658 66.2005 107.458 66.1205 107.29 65.9605C107.13 65.7925 107.05 65.5925 107.05 65.3605C107.05 65.1205 107.13 64.9205 107.29 64.7605C107.458 64.6005 107.658 64.5205 107.89 64.5205C108.122 64.5205 108.318 64.6005 108.478 64.7605C108.646 64.9205 108.73 65.1205 108.73 65.3605C108.73 65.5925 108.646 65.7925 108.478 65.9605C108.318 66.1205 108.122 66.2005 107.89 66.2005Z" fill="#1B1B1B"/>
<path d="M113.347 70.0165H115.351V63.8365L113.347 65.2645V64.0405L115.375 62.6005H116.503V70.0165H118.147V71.0005H113.347V70.0165Z" fill="#1B1B1B"/>
<path d="M119.172 70.0165H121.176V63.8365L119.172 65.2645V64.0405L121.2 62.6005H122.328V70.0165H123.972V71.0005H119.172V70.0165Z" fill="#1B1B1B"/>
<path d="M126.136 71.1205C125.904 71.1205 125.704 71.0405 125.536 70.8805C125.376 70.7125 125.296 70.5125 125.296 70.2805C125.296 70.0405 125.376 69.8405 125.536 69.6805C125.704 69.5205 125.904 69.4405 126.136 69.4405C126.368 69.4405 126.564 69.5205 126.724 69.6805C126.892 69.8405 126.976 70.0405 126.976 70.2805C126.976 70.5125 126.892 70.7125 126.724 70.8805C126.564 71.0405 126.368 71.1205 126.136 71.1205ZM126.136 66.2005C125.904 66.2005 125.704 66.1205 125.536 65.9605C125.376 65.7925 125.296 65.5925 125.296 65.3605C125.296 65.1205 125.376 64.9205 125.536 64.7605C125.704 64.6005 125.904 64.5205 126.136 64.5205C126.368 64.5205 126.564 64.6005 126.724 64.7605C126.892 64.9205 126.976 65.1205 126.976 65.3605C126.976 65.5925 126.892 65.7925 126.724 65.9605C126.564 66.1205 126.368 66.2005 126.136 66.2005Z" fill="#1B1B1B"/>
<path d="M128.593 70.0165H130.597V63.8365L128.593 65.2645V64.0405L130.621 62.6005H131.749V70.0165H133.393V71.0005H128.593V70.0165Z" fill="#1B1B1B"/>
<path d="M134.418 70.0165H136.422V63.8365L134.418 65.2645V64.0405L136.446 62.6005H137.574V70.0165H139.218V71.0005H134.418V70.0165Z" fill="#1B1B1B"/>
<path d="M181.77 47.8525H184.108V40.6425L181.77 42.3085V40.8805L184.136 39.2005H185.452V47.8525H187.37V49.0005H181.77V47.8525Z" fill="#1B1B1B"/>
<path d="M188.355 47.9225L192.275 44.5205C192.574 44.2685 192.816 44.0399 193.003 43.8345C193.199 43.6292 193.353 43.4379 193.465 43.2605C193.577 43.0739 193.652 42.8919 193.689 42.7145C193.736 42.5372 193.759 42.3459 193.759 42.1405C193.759 41.5899 193.596 41.1372 193.269 40.7825C192.942 40.4185 192.494 40.2365 191.925 40.2365C191.244 40.2365 190.721 40.4232 190.357 40.7965C189.993 41.1605 189.811 41.6785 189.811 42.3505H188.495C188.495 41.8745 188.574 41.4359 188.733 41.0345C188.901 40.6239 189.134 40.2739 189.433 39.9845C189.741 39.6952 190.105 39.4712 190.525 39.3125C190.945 39.1445 191.412 39.0605 191.925 39.0605C192.42 39.0605 192.863 39.1399 193.255 39.2985C193.647 39.4479 193.978 39.6625 194.249 39.9425C194.52 40.2132 194.725 40.5352 194.865 40.9085C195.005 41.2819 195.075 41.6925 195.075 42.1405C195.075 42.4765 195.024 42.7892 194.921 43.0785C194.818 43.3679 194.674 43.6432 194.487 43.9045C194.31 44.1659 194.09 44.4225 193.829 44.6745C193.577 44.9172 193.297 45.1692 192.989 45.4305L190.063 47.8525H195.215V49.0005H188.355V47.9225Z" fill="#1B1B1B"/>
<path d="M201.18 46.6345H196.196V45.6265L201.04 39.2005H202.496V45.4865H203.756V46.6345H202.496V49.0005H201.18V46.6345ZM201.18 45.4865V40.7405L197.596 45.4865H201.18Z" fill="#1B1B1B"/>
<path d="M209.725 46.6345H204.741V45.6265L209.585 39.2005H211.041V45.4865H212.301V46.6345H211.041V49.0005H209.725V46.6345ZM209.725 45.4865V40.7405L206.141 45.4865H209.725Z" fill="#1B1B1B"/>
<path d="M218.27 46.6345H213.286V45.6265L218.13 39.2005H219.586V45.4865H220.846V46.6345H219.586V49.0005H218.27V46.6345ZM218.27 45.4865V40.7405L214.686 45.4865H218.27Z" fill="#1B1B1B"/>
<path d="M223.231 47.4045H221.971V46.3965H223.231V45.2205H221.971V44.0725H223.231V39.2005H226.311C226.889 39.2005 227.393 39.2752 227.823 39.4245C228.261 39.5739 228.625 39.7839 228.915 40.0545C229.213 40.3159 229.437 40.6332 229.587 41.0065C229.736 41.3705 229.811 41.7719 229.811 42.2105C229.811 42.6492 229.736 43.0552 229.587 43.4285C229.437 43.7925 229.213 44.1099 228.915 44.3805C228.625 44.6419 228.261 44.8472 227.823 44.9965C227.393 45.1459 226.889 45.2205 226.311 45.2205H224.547V46.3965H227.851V47.4045H224.547V49.0005H223.231V47.4045ZM226.241 44.0725C227.043 44.0725 227.617 43.9045 227.963 43.5685C228.317 43.2325 228.495 42.7799 228.495 42.2105C228.495 41.6412 228.317 41.1885 227.963 40.8525C227.617 40.5165 227.043 40.3485 226.241 40.3485H224.547V44.0725H226.241Z" fill="#1B1B1B"/>
<path d="M0.461426 1.2002H1.77744V5.3862H6.98544V1.2002H8.30142V11.0002H6.98544V6.5342H1.77744V11.0002H0.461426V1.2002Z" fill="#7C8087"/>
<path d="M12.9322 11.1402C12.5215 11.1402 12.1575 11.0842 11.8401 10.9722C11.5321 10.8509 11.2708 10.6875 11.0562 10.4822C10.8415 10.2769 10.6782 10.0342 10.5662 9.7542C10.4542 9.4742 10.3982 9.1662 10.3982 8.8302C10.3982 8.09286 10.6128 7.56086 11.0421 7.2342C11.4808 6.90753 12.1062 6.7442 12.9182 6.7442H15.3261V6.2402C15.3261 5.60553 15.1815 5.16686 14.8922 4.9242C14.6122 4.68153 14.1875 4.5602 13.6182 4.5602C13.0862 4.5602 12.6988 4.66286 12.4561 4.8682C12.2135 5.0642 12.0781 5.2882 12.0501 5.5402H10.8181C10.8368 5.24153 10.9162 4.9662 11.0562 4.7142C11.2055 4.45286 11.4015 4.22886 11.6442 4.0422C11.8962 3.85553 12.1948 3.71086 12.5402 3.6082C12.8855 3.4962 13.2681 3.4402 13.6881 3.4402C14.5655 3.4402 15.2608 3.6502 15.7741 4.0702C16.2968 4.48086 16.5581 5.15753 16.5581 6.1002V9.1102C16.5581 9.5022 16.5581 9.84753 16.5581 10.1462C16.5675 10.4355 16.5908 10.7202 16.6281 11.0002H15.5501C15.5221 10.7855 15.5035 10.5849 15.4941 10.3982C15.4848 10.2022 15.4802 9.98286 15.4802 9.7402C15.2842 10.1322 14.9668 10.4635 14.5281 10.7342C14.0895 11.0049 13.5575 11.1402 12.9322 11.1402ZM13.1982 10.0202C13.4875 10.0202 13.7582 9.98286 14.0102 9.9082C14.2715 9.8242 14.5001 9.70753 14.6961 9.5582C14.8921 9.39953 15.0461 9.2082 15.1581 8.9842C15.2701 8.7602 15.3261 8.49886 15.3261 8.2002V7.6962H13.1281C12.6708 7.6962 12.3115 7.78953 12.0501 7.9762C11.7888 8.15353 11.6581 8.4382 11.6581 8.8302C11.6581 9.17553 11.7795 9.4602 12.0222 9.6842C12.2742 9.9082 12.6662 10.0202 13.1982 10.0202Z" fill="#7C8087"/>
<path d="M23.0322 8.0462C22.8175 8.17686 22.5562 8.29353 22.2482 8.3962C21.9495 8.49886 21.5715 8.5502 21.1142 8.5502C20.6848 8.5502 20.2975 8.50353 19.9522 8.4102C19.6162 8.31686 19.3315 8.16753 19.0982 7.9622C18.8648 7.75686 18.6875 7.49086 18.5662 7.1642C18.4448 6.83753 18.3842 6.4362 18.3842 5.9602V3.5802H19.6162V5.7502C19.6162 6.06753 19.6442 6.33353 19.7002 6.5482C19.7655 6.76286 19.8682 6.93553 20.0082 7.0662C20.1482 7.19686 20.3255 7.2902 20.5402 7.3462C20.7548 7.4022 21.0162 7.4302 21.3242 7.4302C21.7442 7.4302 22.1035 7.3882 22.4022 7.3042C22.7008 7.2202 22.9108 7.13153 23.0322 7.0382V3.5802H24.2642V11.0002H23.0322V8.0462Z" fill="#7C8087"/>
<path d="M26.4998 3.5802H27.7318V9.1802L31.5678 3.5802H32.7998V11.0002H31.5678V5.4002L27.7318 11.0002H26.4998V3.5802Z" fill="#7C8087"/>
<path d="M37.9147 11.1402C37.4387 11.1402 36.9954 11.0655 36.5847 10.9162C36.1741 10.7575 35.8194 10.5242 35.5207 10.2162C35.2221 9.89886 34.984 9.5022 34.8067 9.0262C34.6387 8.5502 34.5547 7.99486 34.5547 7.3602V7.0802C34.5547 6.48286 34.6481 5.95553 34.8347 5.4982C35.0214 5.04086 35.2687 4.66286 35.5767 4.3642C35.8847 4.0562 36.2394 3.82753 36.6407 3.6782C37.0514 3.51953 37.476 3.4402 37.9147 3.4402C38.3534 3.4402 38.7454 3.50086 39.0907 3.6222C39.4454 3.74353 39.7487 3.91153 40.0007 4.1262C40.262 4.34086 40.472 4.59286 40.6307 4.8822C40.7987 5.17153 40.9201 5.4842 40.9947 5.8202H39.7347C39.66 5.64286 39.5714 5.47953 39.4687 5.3302C39.3754 5.17153 39.254 5.0362 39.1047 4.9242C38.9647 4.8122 38.7967 4.72353 38.6007 4.6582C38.4047 4.59286 38.176 4.5602 37.9147 4.5602C37.644 4.5602 37.3827 4.61153 37.1307 4.7142C36.8787 4.80753 36.6547 4.95686 36.4587 5.1622C36.2627 5.3582 36.1041 5.61486 35.9827 5.9322C35.8707 6.24953 35.8147 6.6322 35.8147 7.0802V7.3602C35.8147 7.8362 35.8707 8.24686 35.9827 8.5922C36.1041 8.9282 36.2627 9.20353 36.4587 9.4182C36.6547 9.62353 36.8787 9.77753 37.1307 9.8802C37.3827 9.97353 37.644 10.0202 37.9147 10.0202C38.372 10.0202 38.7547 9.9082 39.0627 9.6842C39.38 9.4602 39.604 9.1522 39.7347 8.7602H40.9947C40.8174 9.49753 40.4534 10.0809 39.9027 10.5102C39.352 10.9302 38.6894 11.1402 37.9147 11.1402Z" fill="#7C8087"/>
<path d="M42.3236 11.1402C42.1836 11.1402 42.0436 11.1262 41.9036 11.0982V9.8662C41.9503 9.87553 42.0203 9.8802 42.1136 9.8802C42.319 9.8802 42.4963 9.81486 42.6456 9.6842C42.8043 9.55353 42.9303 9.32486 43.0236 8.9982C43.117 8.67153 43.1869 8.2282 43.2336 7.6682C43.2803 7.1082 43.3036 6.39886 43.3036 5.5402V3.5802H48.6236V11.0002H47.3916V4.6722H44.5356V5.8202C44.5356 6.8562 44.489 7.71486 44.3956 8.3962C44.3023 9.07753 44.1623 9.62353 43.9756 10.0342C43.7983 10.4355 43.5696 10.7202 43.2896 10.8882C43.0096 11.0562 42.6876 11.1402 42.3236 11.1402Z" fill="#7C8087"/>
<path d="M53.9431 11.1402C53.4671 11.1402 53.0144 11.0655 52.5851 10.9162C52.1557 10.7669 51.7777 10.5382 51.4511 10.2302C51.1244 9.91286 50.8631 9.5162 50.6671 9.0402C50.4711 8.5642 50.3731 8.0042 50.3731 7.3602V7.0802C50.3731 6.4642 50.4664 5.9322 50.6531 5.4842C50.8397 5.02686 51.0871 4.64886 51.3951 4.3502C51.7124 4.0422 52.0764 3.81353 52.4871 3.6642C52.9071 3.51486 53.3457 3.4402 53.8031 3.4402C54.8951 3.4402 55.7397 3.73886 56.3371 4.3362C56.9344 4.93353 57.2331 5.7782 57.2331 6.8702V7.6542H51.6051C51.6051 8.09286 51.6751 8.46153 51.8151 8.7602C51.9551 9.05886 52.1371 9.30153 52.3611 9.4882C52.5851 9.67486 52.8324 9.8102 53.1031 9.8942C53.3831 9.9782 53.6631 10.0202 53.9431 10.0202C54.5031 10.0202 54.9324 9.92686 55.2311 9.7402C55.5391 9.55353 55.7584 9.29686 55.8891 8.9702H57.0931C57.0184 9.32486 56.8831 9.63753 56.6871 9.9082C56.5004 10.1789 56.2671 10.4075 55.9871 10.5942C55.7164 10.7715 55.4037 10.9069 55.0491 11.0002C54.7037 11.0935 54.3351 11.1402 53.9431 11.1402ZM53.8731 4.5602C53.5837 4.5602 53.3037 4.6022 53.0331 4.6862C52.7624 4.76086 52.5198 4.88686 52.3051 5.0642C52.0998 5.2322 51.9318 5.44686 51.8011 5.7082C51.6704 5.96953 51.6051 6.2822 51.6051 6.6462H56.0711C56.0617 6.26353 55.9964 5.94153 55.8751 5.6802C55.7631 5.40953 55.6091 5.19486 55.4131 5.0362C55.2171 4.8682 54.9837 4.74686 54.7131 4.6722C54.4517 4.59753 54.1717 4.5602 53.8731 4.5602Z" fill="#7C8087"/>
<path d="M58.9842 3.5802H60.2162V6.6742H64.0522V3.5802H65.2842V11.0002H64.0522V7.7662H60.2162V11.0002H58.9842V3.5802Z" fill="#7C8087"/>
<path d="M67.5291 3.5802H68.7611V9.1802L72.5971 3.5802H73.8291V11.0002H72.5971V5.4002L68.7611 11.0002H67.5291V3.5802Z" fill="#7C8087"/>
<path d="M77.53 8.0602C76.914 7.9202 76.4707 7.6682 76.2 7.3042C75.9293 6.93086 75.794 6.45486 75.794 5.8762C75.794 5.1482 76.0133 4.58353 76.452 4.1822C76.9 3.78086 77.614 3.5802 78.594 3.5802H81.814V11.0002H80.582V8.1722H78.692L76.886 11.0002H75.514L77.53 8.0602ZM77.026 5.8762C77.026 6.2682 77.138 6.56686 77.362 6.7722C77.5953 6.97753 77.9827 7.0802 78.524 7.0802H80.582V4.6722H78.524C77.9827 4.6722 77.5953 4.77486 77.362 4.9802C77.138 5.18553 77.026 5.4842 77.026 5.8762Z" fill="#7C8087"/>
<path d="M181.597 1.19961H189.297V10.9996H187.981V2.34761H182.913V10.9996H181.597V1.19961Z" fill="#7C8087"/>
<path d="M191.817 3.57961H192.965V4.97961C193.217 4.48494 193.567 4.10694 194.015 3.84561C194.473 3.57494 195 3.43961 195.597 3.43961C196.531 3.43961 197.277 3.74761 197.837 4.36361C198.397 4.97028 198.677 5.87561 198.677 7.07961V7.35961C198.677 7.99428 198.603 8.54961 198.453 9.02561C198.304 9.49227 198.094 9.88428 197.823 10.2016C197.553 10.5096 197.226 10.7429 196.843 10.9016C196.47 11.0603 196.055 11.1396 195.597 11.1396C194.963 11.1396 194.43 10.9996 194.001 10.7196C193.581 10.4396 193.264 10.0896 193.049 9.66961V13.7996H191.817V3.57961ZM195.317 10.0476C195.616 10.0476 195.896 9.99161 196.157 9.87961C196.418 9.75827 196.642 9.58561 196.829 9.36161C197.025 9.13761 197.174 8.85761 197.277 8.52161C197.389 8.18561 197.445 7.79828 197.445 7.35961V7.07961C197.445 6.67828 197.389 6.31894 197.277 6.00161C197.174 5.68427 197.025 5.41827 196.829 5.20361C196.642 4.97961 196.418 4.81161 196.157 4.69961C195.896 4.58761 195.616 4.53161 195.317 4.53161C194.981 4.53161 194.673 4.58761 194.393 4.69961C194.113 4.80227 193.875 4.95161 193.679 5.14761C193.483 5.33428 193.329 5.55828 193.217 5.81961C193.105 6.08094 193.049 6.36094 193.049 6.65961V7.77961C193.049 8.11561 193.105 8.42361 193.217 8.70361C193.329 8.98361 193.483 9.22161 193.679 9.41761C193.875 9.61361 194.113 9.76761 194.393 9.87961C194.673 9.99161 194.981 10.0476 195.317 10.0476Z" fill="#7C8087"/>
<path d="M200.43 3.57961H201.662V9.17961L205.498 3.57961H206.73V10.9996H205.498V5.39961L201.662 10.9996H200.43V3.57961Z" fill="#7C8087"/>
<path d="M212.055 11.1396C211.561 11.1396 211.099 11.0463 210.669 10.8596C210.249 10.6729 209.881 10.4023 209.563 10.0476C209.255 9.68361 209.008 9.24028 208.821 8.71761C208.644 8.19494 208.555 7.60228 208.555 6.93961V6.65961C208.555 5.81961 208.616 5.07294 208.737 4.41961C208.859 3.75694 209.064 3.19694 209.353 2.73961C209.652 2.27294 210.039 1.90894 210.515 1.64761C211.001 1.38627 211.607 1.23694 212.335 1.19961C212.923 1.17161 213.437 1.14828 213.875 1.12961C214.314 1.10161 214.687 1.00828 214.995 0.849609V2.03961C214.846 2.12361 214.571 2.18894 214.169 2.23561C213.777 2.28228 213.236 2.31494 212.545 2.33361C212.097 2.34294 211.701 2.39894 211.355 2.50161C211.019 2.60427 210.73 2.76761 210.487 2.99161C210.254 3.21561 210.067 3.50961 209.927 3.87361C209.797 4.22828 209.713 4.66694 209.675 5.18961C209.899 4.69494 210.245 4.30294 210.711 4.01361C211.178 3.72428 211.719 3.57961 212.335 3.57961C212.811 3.57961 213.245 3.66361 213.637 3.83161C214.029 3.99027 214.365 4.21894 214.645 4.51761C214.935 4.81628 215.159 5.18494 215.317 5.62361C215.476 6.05294 215.555 6.53828 215.555 7.07961V7.35961C215.555 7.93828 215.467 8.46094 215.289 8.92761C215.112 9.38494 214.869 9.78161 214.561 10.1176C214.253 10.4443 213.885 10.6963 213.455 10.8736C213.026 11.0509 212.559 11.1396 212.055 11.1396ZM212.055 10.0196C212.709 10.0196 213.245 9.79561 213.665 9.34761C214.085 8.89028 214.295 8.22761 214.295 7.35961V7.07961C214.295 6.71561 214.239 6.38894 214.127 6.09961C214.015 5.81028 213.861 5.56294 213.665 5.35761C213.469 5.14294 213.231 4.97961 212.951 4.86761C212.681 4.75561 212.382 4.69961 212.055 4.69961C211.729 4.69961 211.425 4.75561 211.145 4.86761C210.875 4.97961 210.641 5.14294 210.445 5.35761C210.249 5.56294 210.095 5.81028 209.983 6.09961C209.871 6.38894 209.815 6.71561 209.815 7.07961V7.35961C209.815 7.77028 209.871 8.14361 209.983 8.47961C210.105 8.80628 210.268 9.08628 210.473 9.31961C210.679 9.54361 210.917 9.71628 211.187 9.83761C211.458 9.95894 211.747 10.0196 212.055 10.0196Z" fill="#7C8087"/>
<path d="M217.302 3.57961H218.534V6.37961H220.032C220.965 6.37961 221.651 6.58494 222.09 6.99561C222.538 7.40628 222.762 7.97561 222.762 8.70361C222.762 9.41294 222.538 9.97294 222.09 10.3836C221.651 10.7943 220.965 10.9996 220.032 10.9996H217.302V3.57961ZM219.962 9.90761C220.54 9.90761 220.946 9.80494 221.18 9.59961C221.413 9.39428 221.53 9.09094 221.53 8.68961C221.53 8.28828 221.413 7.98494 221.18 7.77961C220.946 7.57428 220.54 7.47161 219.962 7.47161H218.534V9.90761H219.962ZM223.91 3.57961H225.142V10.9996H223.91V3.57961Z" fill="#7C8087"/>
<path d="M227.028 11.1396C226.888 11.1396 226.748 11.1256 226.608 11.0976V9.86561C226.654 9.87494 226.724 9.87961 226.818 9.87961C227.023 9.87961 227.2 9.81428 227.35 9.68361C227.508 9.55294 227.634 9.32427 227.728 8.99761C227.821 8.67094 227.891 8.22761 227.938 7.66761C227.984 7.10761 228.008 6.39827 228.008 5.53961V3.57961H233.328V10.9996H232.096V4.67161H229.24V5.81961C229.24 6.85561 229.193 7.71428 229.1 8.39561C229.006 9.07694 228.866 9.62294 228.68 10.0336C228.502 10.4349 228.274 10.7196 227.994 10.8876C227.714 11.0556 227.392 11.1396 227.028 11.1396Z" fill="#7C8087"/>
<path d="M235.567 3.57961H236.799V6.37961H238.577C239.511 6.37961 240.196 6.58494 240.635 6.99561C241.083 7.40628 241.307 7.97561 241.307 8.70361C241.307 9.41294 241.083 9.97294 240.635 10.3836C240.196 10.7943 239.511 10.9996 238.577 10.9996H235.567V3.57961ZM238.507 9.90761C239.086 9.90761 239.492 9.80494 239.725 9.59961C239.959 9.39428 240.075 9.09094 240.075 8.68961C240.075 8.28828 239.959 7.98494 239.725 7.77961C239.492 7.57428 239.086 7.47161 238.507 7.47161H236.799V9.90761H238.507Z" fill="#7C8087"/>
<path d="M5.86462 109.141C5.31396 109.141 4.7913 109.047 4.29663 108.861C3.80196 108.665 3.36329 108.366 2.98062 107.965C2.59795 107.554 2.29462 107.036 2.07062 106.411C1.84662 105.785 1.73462 105.039 1.73462 104.171V103.891C1.73462 103.051 1.84662 102.327 2.07062 101.721C2.29462 101.114 2.59795 100.615 2.98062 100.223C3.36329 99.8305 3.80196 99.5412 4.29663 99.3545C4.7913 99.1585 5.31396 99.0605 5.86462 99.0605C6.39662 99.0605 6.88195 99.1305 7.32062 99.2705C7.76862 99.4105 8.16061 99.6112 8.49661 99.8725C8.83261 100.134 9.10329 100.456 9.30862 100.839C9.52329 101.221 9.65863 101.655 9.71463 102.141H8.31464C8.18397 101.506 7.90862 101.03 7.48862 100.713C7.06862 100.395 6.52729 100.237 5.86462 100.237C5.51929 100.237 5.1833 100.302 4.85663 100.433C4.52996 100.563 4.23594 100.773 3.97461 101.063C3.72261 101.343 3.51728 101.716 3.35861 102.183C3.20928 102.649 3.13461 103.219 3.13461 103.891V104.171C3.13461 104.88 3.21863 105.477 3.38663 105.963C3.55463 106.439 3.76928 106.826 4.03061 107.125C4.29194 107.423 4.58596 107.638 4.91263 107.769C5.2393 107.899 5.55662 107.965 5.86462 107.965C6.59262 107.965 7.16197 107.787 7.57263 107.433C7.9833 107.078 8.23064 106.621 8.31464 106.061H9.71463C9.63996 106.602 9.49063 107.069 9.26663 107.461C9.04263 107.843 8.75796 108.161 8.41263 108.413C8.07663 108.665 7.68928 108.851 7.25061 108.973C6.82128 109.085 6.35929 109.141 5.86462 109.141Z" fill="#7C8087"/>
<path d="M13.2242 102.673H10.6902V101.581H16.9902V102.673H14.4562V109.001H13.2242V102.673Z" fill="#7C8087"/>
<path d="M20.2341 109.141C19.8234 109.141 19.4594 109.085 19.1421 108.973C18.8341 108.851 18.5728 108.688 18.3581 108.483C18.1434 108.277 17.9801 108.035 17.8681 107.755C17.7561 107.475 17.7001 107.167 17.7001 106.831C17.7001 106.093 17.9148 105.561 18.3441 105.235C18.7828 104.908 19.4081 104.745 20.2201 104.745H22.6281V104.241C22.6281 103.606 22.4834 103.167 22.1941 102.925C21.9141 102.682 21.4894 102.561 20.9201 102.561C20.3881 102.561 20.0008 102.663 19.7581 102.869C19.5154 103.065 19.3801 103.289 19.3521 103.541H18.1201C18.1388 103.242 18.2181 102.967 18.3581 102.715C18.5074 102.453 18.7034 102.229 18.9461 102.043C19.1981 101.856 19.4968 101.711 19.8421 101.609C20.1874 101.497 20.5701 101.441 20.9901 101.441C21.8674 101.441 22.5627 101.651 23.0761 102.071C23.5987 102.481 23.8601 103.158 23.8601 104.101V107.111C23.8601 107.503 23.8601 107.848 23.8601 108.147C23.8694 108.436 23.8928 108.721 23.9301 109.001H22.8521C22.8241 108.786 22.8054 108.585 22.7961 108.399C22.7867 108.203 22.7821 107.983 22.7821 107.741C22.5861 108.133 22.2687 108.464 21.8301 108.735C21.3914 109.005 20.8594 109.141 20.2341 109.141ZM20.5001 108.021C20.7894 108.021 21.0601 107.983 21.3121 107.909C21.5734 107.825 21.8021 107.708 21.9981 107.559C22.1941 107.4 22.3481 107.209 22.4601 106.985C22.5721 106.761 22.6281 106.499 22.6281 106.201V105.697H20.4301C19.9728 105.697 19.6134 105.79 19.3521 105.977C19.0907 106.154 18.9601 106.439 18.9601 106.831C18.9601 107.176 19.0814 107.461 19.3241 107.685C19.5761 107.909 19.9681 108.021 20.5001 108.021Z" fill="#7C8087"/>
<path d="M27.5934 102.673H25.0594V101.581H31.3594V102.673H28.8254V109.001H27.5934V102.673Z" fill="#7C8087"/>
<path d="M34.0161 111.941C33.8761 111.941 33.7361 111.927 33.5961 111.899V110.779C33.7361 110.807 33.8761 110.821 34.0161 110.821C34.1561 110.821 34.2774 110.797 34.3801 110.751C34.4828 110.704 34.5808 110.615 34.6741 110.485C34.7674 110.354 34.8654 110.167 34.9681 109.925C35.0801 109.691 35.2061 109.383 35.3461 109.001L32.1961 101.581H33.5681L35.9761 107.601L38.1601 101.581H39.4761L36.6761 109.001C36.4801 109.523 36.2935 109.971 36.1161 110.345C35.9388 110.718 35.7474 111.021 35.5421 111.255C35.3461 111.497 35.1268 111.67 34.8841 111.773C34.6414 111.885 34.3521 111.941 34.0161 111.941Z" fill="#7C8087"/>
<path d="M43.4666 109.141C42.9906 109.141 42.5473 109.066 42.1367 108.917C41.726 108.758 41.3713 108.525 41.0727 108.217C40.774 107.899 40.536 107.503 40.3586 107.027C40.1906 106.551 40.1067 105.995 40.1067 105.361V105.081C40.1067 104.483 40.2 103.956 40.3867 103.499C40.5733 103.041 40.8207 102.663 41.1287 102.365C41.4367 102.057 41.7913 101.828 42.1927 101.679C42.6033 101.52 43.028 101.441 43.4666 101.441C43.9053 101.441 44.2973 101.501 44.6426 101.623C44.9973 101.744 45.3006 101.912 45.5526 102.127C45.814 102.341 46.024 102.593 46.1826 102.883C46.3506 103.172 46.472 103.485 46.5467 103.821H45.2867C45.212 103.643 45.1233 103.48 45.0207 103.331C44.9273 103.172 44.806 103.037 44.6566 102.925C44.5166 102.813 44.3486 102.724 44.1526 102.659C43.9566 102.593 43.728 102.561 43.4666 102.561C43.196 102.561 42.9346 102.612 42.6826 102.715C42.4306 102.808 42.2067 102.957 42.0107 103.163C41.8147 103.359 41.656 103.615 41.5347 103.933C41.4227 104.25 41.3667 104.633 41.3667 105.081V105.361C41.3667 105.837 41.4227 106.247 41.5347 106.593C41.656 106.929 41.8147 107.204 42.0107 107.419C42.2067 107.624 42.4306 107.778 42.6826 107.881C42.9346 107.974 43.196 108.021 43.4666 108.021C43.924 108.021 44.3067 107.909 44.6147 107.685C44.932 107.461 45.156 107.153 45.2867 106.761H46.5467C46.3693 107.498 46.0053 108.081 45.4547 108.511C44.904 108.931 44.2413 109.141 43.4666 109.141Z" fill="#7C8087"/>
<path d="M1 144C1 135.716 7.71573 129 16 129H96C104.284 129 111 135.716 111 144C111 152.284 104.284 159 96 159H16C7.71573 159 1 152.284 1 144Z" fill="#24C547"/>
<path d="M26.98 139.2H30.48C31.068 139.2 31.572 139.265 31.992 139.396C32.412 139.526 32.7573 139.708 33.028 139.942C33.308 140.166 33.5133 140.441 33.644 140.768C33.7746 141.085 33.84 141.435 33.84 141.818C33.84 142.322 33.7 142.756 33.42 143.12C33.14 143.474 32.7946 143.731 32.384 143.89C32.9626 144.02 33.42 144.286 33.756 144.688C34.092 145.08 34.26 145.593 34.26 146.228C34.26 146.629 34.1946 146.998 34.064 147.334C33.9333 147.67 33.728 147.964 33.448 148.216C33.168 148.458 32.804 148.65 32.356 148.79C31.9173 148.93 31.3853 149 30.76 149H26.98V139.2ZM30.76 147.852C31.18 147.852 31.53 147.814 31.81 147.74C32.09 147.656 32.314 147.544 32.482 147.404C32.65 147.254 32.7666 147.077 32.832 146.872C32.9066 146.666 32.944 146.438 32.944 146.186C32.944 145.934 32.9066 145.705 32.832 145.5C32.7666 145.285 32.65 145.108 32.482 144.968C32.314 144.818 32.0853 144.706 31.796 144.632C31.516 144.548 31.166 144.506 30.746 144.506H28.296V147.852H30.76ZM30.48 143.414C30.872 143.414 31.1986 143.376 31.46 143.302C31.7213 143.227 31.9313 143.12 32.09 142.98C32.2486 142.84 32.3606 142.676 32.426 142.49C32.4913 142.303 32.524 142.098 32.524 141.874C32.524 141.65 32.4913 141.444 32.426 141.258C32.3606 141.062 32.2486 140.898 32.09 140.768C31.9313 140.637 31.7213 140.534 31.46 140.46C31.1986 140.385 30.872 140.348 30.48 140.348H28.296V143.414H30.48Z" fill="white"/>
<path d="M39.5789 141.58H40.7269V142.98C40.9789 142.485 41.3289 142.107 41.7769 141.846C42.2342 141.575 42.7616 141.44 43.3589 141.44C44.2922 141.44 45.0389 141.748 45.5989 142.364C46.1589 142.97 46.4389 143.876 46.4389 145.08V145.36C46.4389 145.994 46.3642 146.55 46.2149 147.026C46.0656 147.492 45.8556 147.884 45.5849 148.202C45.3142 148.51 44.9876 148.743 44.6049 148.902C44.2316 149.06 43.8162 149.14 43.3589 149.14C42.7242 149.14 42.1922 149 41.7629 148.72C41.3429 148.44 41.0256 148.09 40.8109 147.67V151.8H39.5789V141.58ZM43.0789 148.048C43.3776 148.048 43.6576 147.992 43.9189 147.88C44.1802 147.758 44.4042 147.586 44.5909 147.362C44.7869 147.138 44.9362 146.858 45.0389 146.522C45.1509 146.186 45.2069 145.798 45.2069 145.36V145.08C45.2069 144.678 45.1509 144.319 45.0389 144.002C44.9362 143.684 44.7869 143.418 44.5909 143.204C44.4042 142.98 44.1802 142.812 43.9189 142.7C43.6576 142.588 43.3776 142.532 43.0789 142.532C42.7429 142.532 42.4349 142.588 42.1549 142.7C41.8749 142.802 41.6369 142.952 41.4409 143.148C41.2449 143.334 41.0909 143.558 40.9789 143.82C40.8669 144.081 40.8109 144.361 40.8109 144.66V145.78C40.8109 146.116 40.8669 146.424 40.9789 146.704C41.0909 146.984 41.2449 147.222 41.4409 147.418C41.6369 147.614 41.8749 147.768 42.1549 147.88C42.4349 147.992 42.7429 148.048 43.0789 148.048Z" fill="white"/>
<path d="M50.3062 149.14C49.8955 149.14 49.5315 149.084 49.2142 148.972C48.9062 148.85 48.6448 148.687 48.4302 148.482C48.2155 148.276 48.0522 148.034 47.9402 147.754C47.8282 147.474 47.7722 147.166 47.7722 146.83C47.7722 146.092 47.9868 145.56 48.4162 145.234C48.8548 144.907 49.4802 144.744 50.2922 144.744H52.7002V144.24C52.7002 143.605 52.5555 143.166 52.2662 142.924C51.9862 142.681 51.5615 142.56 50.9922 142.56C50.4602 142.56 50.0728 142.662 49.8302 142.868C49.5875 143.064 49.4522 143.288 49.4242 143.54H48.1922C48.2108 143.241 48.2902 142.966 48.4302 142.714C48.5795 142.452 48.7755 142.228 49.0182 142.042C49.2702 141.855 49.5688 141.71 49.9142 141.608C50.2595 141.496 50.6422 141.44 51.0622 141.44C51.9395 141.44 52.6348 141.65 53.1482 142.07C53.6708 142.48 53.9322 143.157 53.9322 144.1V147.11C53.9322 147.502 53.9322 147.847 53.9322 148.146C53.9415 148.435 53.9648 148.72 54.0022 149H52.9242C52.8962 148.785 52.8775 148.584 52.8682 148.398C52.8588 148.202 52.8542 147.982 52.8542 147.74C52.6582 148.132 52.3408 148.463 51.9022 148.734C51.4635 149.004 50.9315 149.14 50.3062 149.14ZM50.5722 148.02C50.8615 148.02 51.1322 147.982 51.3842 147.908C51.6455 147.824 51.8742 147.707 52.0702 147.558C52.2662 147.399 52.4202 147.208 52.5322 146.984C52.6442 146.76 52.7002 146.498 52.7002 146.2V145.696H50.5022C50.0448 145.696 49.6855 145.789 49.4242 145.976C49.1628 146.153 49.0322 146.438 49.0322 146.83C49.0322 147.175 49.1535 147.46 49.3962 147.684C49.6482 147.908 50.0402 148.02 50.5722 148.02Z" fill="white"/>
<path d="M59.1882 149.14C58.6935 149.14 58.2315 149.046 57.8022 148.86C57.3822 148.673 57.0135 148.402 56.6962 148.048C56.3882 147.684 56.1409 147.24 55.9542 146.718C55.7769 146.195 55.6882 145.602 55.6882 144.94V144.66C55.6882 143.82 55.7489 143.073 55.8702 142.42C55.9915 141.757 56.1969 141.197 56.4862 140.74C56.7849 140.273 57.1722 139.909 57.6482 139.648C58.1335 139.386 58.7402 139.237 59.4682 139.2C60.0562 139.172 60.5695 139.148 61.0082 139.13C61.4469 139.102 61.8202 139.008 62.1282 138.85V140.04C61.9788 140.124 61.7035 140.189 61.3022 140.236C60.9102 140.282 60.3689 140.315 59.6782 140.334C59.2302 140.343 58.8335 140.399 58.4882 140.502C58.1522 140.604 57.8629 140.768 57.6202 140.992C57.3869 141.216 57.2002 141.51 57.0602 141.874C56.9295 142.228 56.8455 142.667 56.8082 143.19C57.0322 142.695 57.3775 142.303 57.8442 142.014C58.3108 141.724 58.8522 141.58 59.4682 141.58C59.9442 141.58 60.3782 141.664 60.7702 141.832C61.1622 141.99 61.4982 142.219 61.7782 142.518C62.0675 142.816 62.2915 143.185 62.4502 143.624C62.6089 144.053 62.6882 144.538 62.6882 145.08V145.36C62.6882 145.938 62.5995 146.461 62.4222 146.928C62.2449 147.385 62.0022 147.782 61.6942 148.118C61.3862 148.444 61.0175 148.696 60.5882 148.874C60.1588 149.051 59.6922 149.14 59.1882 149.14ZM59.1882 148.02C59.8415 148.02 60.3782 147.796 60.7982 147.348C61.2182 146.89 61.4282 146.228 61.4282 145.36V145.08C61.4282 144.716 61.3722 144.389 61.2602 144.1C61.1482 143.81 60.9942 143.563 60.7982 143.358C60.6022 143.143 60.3642 142.98 60.0842 142.868C59.8135 142.756 59.5149 142.7 59.1882 142.7C58.8615 142.7 58.5582 142.756 58.2782 142.868C58.0075 142.98 57.7742 143.143 57.5782 143.358C57.3822 143.563 57.2282 143.81 57.1162 144.1C57.0042 144.389 56.9482 144.716 56.9482 145.08V145.36C56.9482 145.77 57.0042 146.144 57.1162 146.48C57.2375 146.806 57.4009 147.086 57.6062 147.32C57.8115 147.544 58.0495 147.716 58.3202 147.838C58.5909 147.959 58.8802 148.02 59.1882 148.02Z" fill="white"/>
<path d="M67.5144 149.14C67.0384 149.14 66.5857 149.065 66.1564 148.916C65.727 148.757 65.349 148.524 65.0224 148.216C64.6957 147.898 64.4344 147.502 64.2384 147.026C64.0424 146.55 63.9444 145.994 63.9444 145.36V145.08C63.9444 144.482 64.0424 143.955 64.2384 143.498C64.4344 143.04 64.6957 142.662 65.0224 142.364C65.349 142.056 65.727 141.827 66.1564 141.678C66.5857 141.519 67.0384 141.44 67.5144 141.44C67.9904 141.44 68.443 141.519 68.8724 141.678C69.3017 141.827 69.6797 142.056 70.0064 142.364C70.333 142.662 70.5944 143.04 70.7904 143.498C70.9864 143.955 71.0844 144.482 71.0844 145.08V145.36C71.0844 145.994 70.9864 146.55 70.7904 147.026C70.5944 147.502 70.333 147.898 70.0064 148.216C69.6797 148.524 69.3017 148.757 68.8724 148.916C68.443 149.065 67.9904 149.14 67.5144 149.14ZM67.5144 148.02C67.7944 148.02 68.0744 147.973 68.3544 147.88C68.6344 147.777 68.8817 147.623 69.0964 147.418C69.311 147.203 69.4837 146.928 69.6144 146.592C69.7544 146.256 69.8244 145.845 69.8244 145.36V145.08C69.8244 144.632 69.7544 144.249 69.6144 143.932C69.4837 143.614 69.311 143.353 69.0964 143.148C68.8817 142.942 68.6344 142.793 68.3544 142.7C68.0744 142.606 67.7944 142.56 67.5144 142.56C67.2344 142.56 66.9544 142.606 66.6744 142.7C66.3944 142.793 66.147 142.942 65.9324 143.148C65.7177 143.353 65.5404 143.614 65.4004 143.932C65.2697 144.249 65.2044 144.632 65.2044 145.08V145.36C65.2044 145.845 65.2697 146.256 65.4004 146.592C65.5404 146.928 65.7177 147.203 65.9324 147.418C66.147 147.623 66.3944 147.777 66.6744 147.88C66.9544 147.973 67.2344 148.02 67.5144 148.02Z" fill="white"/>
<path d="M74.3862 142.672H71.8522V141.58H78.1522V142.672H75.6182V149H74.3862V142.672Z" fill="white"/>
<path d="M82.4987 149.14C82.0227 149.14 81.5701 149.065 81.1407 148.916C80.7114 148.766 80.3334 148.538 80.0067 148.23C79.6801 147.912 79.4187 147.516 79.2227 147.04C79.0267 146.564 78.9287 146.004 78.9287 145.36V145.08C78.9287 144.464 79.0221 143.932 79.2087 143.484C79.3954 143.026 79.6427 142.648 79.9507 142.35C80.2681 142.042 80.6321 141.813 81.0427 141.664C81.4627 141.514 81.9014 141.44 82.3587 141.44C83.4507 141.44 84.2954 141.738 84.8927 142.336C85.4901 142.933 85.7887 143.778 85.7887 144.87V145.654H80.1607C80.1607 146.092 80.2307 146.461 80.3707 146.76C80.5107 147.058 80.6927 147.301 80.9167 147.488C81.1407 147.674 81.3881 147.81 81.6587 147.894C81.9387 147.978 82.2187 148.02 82.4987 148.02C83.0587 148.02 83.4881 147.926 83.7867 147.74C84.0947 147.553 84.3141 147.296 84.4447 146.97H85.6487C85.5741 147.324 85.4387 147.637 85.2427 147.908C85.0561 148.178 84.8227 148.407 84.5427 148.594C84.2721 148.771 83.9594 148.906 83.6047 149C83.2594 149.093 82.8907 149.14 82.4987 149.14ZM82.4287 142.56C82.1394 142.56 81.8594 142.602 81.5887 142.686C81.3181 142.76 81.0754 142.886 80.8607 143.064C80.6554 143.232 80.4874 143.446 80.3567 143.708C80.2261 143.969 80.1607 144.282 80.1607 144.646H84.6267C84.6174 144.263 84.5521 143.941 84.4307 143.68C84.3187 143.409 84.1647 143.194 83.9687 143.036C83.7727 142.868 83.5394 142.746 83.2687 142.672C83.0074 142.597 82.7274 142.56 82.4287 142.56Z" fill="white"/>
</svg>
