<svg width="36" height="36" viewBox="0 0 36 36" fill="none" xmlns="http://www.w3.org/2000/svg">
<path d="M9 0C7.7625 0 6.75 1.0125 6.75 2.25V33.75C6.75 34.9875 7.7625 36 9 36H31.5C32.7375 36 33.75 34.9875 33.75 33.75V9L24.75 0H9Z" fill="#E2E5E7"/>
<path d="M27 9H33.75L24.75 0V6.75C24.75 7.9875 25.7625 9 27 9Z" fill="#B0B7BD"/>
<path d="M33.75 15.75L27 9H33.75V15.75Z" fill="#CAD1D8"/>
<path d="M29.25 29.25C29.25 29.8687 28.7437 30.375 28.125 30.375H3.375C2.75625 30.375 2.25 29.8687 2.25 29.25V18C2.25 17.3812 2.75625 16.875 3.375 16.875H28.125C28.7437 16.875 29.25 17.3812 29.25 18V29.25Z" fill="#F15642"/>
<path d="M7.15381 21.3153C7.15381 21.0183 7.38781 20.6943 7.76468 20.6943H9.84256C11.0126 20.6943 12.0656 21.4773 12.0656 22.9781C12.0656 24.4001 11.0126 25.1921 9.84256 25.1921H8.34068V26.3801C8.34068 26.7761 8.08868 27 7.76468 27C7.46768 27 7.15381 26.7761 7.15381 26.3801V21.3153ZM8.34068 21.8272V24.0682H9.84256C10.4456 24.0682 10.9226 23.5361 10.9226 22.9781C10.9226 22.3492 10.4456 21.8272 9.84256 21.8272H8.34068Z" fill="white"/>
<path d="M13.8273 27C13.5303 27 13.2063 26.838 13.2063 26.4431V21.3334C13.2063 21.0105 13.5303 20.7754 13.8273 20.7754H15.8872C19.9979 20.7754 19.9079 27 15.9682 27H13.8273ZM14.3943 21.8734V25.9031H15.8872C18.316 25.9031 18.424 21.8734 15.8872 21.8734H14.3943Z" fill="white"/>
<path d="M21.366 21.9453V23.3752H23.6598C23.9838 23.3752 24.3078 23.6992 24.3078 24.013C24.3078 24.31 23.9838 24.553 23.6598 24.553H21.366V26.4419C21.366 26.7569 21.1421 26.9988 20.8271 26.9988C20.4311 26.9988 20.1892 26.7569 20.1892 26.4419V21.3322C20.1892 21.0093 20.4322 20.7742 20.8271 20.7742H23.985C24.381 20.7742 24.615 21.0093 24.615 21.3322C24.615 21.6202 24.381 21.9442 23.985 21.9442H21.366V21.9453Z" fill="white"/>
<path d="M28.125 30.375H6.75V31.5H28.125C28.7437 31.5 29.25 30.9937 29.25 30.375V29.25C29.25 29.8688 28.7437 30.375 28.125 30.375Z" fill="#CAD1D8"/>
</svg>
