<svg width="220" height="221" viewBox="0 0 220 221" fill="none" xmlns="http://www.w3.org/2000/svg">
<path fill-rule="evenodd" clip-rule="evenodd" d="M4 0.800049H0V4.80005H4V0.800049ZM28 0.800049H24V4.80005H28V0.800049ZM48 0.800049H52V4.80005H48V0.800049ZM76 0.800049H72V4.80005H76V0.800049ZM96 0.800049H100V4.80005H96V0.800049ZM124 0.800049H120V4.80005H124V0.800049ZM144 0.800049H148V4.80005H144V0.800049ZM172 0.800049H168V4.80005H172V0.800049ZM192 0.800049H196V4.80005H192V0.800049ZM220 0.800049H216V4.80005H220V0.800049ZM0 24.8H4V28.8H0V24.8ZM28 24.8H24V28.8H28V24.8ZM48 24.8H52V28.8H48V24.8ZM76 24.8H72V28.8H76V24.8ZM96 24.8H100V28.8H96V24.8ZM124 24.8H120V28.8H124V24.8ZM144 24.8H148V28.8H144V24.8ZM172 24.8H168V28.8H172V24.8ZM192 24.8H196V28.8H192V24.8ZM220 24.8H216V28.8H220V24.8ZM0 48.8H4V52.8H0V48.8ZM28 48.8H24V52.8H28V48.8ZM48 48.8H52V52.8H48V48.8ZM76 48.8H72V52.8H76V48.8ZM96 48.8H100V52.8H96V48.8ZM124 48.8H120V52.8H124V48.8ZM144 48.8H148V52.8H144V48.8ZM172 48.8H168V52.8H172V48.8ZM192 48.8H196V52.8H192V48.8ZM220 48.8H216V52.8H220V48.8ZM0 72.8H4V76.8H0V72.8ZM28 72.8H24V76.8H28V72.8ZM48 72.8H52V76.8H48V72.8ZM76 72.8H72V76.8H76V72.8ZM96 72.8H100V76.8H96V72.8ZM124 72.8H120V76.8H124V72.8ZM144 72.8H148V76.8H144V72.8ZM172 72.8H168V76.8H172V72.8ZM192 72.8H196V76.8H192V72.8ZM220 72.8H216V76.8H220V72.8ZM0 96.8H4V100.8H0V96.8ZM28 96.8H24V100.8H28V96.8ZM48 96.8H52V100.8H48V96.8ZM76 96.8H72V100.8H76V96.8ZM96 96.8H100V100.8H96V96.8ZM124 96.8H120V100.8H124V96.8ZM144 96.8H148V100.8H144V96.8ZM172 96.8H168V100.8H172V96.8ZM192 96.8H196V100.8H192V96.8ZM220 96.8H216V100.8H220V96.8ZM0 120.8H4V124.8H0V120.8ZM28 120.8H24V124.8H28V120.8ZM48 120.8H52V124.8H48V120.8ZM76 120.8H72V124.8H76V120.8ZM96 120.8H100V124.8H96V120.8ZM124 120.8H120V124.8H124V120.8ZM144 120.8H148V124.8H144V120.8ZM172 120.8H168V124.8H172V120.8ZM192 120.8H196V124.8H192V120.8ZM220 120.8H216V124.8H220V120.8ZM0 144.8H4V148.8H0V144.8ZM28 144.8H24V148.8H28V144.8ZM48 144.8H52V148.8H48V144.8ZM76 144.8H72V148.8H76V144.8ZM96 144.8H100V148.8H96V144.8ZM124 144.8H120V148.8H124V144.8ZM144 144.8H148V148.8H144V144.8ZM172 144.8H168V148.8H172V144.8ZM192 144.8H196V148.8H192V144.8ZM220 144.8H216V148.8H220V144.8ZM0 168.8H4V172.8H0V168.8ZM28 168.8H24V172.8H28V168.8ZM48 168.8H52V172.8H48V168.8ZM76 168.8H72V172.8H76V168.8ZM96 168.8H100V172.8H96V168.8ZM124 168.8H120V172.8H124V168.8ZM144 168.8H148V172.8H144V168.8ZM172 168.8H168V172.8H172V168.8ZM192 168.8H196V172.8H192V168.8ZM220 168.8H216V172.8H220V168.8ZM0 192.8H4V196.8H0V192.8ZM28 192.8H24V196.8H28V192.8ZM48 192.8H52V196.8H48V192.8ZM76 192.8H72V196.8H76V192.8ZM96 192.8H100V196.8H96V192.8ZM124 192.8H120V196.8H124V192.8ZM144 192.8H148V196.8H144V192.8ZM172 192.8H168V196.8H172V192.8ZM192 192.8H196V196.8H192V192.8ZM220 192.8H216V196.8H220V192.8ZM0 216.8H4V220.8H0V216.8ZM28 216.8H24V220.8H28V216.8ZM48 216.8H52V220.8H48V216.8ZM76 216.8H72V220.8H76V216.8ZM96 216.8H100V220.8H96V216.8ZM124 216.8H120V220.8H124V216.8ZM144 216.8H148V220.8H144V216.8ZM172 216.8H168V220.8H172V216.8ZM192 216.8H196V220.8H192V216.8ZM220 216.8H216V220.8H220V216.8Z" fill="#C5CFE0"/>
</svg>
