<svg width="36" height="37" viewBox="0 0 36 37" fill="none" xmlns="http://www.w3.org/2000/svg">
<g clip-path="url(#clip0)">
<path d="M7.97836 22.4427L6.72525 27.1207L2.14516 27.2176C0.776391 24.6789 0 21.7742 0 18.6875C0 15.7026 0.725906 12.8879 2.01262 10.4094H2.01361L6.09117 11.157L7.87739 15.2101C7.50354 16.3 7.29977 17.47 7.29977 18.6875C7.29991 20.0088 7.53926 21.2747 7.97836 22.4427Z" fill="#FBBB00"/>
<path d="M35.6855 15.325C35.8922 16.4138 36 17.5383 36 18.6876C36 19.9763 35.8645 21.2333 35.6064 22.4458C34.7302 26.572 32.4406 30.175 29.2689 32.7246L29.2679 32.7236L24.132 32.4616L23.4051 27.924C25.5097 26.6897 27.1544 24.7581 28.0208 22.4458H18.3958V15.325H28.1612H35.6855Z" fill="#518EF8"/>
<path d="M29.2679 32.7236L29.2689 32.7246C26.1842 35.204 22.2657 36.6876 18.0001 36.6876C11.1453 36.6876 5.18551 32.8562 2.14526 27.2178L7.97846 22.4429C9.49854 26.4998 13.4121 29.3877 18.0001 29.3877C19.9722 29.3877 21.8197 28.8546 23.405 27.9239L29.2679 32.7236Z" fill="#28B446"/>
<path d="M29.4894 4.83144L23.6582 9.60538C22.0174 8.5798 20.0779 7.98734 18.0001 7.98734C13.3082 7.98734 9.32147 11.0078 7.87753 15.2101L2.01368 10.4095H2.0127C5.00843 4.63365 11.0434 0.6875 18.0001 0.6875C22.3675 0.6875 26.372 2.24323 29.4894 4.83144Z" fill="#F14336"/>
</g>
<defs>
<clipPath id="clip0">
<rect width="36" height="36" fill="white" transform="translate(0 0.6875)"/>
</clipPath>
</defs>
</svg>
