<svg width="16" height="16" viewBox="0 0 16 16" fill="none" xmlns="http://www.w3.org/2000/svg">
<path d="M1.15846 8.32372C1.05499 8.20391 0.964099 8.09503 0.8866 8C0.964099 7.90497 1.05499 7.79609 1.15846 7.67628C1.54711 7.22626 2.10884 6.62713 2.80062 6.02983C4.2059 4.81647 6.04436 3.7 8 3.7C9.95564 3.7 11.7941 4.81647 13.1994 6.02983C13.8912 6.62713 14.4529 7.22626 14.8415 7.67628C14.945 7.79609 15.0359 7.90497 15.1134 8C15.0359 8.09503 14.945 8.20391 14.8415 8.32372C14.4529 8.77374 13.8912 9.37287 13.1994 9.97017C11.7941 11.1835 9.95564 12.3 8 12.3C6.04436 12.3 4.2059 11.1835 2.80062 9.97017C2.10884 9.37287 1.54711 8.77374 1.15846 8.32372Z" stroke="#CBCBCB" stroke-width="1.4"/>
<circle cx="8" cy="8" r="2.3" stroke="#CBCBCB" stroke-width="1.4"/>
<path d="M15.495 1.49497C15.7683 1.22161 15.7683 0.778392 15.495 0.505025C15.2216 0.231658 14.7784 0.231658 14.505 0.505025L15.495 1.49497ZM0.505025 14.505C0.231658 14.7784 0.231658 15.2216 0.505025 15.495C0.778392 15.7683 1.22161 15.7683 1.49497 15.495L0.505025 14.505ZM14.505 0.505025L0.505025 14.505L1.49497 15.495L15.495 1.49497L14.505 0.505025Z" fill="#CBCBCB"/>
</svg>
