<svg width="16" height="10" viewBox="0 0 16 10" fill="none" xmlns="http://www.w3.org/2000/svg">
<path d="M1.15846 5.32372C1.05499 5.20391 0.964099 5.09503 0.8866 5C0.964099 4.90497 1.05499 4.79609 1.15846 4.67628C1.54711 4.22626 2.10884 3.62713 2.80062 3.02983C4.2059 1.81647 6.04436 0.7 8 0.7C9.95564 0.7 11.7941 1.81647 13.1994 3.02983C13.8912 3.62713 14.4529 4.22626 14.8415 4.67628C14.945 4.79609 15.0359 4.90497 15.1134 5C15.0359 5.09503 14.945 5.20391 14.8415 5.32372C14.4529 5.77374 13.8912 6.37287 13.1994 6.97017C11.7941 8.18353 9.95564 9.3 8 9.3C6.04436 9.3 4.2059 8.18353 2.80062 6.97017C2.10884 6.37287 1.54711 5.77374 1.15846 5.32372Z" stroke="#90A0B7" stroke-width="1.4"/>
<circle cx="8" cy="5" r="2.3" stroke="#90A0B7" stroke-width="1.4"/>
</svg>
