<svg width="34" height="35" viewBox="0 0 34 35" fill="none" xmlns="http://www.w3.org/2000/svg">
<g clip-path="url(#clip0)">
<path d="M16.6362 27.3057H18.6678C18.6678 27.3057 19.282 27.2377 19.5944 26.8998C19.8834 26.5895 19.8728 26.0072 19.8728 26.0072C19.8728 26.0072 19.8324 23.2806 21.099 22.879C22.3465 22.4837 23.9489 25.5141 25.6469 26.6809C26.9305 27.5628 27.9059 27.3694 27.9059 27.3694L32.4474 27.3057C32.4474 27.3057 34.8233 27.159 33.697 25.291C33.6056 25.138 33.0403 23.9097 30.3201 21.385C27.4724 18.7413 27.8549 19.1706 31.2849 14.5993C33.3739 11.8154 34.2091 10.1153 33.9477 9.38845C33.6991 8.69565 32.1626 8.87841 32.1626 8.87841L27.0537 8.90817C27.0537 8.90817 26.6754 8.85716 26.3928 9.02505C26.1186 9.19081 25.9423 9.57334 25.9423 9.57334C25.9423 9.57334 25.1326 11.7283 24.053 13.5601C21.777 17.4258 20.8653 17.6298 20.4934 17.3897C19.6284 16.8308 19.8452 15.1413 19.8452 13.9427C19.8452 10.196 20.4126 8.63402 18.738 8.23024C18.1812 8.09636 17.7732 8.0071 16.3514 7.99222C14.528 7.9731 12.9831 7.9986 12.1096 8.42576C11.5273 8.71053 11.0789 9.34595 11.3531 9.38208C11.691 9.42671 12.456 9.58822 12.8619 10.1408C13.3868 10.8527 13.3677 12.4551 13.3677 12.4551C13.3677 12.4551 13.6695 16.8648 12.6643 17.413C11.9736 17.7892 11.0279 17.022 8.99839 13.5134C7.95918 11.7176 7.17288 9.7306 7.17288 9.7306C7.17288 9.7306 7.02199 9.36083 6.7521 9.16319C6.42482 8.92304 5.96579 8.84654 5.96579 8.84654L1.10768 8.87629C1.10768 8.87629 0.378752 8.89754 0.110983 9.21419C-0.127035 9.49684 0.0918562 10.0791 0.0918562 10.0791C0.0918562 10.0791 3.89589 18.9772 8.20145 23.4634C12.1521 27.5756 16.6362 27.3057 16.6362 27.3057Z" fill="#1E88E5"/>
</g>
<defs>
<clipPath id="clip0">
<rect width="34" height="34" fill="white" transform="translate(0 0.6875)"/>
</clipPath>
</defs>
</svg>
