<svg width="103" height="328" viewBox="0 0 103 328" fill="none" xmlns="http://www.w3.org/2000/svg">
<g opacity="0.2">
<path fill-rule="evenodd" clip-rule="evenodd" d="M103 327.435L0.173024 256.503L0 256.382L87.6608 0.279297C87.8369 0.358576 88.012 0.439758 88.186 0.522819L0.674793 256.174L103 326.757V327.435ZM94.3421 4.62851L9 254.005L9.24797 254.169L103 318.857V317.888L9.97458 253.704L95.0005 5.23896C94.7846 5.03175 94.5651 4.82823 94.3421 4.62851ZM99.9899 11.8456L18 251.033L18.3229 251.257L103 309.585V308.324L19.2685 250.65L100.66 13.2052C100.45 12.7446 100.226 12.2913 99.9899 11.8456ZM103 26.9093L27 248.658L27.3863 248.931L103 301.021V299.46L28.5624 248.176L103 30.9791V26.9093ZM103 50.7614L36 246.273L36.4727 246.595L103 292.437V290.584L37.8677 245.704L103 55.6246V50.7614ZM103 74.59L45 243.89L45.536 244.262L103 283.865V281.719L47.1499 243.228L103 80.2095V74.59ZM103 97.5055L54 240.573L54.6109 240.988L103 274.342V271.904L56.4434 239.813L103 103.895V97.5055ZM103 121.381L63 238.183L103 265.761V263.014L65.7484 237.33L103 128.549V121.381ZM103 145.257L72 235.805L103 257.182V254.145L75.0417 234.864L103 153.209V145.257ZM103 169.148L81 233.416L103 248.591V245.255L84.3463 232.388L103 177.888V169.148ZM103 193.05L90 231.036L90.9041 231.665L103 240.01V236.381L93.6278 229.915L103 202.527V193.05ZM103 216.964L99 228.655L103 231.416V227.494L102.932 227.447L103 227.248V216.964Z" fill="white"/>
</g>
</svg>
