<svg width="315" height="160" viewBox="0 0 315 160" fill="none" xmlns="http://www.w3.org/2000/svg">
<rect x="0.5" y="24.5" width="314" height="39" rx="4.5" fill="white" stroke="#CBCBCB"/>
<path d="M1.26001 1.20028H7.84001V2.65627H2.94001V5.23227H7.42001V6.68827H2.94001V9.54427H7.84001V11.0003H1.26001V1.20028Z" fill="#203752"/>
<path d="M9.59329 3.58027H11.0213V4.84027C11.1053 4.65361 11.2173 4.47627 11.3573 4.30827C11.4973 4.13094 11.656 3.97694 11.8333 3.84628C12.02 3.71561 12.2206 3.61294 12.4353 3.53827C12.65 3.46361 12.8786 3.42627 13.1213 3.42627C13.7373 3.42627 14.218 3.55694 14.5633 3.81828C14.9086 4.07961 15.1466 4.42027 15.2773 4.84027C15.492 4.42027 15.7906 4.07961 16.1733 3.81828C16.5653 3.55694 17.018 3.42627 17.5313 3.42627C18.306 3.42627 18.9033 3.65494 19.3233 4.11227C19.7433 4.56961 19.9533 5.27894 19.9533 6.24028V11.0003H18.4133V6.59027C18.4133 5.92761 18.2873 5.46094 18.0353 5.19027C17.7926 4.91027 17.4613 4.77028 17.0413 4.77028C16.5373 4.77028 16.1593 4.94294 15.9073 5.28827C15.6646 5.62427 15.5433 6.05827 15.5433 6.59027V11.0003H14.0033V6.59027C14.0033 5.92761 13.8773 5.46094 13.6253 5.19027C13.3826 4.91027 13.0513 4.77028 12.6313 4.77028C12.1273 4.77028 11.7493 4.94294 11.4973 5.28827C11.2546 5.62427 11.1333 6.05827 11.1333 6.59027V11.0003H9.59329V3.58027Z" fill="#203752"/>
<path d="M24.0133 11.1543C23.612 11.1543 23.2526 11.0983 22.9353 10.9863C22.6273 10.8649 22.366 10.7016 22.1513 10.4963C21.9366 10.2816 21.7733 10.0343 21.6613 9.75428C21.5493 9.47428 21.4933 9.16628 21.4933 8.83028C21.4933 8.09294 21.7126 7.54694 22.1513 7.19228C22.59 6.82828 23.234 6.64627 24.0833 6.64627H26.3933V6.24028C26.3933 5.68028 26.2673 5.29761 26.0153 5.09227C25.7726 4.87761 25.3853 4.77028 24.8533 4.77028C24.3773 4.77028 24.0273 4.84494 23.8033 4.99427C23.5793 5.14361 23.4486 5.34894 23.4113 5.61028H21.9133C21.932 5.29294 22.0113 5.00361 22.1513 4.74228C22.3006 4.47161 22.5013 4.23827 22.7533 4.04227C23.0146 3.84627 23.3273 3.69694 23.6913 3.59427C24.0553 3.48227 24.466 3.42627 24.9233 3.42627C25.3806 3.42627 25.7913 3.47761 26.1553 3.58027C26.5286 3.68294 26.846 3.84627 27.1073 4.07027C27.3686 4.28494 27.5693 4.56494 27.7093 4.91027C27.8586 5.25561 27.9333 5.67094 27.9333 6.15627V9.11028C27.9333 9.50228 27.938 9.84761 27.9473 10.1463C27.9566 10.4356 27.98 10.7203 28.0173 11.0003H26.6173C26.5893 10.7856 26.566 10.6036 26.5473 10.4543C26.538 10.3049 26.5333 10.1183 26.5333 9.89428C26.356 10.2396 26.048 10.5383 25.6093 10.7903C25.18 11.0329 24.648 11.1543 24.0133 11.1543ZM24.4333 9.81028C24.6946 9.81028 24.942 9.77761 25.1753 9.71227C25.418 9.63761 25.628 9.53494 25.8053 9.40427C25.9826 9.26427 26.1226 9.09628 26.2253 8.90028C26.3373 8.69494 26.3933 8.46161 26.3933 8.20028V7.79427H24.3633C23.9713 7.79427 23.654 7.87828 23.4113 8.04628C23.178 8.21428 23.0613 8.46161 23.0613 8.78827C23.0613 9.09627 23.1686 9.34361 23.3833 9.53027C23.6073 9.71694 23.9573 9.81028 24.4333 9.81028Z" fill="#203752"/>
<path d="M29.9677 3.58027H31.5077V11.0003H29.9677V3.58027ZM30.7377 2.74027C30.4483 2.74027 30.2103 2.65161 30.0237 2.47427C29.8463 2.28761 29.7577 2.04961 29.7577 1.76027C29.7577 1.47094 29.8463 1.23761 30.0237 1.06027C30.2103 0.873606 30.4483 0.780273 30.7377 0.780273C31.027 0.780273 31.2603 0.873606 31.4377 1.06027C31.6243 1.23761 31.7177 1.47094 31.7177 1.76027C31.7177 2.04961 31.6243 2.28761 31.4377 2.47427C31.2603 2.65161 31.027 2.74027 30.7377 2.74027Z" fill="#203752"/>
<path d="M35.9811 11.0703C35.5798 11.0703 35.2344 11.0283 34.9451 10.9443C34.6558 10.8603 34.4131 10.7249 34.2171 10.5383C34.0304 10.3423 33.8904 10.0903 33.7971 9.78228C33.7131 9.46494 33.6711 9.08227 33.6711 8.63427V1.20028H35.2111V8.52227C35.2111 8.97961 35.2858 9.29694 35.4351 9.47427C35.5844 9.64227 35.8598 9.72628 36.2611 9.72628C36.3638 9.72628 36.4524 9.72628 36.5271 9.72628C36.6018 9.71694 36.6764 9.70761 36.7511 9.69828V11.0283C36.6764 11.0469 36.5551 11.0563 36.3871 11.0563C36.2191 11.0656 36.0838 11.0703 35.9811 11.0703Z" fill="#203752"/>
<path d="M16.3999 39.1999H19.8999C20.4879 39.1999 20.9919 39.2653 21.4119 39.3959C21.8319 39.5266 22.1772 39.7086 22.4479 39.9419C22.7279 40.1659 22.9332 40.4413 23.0639 40.7679C23.1946 41.0853 23.2599 41.4353 23.2599 41.8179C23.2599 42.3219 23.1199 42.7559 22.8399 43.1199C22.5599 43.4746 22.2146 43.7313 21.8039 43.8899C22.3826 44.0206 22.8399 44.2866 23.1759 44.6879C23.5119 45.0799 23.6799 45.5933 23.6799 46.2279C23.6799 46.6293 23.6146 46.9979 23.4839 47.3339C23.3532 47.6699 23.1479 47.9639 22.8679 48.2159C22.5879 48.4586 22.2239 48.6499 21.7759 48.7899C21.3372 48.9299 20.8052 48.9999 20.1799 48.9999H16.3999V39.1999ZM20.1799 47.8519C20.5999 47.8519 20.9499 47.8146 21.2299 47.7399C21.5099 47.6559 21.7339 47.5439 21.9019 47.4039C22.0699 47.2546 22.1866 47.0773 22.2519 46.8719C22.3266 46.6666 22.3639 46.4379 22.3639 46.1859C22.3639 45.9339 22.3266 45.7053 22.2519 45.4999C22.1866 45.2853 22.0699 45.1079 21.9019 44.9679C21.7339 44.8186 21.5052 44.7066 21.2159 44.6319C20.9359 44.5479 20.5859 44.5059 20.1659 44.5059H17.7159V47.8519H20.1799ZM19.8999 43.4139C20.2919 43.4139 20.6186 43.3766 20.8799 43.3019C21.1412 43.2273 21.3512 43.1199 21.5099 42.9799C21.6686 42.8399 21.7806 42.6766 21.8459 42.4899C21.9112 42.3033 21.9439 42.0979 21.9439 41.8739C21.9439 41.6499 21.9112 41.4446 21.8459 41.2579C21.7806 41.0619 21.6686 40.8986 21.5099 40.7679C21.3512 40.6373 21.1412 40.5346 20.8799 40.4599C20.6186 40.3853 20.2919 40.3479 19.8999 40.3479H17.7159V43.4139H19.8999Z" fill="#A3A3A3"/>
<path d="M25.4988 41.5799H28.7188C29.6335 41.5799 30.3055 41.7713 30.7348 42.1539C31.1641 42.5273 31.3788 43.0126 31.3788 43.6099C31.3788 43.7686 31.3508 43.9319 31.2948 44.0999C31.2388 44.2586 31.1595 44.4079 31.0568 44.5479C30.9635 44.6879 30.8468 44.8093 30.7068 44.9119C30.5761 45.0146 30.4268 45.0939 30.2588 45.1499C30.7161 45.2619 31.0615 45.4766 31.2948 45.7939C31.5375 46.1019 31.6588 46.4659 31.6588 46.8859C31.6588 47.5299 31.4441 48.0433 31.0148 48.4259C30.5855 48.8086 29.9135 48.9999 28.9988 48.9999H25.4988V41.5799ZM28.9988 47.9079C29.5215 47.9079 29.8901 47.8146 30.1048 47.6279C30.3195 47.4413 30.4268 47.1753 30.4268 46.8299C30.4268 46.4753 30.3195 46.2046 30.1048 46.0179C29.8901 45.8219 29.5215 45.7239 28.9988 45.7239H26.7308V47.9079H28.9988ZM28.7188 44.7159C29.2508 44.7159 29.6195 44.6226 29.8248 44.4359C30.0395 44.2493 30.1468 43.9926 30.1468 43.6659C30.1468 43.3579 30.0395 43.1153 29.8248 42.9379C29.6195 42.7606 29.2508 42.6719 28.7188 42.6719H26.7308V44.7159H28.7188Z" fill="#A3A3A3"/>
<path d="M36.4948 49.1399C36.0188 49.1399 35.5662 49.0653 35.1368 48.9159C34.7075 48.7666 34.3295 48.5379 34.0028 48.2299C33.6762 47.9126 33.4148 47.5159 33.2188 47.0399C33.0228 46.5639 32.9248 46.0039 32.9248 45.3599V45.0799C32.9248 44.4639 33.0182 43.9319 33.2048 43.4839C33.3915 43.0266 33.6388 42.6486 33.9468 42.3499C34.2642 42.0419 34.6282 41.8133 35.0388 41.6639C35.4588 41.5146 35.8975 41.4399 36.3548 41.4399C37.4468 41.4399 38.2915 41.7386 38.8888 42.3359C39.4862 42.9333 39.7848 43.7779 39.7848 44.8699V45.6539H34.1568C34.1568 46.0926 34.2268 46.4613 34.3668 46.7599C34.5068 47.0586 34.6888 47.3013 34.9128 47.4879C35.1368 47.6746 35.3842 47.8099 35.6548 47.8939C35.9348 47.9779 36.2148 48.0199 36.4948 48.0199C37.0548 48.0199 37.4842 47.9266 37.7828 47.7399C38.0908 47.5533 38.3102 47.2966 38.4408 46.9699H39.6448C39.5702 47.3246 39.4348 47.6373 39.2388 47.9079C39.0522 48.1786 38.8188 48.4073 38.5388 48.5939C38.2682 48.7713 37.9555 48.9066 37.6008 48.9999C37.2555 49.0933 36.8868 49.1399 36.4948 49.1399ZM36.4248 42.5599C36.1355 42.5599 35.8555 42.6019 35.5848 42.6859C35.3142 42.7606 35.0715 42.8866 34.8568 43.0639C34.6515 43.2319 34.4835 43.4466 34.3528 43.7079C34.2222 43.9693 34.1568 44.2819 34.1568 44.6459H38.6228C38.6135 44.2633 38.5482 43.9413 38.4268 43.6799C38.3148 43.4093 38.1608 43.1946 37.9648 43.0359C37.7688 42.8679 37.5355 42.7466 37.2648 42.6719C37.0035 42.5973 36.7235 42.5599 36.4248 42.5599Z" fill="#A3A3A3"/>
<path d="M40.5592 47.9079H41.4692C41.5719 47.7679 41.6652 47.5533 41.7492 47.2639C41.8332 46.9746 41.9079 46.6339 41.9732 46.2419C42.0385 45.8499 42.0852 45.4253 42.1132 44.9679C42.1505 44.5013 42.1692 44.0253 42.1692 43.5399V41.5799H47.3492V47.9079H48.3992V50.7499H47.2232V48.9999H41.7352V50.7499H40.5592V47.9079ZM46.1172 47.9079V42.6719H43.3732V43.8199C43.3732 44.2119 43.3592 44.6039 43.3312 44.9959C43.3032 45.3786 43.2612 45.7473 43.2052 46.1019C43.1492 46.4473 43.0792 46.7786 42.9952 47.0959C42.9205 47.4039 42.8319 47.6746 42.7292 47.9079H46.1172Z" fill="#A3A3A3"/>
<path d="M49.8758 41.5799H51.1078V47.1799L54.9438 41.5799H56.1758V48.9999H54.9438V43.3999L51.1078 48.9999H49.8758V41.5799Z" fill="#A3A3A3"/>
<path d="M60.1147 42.6719H57.5807V41.5799H63.8807V42.6719H61.3467V48.9999H60.1147V42.6719Z" fill="#A3A3A3"/>
<path d="M68.2272 49.1399C67.7512 49.1399 67.2986 49.0653 66.8692 48.9159C66.4399 48.7666 66.0619 48.5379 65.7352 48.2299C65.4086 47.9126 65.1472 47.5159 64.9512 47.0399C64.7552 46.5639 64.6572 46.0039 64.6572 45.3599V45.0799C64.6572 44.4639 64.7506 43.9319 64.9372 43.4839C65.1239 43.0266 65.3712 42.6486 65.6792 42.3499C65.9966 42.0419 66.3606 41.8133 66.7712 41.6639C67.1912 41.5146 67.6299 41.4399 68.0872 41.4399C69.1792 41.4399 70.0239 41.7386 70.6212 42.3359C71.2186 42.9333 71.5172 43.7779 71.5172 44.8699V45.6539H65.8892C65.8892 46.0926 65.9592 46.4613 66.0992 46.7599C66.2392 47.0586 66.4212 47.3013 66.6452 47.4879C66.8692 47.6746 67.1166 47.8099 67.3872 47.8939C67.6672 47.9779 67.9472 48.0199 68.2272 48.0199C68.7872 48.0199 69.2166 47.9266 69.5152 47.7399C69.8232 47.5533 70.0426 47.2966 70.1732 46.9699H71.3772C71.3026 47.3246 71.1672 47.6373 70.9712 47.9079C70.7846 48.1786 70.5512 48.4073 70.2712 48.5939C70.0006 48.7713 69.6879 48.9066 69.3332 48.9999C68.9879 49.0933 68.6192 49.1399 68.2272 49.1399ZM68.1572 42.5599C67.8679 42.5599 67.5879 42.6019 67.3172 42.6859C67.0466 42.7606 66.8039 42.8866 66.5892 43.0639C66.3839 43.2319 66.2159 43.4466 66.0852 43.7079C65.9546 43.9693 65.8892 44.2819 65.8892 44.6459H70.3552C70.3459 44.2633 70.2806 43.9413 70.1592 43.6799C70.0472 43.4093 69.8932 43.1946 69.6972 43.0359C69.5012 42.8679 69.2679 42.7466 68.9972 42.6719C68.7359 42.5973 68.4559 42.5599 68.1572 42.5599Z" fill="#A3A3A3"/>
<path d="M77.0483 39.1999H83.3483V40.3479H78.3643V43.3859H82.9283V44.5339H78.3643V47.8519H83.3483V48.9999H77.0483V39.1999Z" fill="#A3A3A3"/>
<path d="M85.3133 41.5799H86.4613V42.9799C86.6199 42.5226 86.8906 42.1539 87.2733 41.8739C87.6653 41.5846 88.1086 41.4399 88.6033 41.4399C89.2473 41.4399 89.7419 41.5799 90.0873 41.8599C90.4326 42.1306 90.6706 42.4806 90.8013 42.9099C91.0439 42.4526 91.3519 42.0933 91.7253 41.8319C92.1079 41.5706 92.5653 41.4399 93.0973 41.4399C93.8626 41.4399 94.4599 41.6733 94.8893 42.1399C95.3186 42.5973 95.5333 43.3206 95.5333 44.3099V48.9999H94.3013V44.5899C94.3013 43.8526 94.1706 43.3299 93.9093 43.0219C93.6573 42.7139 93.2699 42.5599 92.7473 42.5599C92.5233 42.5599 92.3086 42.6066 92.1033 42.6999C91.8979 42.7933 91.7159 42.9286 91.5573 43.1059C91.3986 43.2833 91.2726 43.4979 91.1793 43.7499C91.0859 44.0019 91.0393 44.2819 91.0393 44.5899V48.9999H89.8073V44.5899C89.8073 43.8526 89.6766 43.3299 89.4153 43.0219C89.1539 42.7139 88.7666 42.5599 88.2533 42.5599C88.0293 42.5599 87.8146 42.6066 87.6093 42.6999C87.4039 42.7933 87.2219 42.9286 87.0633 43.1059C86.9046 43.2833 86.7786 43.4979 86.6853 43.7499C86.5919 44.0019 86.5453 44.2819 86.5453 44.5899V48.9999H85.3133V41.5799Z" fill="#A3A3A3"/>
<path d="M99.814 49.1399C99.4033 49.1399 99.0393 49.0839 98.722 48.9719C98.414 48.8506 98.1526 48.6873 97.938 48.4819C97.7233 48.2766 97.56 48.0339 97.448 47.7539C97.336 47.4739 97.28 47.1659 97.28 46.8299C97.28 46.0926 97.4946 45.5606 97.924 45.2339C98.3626 44.9073 98.988 44.7439 99.8 44.7439H102.208V44.2399C102.208 43.6053 102.063 43.1666 101.774 42.9239C101.494 42.6813 101.069 42.5599 100.5 42.5599C99.968 42.5599 99.5806 42.6626 99.338 42.8679C99.0953 43.0639 98.96 43.2879 98.932 43.5399H97.7C97.7186 43.2413 97.798 42.9659 97.938 42.7139C98.0873 42.4526 98.2833 42.2286 98.526 42.0419C98.778 41.8553 99.0766 41.7106 99.422 41.6079C99.7673 41.4959 100.15 41.4399 100.57 41.4399C101.447 41.4399 102.143 41.6499 102.656 42.0699C103.179 42.4806 103.44 43.1573 103.44 44.0999V47.1099C103.44 47.5019 103.44 47.8473 103.44 48.1459C103.449 48.4353 103.473 48.7199 103.51 48.9999H102.432C102.404 48.7853 102.385 48.5846 102.376 48.3979C102.367 48.2019 102.362 47.9826 102.362 47.7399C102.166 48.1319 101.849 48.4633 101.41 48.7339C100.971 49.0046 100.439 49.1399 99.814 49.1399ZM100.08 48.0199C100.369 48.0199 100.64 47.9826 100.892 47.9079C101.153 47.8239 101.382 47.7073 101.578 47.5579C101.774 47.3993 101.928 47.2079 102.04 46.9839C102.152 46.7599 102.208 46.4986 102.208 46.1999V45.6959H100.01C99.5526 45.6959 99.1933 45.7893 98.932 45.9759C98.6706 46.1533 98.54 46.4379 98.54 46.8299C98.54 47.1753 98.6613 47.4599 98.904 47.6839C99.156 47.9079 99.548 48.0199 100.08 48.0199Z" fill="#A3A3A3"/>
<path d="M105.756 41.5799H106.988V48.9999H105.756V41.5799ZM106.372 40.5999C106.129 40.5999 105.929 40.5206 105.77 40.3619C105.611 40.2033 105.532 40.0026 105.532 39.7599C105.532 39.5173 105.611 39.3166 105.77 39.1579C105.929 38.9993 106.129 38.9199 106.372 38.9199C106.615 38.9199 106.815 38.9993 106.974 39.1579C107.133 39.3166 107.212 39.5173 107.212 39.7599C107.212 40.0026 107.133 40.2033 106.974 40.3619C106.815 40.5206 106.615 40.5999 106.372 40.5999Z" fill="#A3A3A3"/>
<path d="M111.602 49.0699C110.827 49.0699 110.272 48.8833 109.936 48.5099C109.6 48.1366 109.432 47.5299 109.432 46.6899V39.1999H110.664V46.6899C110.664 47.1753 110.743 47.5066 110.902 47.6839C111.061 47.8613 111.341 47.9499 111.742 47.9499C111.845 47.9499 111.933 47.9499 112.008 47.9499C112.083 47.9406 112.157 47.9313 112.232 47.9219V49.0139C112.157 49.0326 112.05 49.0466 111.91 49.0559C111.779 49.0653 111.677 49.0699 111.602 49.0699Z" fill="#A3A3A3"/>
<rect x="0.5" y="120.5" width="314" height="39" rx="4.5" fill="white" stroke="#CBCBCB"/>
<path d="M286.158 140.324C286.055 140.204 285.964 140.095 285.887 140C285.964 139.905 286.055 139.796 286.158 139.676C286.547 139.226 287.109 138.627 287.801 138.03C289.206 136.816 291.044 135.7 293 135.7C294.956 135.7 296.794 136.816 298.199 138.03C298.891 138.627 299.453 139.226 299.842 139.676C299.945 139.796 300.036 139.905 300.113 140C300.036 140.095 299.945 140.204 299.842 140.324C299.453 140.774 298.891 141.373 298.199 141.97C296.794 143.184 294.956 144.3 293 144.3C291.044 144.3 289.206 143.184 287.801 141.97C287.109 141.373 286.547 140.774 286.158 140.324Z" stroke="#90A0B7" stroke-width="1.4"/>
<circle cx="293" cy="140" r="2.3" stroke="#90A0B7" stroke-width="1.4"/>
<path d="M286.158 140.324C286.055 140.204 285.964 140.095 285.887 140C285.964 139.905 286.055 139.796 286.158 139.676C286.547 139.226 287.109 138.627 287.801 138.03C289.206 136.816 291.044 135.7 293 135.7C294.956 135.7 296.794 136.816 298.199 138.03C298.891 138.627 299.453 139.226 299.842 139.676C299.945 139.796 300.036 139.905 300.113 140C300.036 140.095 299.945 140.204 299.842 140.324C299.453 140.774 298.891 141.373 298.199 141.97C296.794 143.184 294.956 144.3 293 144.3C291.044 144.3 289.206 143.184 287.801 141.97C287.109 141.373 286.547 140.774 286.158 140.324Z" stroke="#CBCBCB" stroke-width="1.4"/>
<circle cx="293" cy="140" r="2.3" stroke="#CBCBCB" stroke-width="1.4"/>
<path d="M300.495 133.495C300.768 133.222 300.768 132.778 300.495 132.505C300.222 132.232 299.778 132.232 299.505 132.505L300.495 133.495ZM285.505 146.505C285.232 146.778 285.232 147.222 285.505 147.495C285.778 147.768 286.222 147.768 286.495 147.495L285.505 146.505ZM299.505 132.505L285.505 146.505L286.495 147.495L300.495 133.495L299.505 132.505Z" fill="#CBCBCB"/>
<path d="M1.26001 97.2002H9.24001V107H7.56001V98.6562H2.94001V107H1.26001V97.2002Z" fill="#203752"/>
<path d="M13.65 107.154C13.2487 107.154 12.8893 107.098 12.572 106.986C12.264 106.865 12.0027 106.702 11.788 106.496C11.5733 106.282 11.41 106.034 11.298 105.754C11.186 105.474 11.13 105.166 11.13 104.83C11.13 104.093 11.3493 103.547 11.788 103.192C12.2267 102.828 12.8707 102.646 13.72 102.646H16.03V102.24C16.03 101.68 15.904 101.298 15.652 101.092C15.4093 100.878 15.022 100.77 14.49 100.77C14.014 100.77 13.664 100.845 13.44 100.994C13.216 101.144 13.0853 101.349 13.048 101.61H11.55C11.5687 101.293 11.648 101.004 11.788 100.742C11.9373 100.472 12.138 100.238 12.39 100.042C12.6513 99.8462 12.964 99.6969 13.328 99.5942C13.692 99.4822 14.1027 99.4262 14.56 99.4262C15.0173 99.4262 15.428 99.4775 15.792 99.5802C16.1653 99.6829 16.4827 99.8462 16.744 100.07C17.0053 100.285 17.206 100.565 17.346 100.91C17.4953 101.256 17.57 101.671 17.57 102.156V105.11C17.57 105.502 17.5747 105.848 17.584 106.146C17.5933 106.436 17.6167 106.72 17.654 107H16.254C16.226 106.786 16.2027 106.604 16.184 106.454C16.1747 106.305 16.17 106.118 16.17 105.894C15.9927 106.24 15.6847 106.538 15.246 106.79C14.8167 107.033 14.2847 107.154 13.65 107.154ZM14.07 105.81C14.3313 105.81 14.5787 105.778 14.812 105.712C15.0547 105.638 15.2647 105.535 15.442 105.404C15.6193 105.264 15.7593 105.096 15.862 104.9C15.974 104.695 16.03 104.462 16.03 104.2V103.794H14C13.608 103.794 13.2907 103.878 13.048 104.046C12.8147 104.214 12.698 104.462 12.698 104.788C12.698 105.096 12.8053 105.344 13.02 105.53C13.244 105.717 13.594 105.81 14.07 105.81Z" fill="#203752"/>
<path d="M19.4644 99.5802H20.8924V100.826C21.1164 100.397 21.4477 100.056 21.8864 99.8042C22.3344 99.5522 22.8384 99.4262 23.3984 99.4262C24.3691 99.4262 25.1344 99.7295 25.6944 100.336C26.2544 100.943 26.5344 101.858 26.5344 103.08V103.36C26.5344 103.995 26.4597 104.55 26.3104 105.026C26.1611 105.502 25.9464 105.899 25.6664 106.216C25.3957 106.524 25.0691 106.758 24.6864 106.916C24.3037 107.075 23.8744 107.154 23.3984 107.154C22.8664 107.154 22.3811 107.038 21.9424 106.804C21.5037 106.571 21.1911 106.244 21.0044 105.824V109.8H19.4644V99.5802ZM23.0344 105.81C23.6131 105.81 24.0797 105.61 24.4344 105.208C24.7891 104.807 24.9664 104.191 24.9664 103.36V103.08C24.9664 102.296 24.7937 101.718 24.4484 101.344C24.1031 100.962 23.6317 100.77 23.0344 100.77C22.7731 100.77 22.5211 100.812 22.2784 100.896C22.0357 100.98 21.8164 101.106 21.6204 101.274C21.4337 101.433 21.2844 101.638 21.1724 101.89C21.0604 102.133 21.0044 102.413 21.0044 102.73V103.71C21.0044 104.065 21.0604 104.373 21.1724 104.634C21.2844 104.896 21.4337 105.115 21.6204 105.292C21.8071 105.47 22.0217 105.6 22.2644 105.684C22.5071 105.768 22.7637 105.81 23.0344 105.81Z" fill="#203752"/>
<path d="M31.2977 107.154C30.7843 107.154 30.3037 107.075 29.8557 106.916C29.417 106.748 29.0343 106.506 28.7077 106.188C28.381 105.871 28.1243 105.479 27.9377 105.012C27.751 104.536 27.6577 103.986 27.6577 103.36V103.08C27.6577 102.492 27.751 101.974 27.9377 101.526C28.1243 101.069 28.381 100.686 28.7077 100.378C29.0343 100.061 29.417 99.8229 29.8557 99.6642C30.3037 99.5055 30.7843 99.4262 31.2977 99.4262C31.811 99.4262 32.287 99.5055 32.7257 99.6642C33.1737 99.8229 33.561 100.061 33.8877 100.378C34.2143 100.686 34.471 101.069 34.6577 101.526C34.8443 101.974 34.9377 102.492 34.9377 103.08V103.36C34.9377 103.986 34.8443 104.536 34.6577 105.012C34.471 105.479 34.2143 105.871 33.8877 106.188C33.561 106.506 33.1737 106.748 32.7257 106.916C32.287 107.075 31.811 107.154 31.2977 107.154ZM31.2977 105.81C31.5683 105.81 31.825 105.764 32.0677 105.67C32.3197 105.577 32.539 105.432 32.7257 105.236C32.9217 105.04 33.0757 104.788 33.1877 104.48C33.309 104.172 33.3697 103.799 33.3697 103.36V103.08C33.3697 102.679 33.309 102.334 33.1877 102.044C33.0757 101.755 32.9217 101.517 32.7257 101.33C32.539 101.144 32.3197 101.004 32.0677 100.91C31.825 100.817 31.5683 100.77 31.2977 100.77C31.027 100.77 30.7657 100.817 30.5137 100.91C30.271 101.004 30.0517 101.144 29.8557 101.33C29.669 101.517 29.515 101.755 29.3937 102.044C29.2817 102.334 29.2257 102.679 29.2257 103.08V103.36C29.2257 103.799 29.2817 104.172 29.3937 104.48C29.515 104.788 29.669 105.04 29.8557 105.236C30.0517 105.432 30.271 105.577 30.5137 105.67C30.7657 105.764 31.027 105.81 31.2977 105.81Z" fill="#203752"/>
<path d="M36.1955 107.154C36.1208 107.154 36.0368 107.15 35.9435 107.14C35.8595 107.14 35.7801 107.131 35.7055 107.112V105.656C35.7521 105.666 35.8221 105.67 35.9155 105.67C36.1115 105.67 36.2795 105.614 36.4195 105.502C36.5595 105.381 36.6715 105.176 36.7555 104.886C36.8488 104.588 36.9188 104.191 36.9655 103.696C37.0121 103.202 37.0355 102.576 37.0355 101.82V99.5802H42.6355V107H41.0955V100.896H38.5195V102.1C38.5195 103.099 38.4681 103.925 38.3655 104.578C38.2721 105.222 38.1275 105.736 37.9315 106.118C37.7355 106.501 37.4928 106.772 37.2035 106.93C36.9141 107.08 36.5781 107.154 36.1955 107.154Z" fill="#203752"/>
<path d="M44.7333 99.5802H46.2733V102.184H47.9533C48.9053 102.184 49.61 102.39 50.0673 102.8C50.5246 103.202 50.7533 103.799 50.7533 104.592C50.7533 105.339 50.5293 105.927 50.0813 106.356C49.6333 106.786 48.924 107 47.9533 107H44.7333V99.5802ZM47.8133 105.684C48.3266 105.684 48.686 105.596 48.8913 105.418C49.106 105.232 49.2133 104.956 49.2133 104.592C49.2133 104.228 49.106 103.958 48.8913 103.78C48.686 103.594 48.3266 103.5 47.8133 103.5H46.2733V105.684H47.8133Z" fill="#203752"/>
<path d="M16.3999 135.2H19.8999C20.4879 135.2 20.9919 135.266 21.4119 135.396C21.8319 135.527 22.1772 135.709 22.4479 135.942C22.7279 136.166 22.9332 136.442 23.0639 136.768C23.1946 137.086 23.2599 137.436 23.2599 137.818C23.2599 138.322 23.1199 138.756 22.8399 139.12C22.5599 139.475 22.2146 139.732 21.8039 139.89C22.3826 140.021 22.8399 140.287 23.1759 140.688C23.5119 141.08 23.6799 141.594 23.6799 142.228C23.6799 142.63 23.6146 142.998 23.4839 143.334C23.3532 143.67 23.1479 143.964 22.8679 144.216C22.5879 144.459 22.2239 144.65 21.7759 144.79C21.3372 144.93 20.8052 145 20.1799 145H16.3999V135.2ZM20.1799 143.852C20.5999 143.852 20.9499 143.815 21.2299 143.74C21.5099 143.656 21.7339 143.544 21.9019 143.404C22.0699 143.255 22.1866 143.078 22.2519 142.872C22.3266 142.667 22.3639 142.438 22.3639 142.186C22.3639 141.934 22.3266 141.706 22.2519 141.5C22.1866 141.286 22.0699 141.108 21.9019 140.968C21.7339 140.819 21.5052 140.707 21.2159 140.632C20.9359 140.548 20.5859 140.506 20.1659 140.506H17.7159V143.852H20.1799ZM19.8999 139.414C20.2919 139.414 20.6186 139.377 20.8799 139.302C21.1412 139.228 21.3512 139.12 21.5099 138.98C21.6686 138.84 21.7806 138.677 21.8459 138.49C21.9112 138.304 21.9439 138.098 21.9439 137.874C21.9439 137.65 21.9112 137.445 21.8459 137.258C21.7806 137.062 21.6686 136.899 21.5099 136.768C21.3512 136.638 21.1412 136.535 20.8799 136.46C20.6186 136.386 20.2919 136.348 19.8999 136.348H17.7159V139.414H19.8999Z" fill="#A3A3A3"/>
<path d="M25.4988 137.58H28.7188C29.6335 137.58 30.3055 137.772 30.7348 138.154C31.1641 138.528 31.3788 139.013 31.3788 139.61C31.3788 139.769 31.3508 139.932 31.2948 140.1C31.2388 140.259 31.1595 140.408 31.0568 140.548C30.9635 140.688 30.8468 140.81 30.7068 140.912C30.5761 141.015 30.4268 141.094 30.2588 141.15C30.7161 141.262 31.0615 141.477 31.2948 141.794C31.5375 142.102 31.6588 142.466 31.6588 142.886C31.6588 143.53 31.4441 144.044 31.0148 144.426C30.5855 144.809 29.9135 145 28.9988 145H25.4988V137.58ZM28.9988 143.908C29.5215 143.908 29.8901 143.815 30.1048 143.628C30.3195 143.442 30.4268 143.176 30.4268 142.83C30.4268 142.476 30.3195 142.205 30.1048 142.018C29.8901 141.822 29.5215 141.724 28.9988 141.724H26.7308V143.908H28.9988ZM28.7188 140.716C29.2508 140.716 29.6195 140.623 29.8248 140.436C30.0395 140.25 30.1468 139.993 30.1468 139.666C30.1468 139.358 30.0395 139.116 29.8248 138.938C29.6195 138.761 29.2508 138.672 28.7188 138.672H26.7308V140.716H28.7188Z" fill="#A3A3A3"/>
<path d="M36.4948 145.14C36.0188 145.14 35.5662 145.066 35.1368 144.916C34.7075 144.767 34.3295 144.538 34.0028 144.23C33.6762 143.913 33.4148 143.516 33.2188 143.04C33.0228 142.564 32.9248 142.004 32.9248 141.36V141.08C32.9248 140.464 33.0182 139.932 33.2048 139.484C33.3915 139.027 33.6388 138.649 33.9468 138.35C34.2642 138.042 34.6282 137.814 35.0388 137.664C35.4588 137.515 35.8975 137.44 36.3548 137.44C37.4468 137.44 38.2915 137.739 38.8888 138.336C39.4862 138.934 39.7848 139.778 39.7848 140.87V141.654H34.1568C34.1568 142.093 34.2268 142.462 34.3668 142.76C34.5068 143.059 34.6888 143.302 34.9128 143.488C35.1368 143.675 35.3842 143.81 35.6548 143.894C35.9348 143.978 36.2148 144.02 36.4948 144.02C37.0548 144.02 37.4842 143.927 37.7828 143.74C38.0908 143.554 38.3102 143.297 38.4408 142.97H39.6448C39.5702 143.325 39.4348 143.638 39.2388 143.908C39.0522 144.179 38.8188 144.408 38.5388 144.594C38.2682 144.772 37.9555 144.907 37.6008 145C37.2555 145.094 36.8868 145.14 36.4948 145.14ZM36.4248 138.56C36.1355 138.56 35.8555 138.602 35.5848 138.686C35.3142 138.761 35.0715 138.887 34.8568 139.064C34.6515 139.232 34.4835 139.447 34.3528 139.708C34.2222 139.97 34.1568 140.282 34.1568 140.646H38.6228C38.6135 140.264 38.5482 139.942 38.4268 139.68C38.3148 139.41 38.1608 139.195 37.9648 139.036C37.7688 138.868 37.5355 138.747 37.2648 138.672C37.0035 138.598 36.7235 138.56 36.4248 138.56Z" fill="#A3A3A3"/>
<path d="M40.5592 143.908H41.4692C41.5719 143.768 41.6652 143.554 41.7492 143.264C41.8332 142.975 41.9079 142.634 41.9732 142.242C42.0385 141.85 42.0852 141.426 42.1132 140.968C42.1505 140.502 42.1692 140.026 42.1692 139.54V137.58H47.3492V143.908H48.3992V146.75H47.2232V145H41.7352V146.75H40.5592V143.908ZM46.1172 143.908V138.672H43.3732V139.82C43.3732 140.212 43.3592 140.604 43.3312 140.996C43.3032 141.379 43.2612 141.748 43.2052 142.102C43.1492 142.448 43.0792 142.779 42.9952 143.096C42.9205 143.404 42.8319 143.675 42.7292 143.908H46.1172Z" fill="#A3A3A3"/>
<path d="M49.8758 137.58H51.1078V143.18L54.9438 137.58H56.1758V145H54.9438V139.4L51.1078 145H49.8758V137.58Z" fill="#A3A3A3"/>
<path d="M60.1147 138.672H57.5807V137.58H63.8807V138.672H61.3467V145H60.1147V138.672Z" fill="#A3A3A3"/>
<path d="M68.2272 145.14C67.7512 145.14 67.2986 145.066 66.8692 144.916C66.4399 144.767 66.0619 144.538 65.7352 144.23C65.4086 143.913 65.1472 143.516 64.9512 143.04C64.7552 142.564 64.6572 142.004 64.6572 141.36V141.08C64.6572 140.464 64.7506 139.932 64.9372 139.484C65.1239 139.027 65.3712 138.649 65.6792 138.35C65.9966 138.042 66.3606 137.814 66.7712 137.664C67.1912 137.515 67.6299 137.44 68.0872 137.44C69.1792 137.44 70.0239 137.739 70.6212 138.336C71.2186 138.934 71.5172 139.778 71.5172 140.87V141.654H65.8892C65.8892 142.093 65.9592 142.462 66.0992 142.76C66.2392 143.059 66.4212 143.302 66.6452 143.488C66.8692 143.675 67.1166 143.81 67.3872 143.894C67.6672 143.978 67.9472 144.02 68.2272 144.02C68.7872 144.02 69.2166 143.927 69.5152 143.74C69.8232 143.554 70.0426 143.297 70.1732 142.97H71.3772C71.3026 143.325 71.1672 143.638 70.9712 143.908C70.7846 144.179 70.5512 144.408 70.2712 144.594C70.0006 144.772 69.6879 144.907 69.3332 145C68.9879 145.094 68.6192 145.14 68.2272 145.14ZM68.1572 138.56C67.8679 138.56 67.5879 138.602 67.3172 138.686C67.0466 138.761 66.8039 138.887 66.5892 139.064C66.3839 139.232 66.2159 139.447 66.0852 139.708C65.9546 139.97 65.8892 140.282 65.8892 140.646H70.3552C70.3459 140.264 70.2806 139.942 70.1592 139.68C70.0472 139.41 69.8932 139.195 69.6972 139.036C69.5012 138.868 69.2679 138.747 68.9972 138.672C68.7359 138.598 68.4559 138.56 68.1572 138.56Z" fill="#A3A3A3"/>
<path d="M76.7683 137.58H82.9283V145H81.6963V138.672H78.0003V145H76.7683V137.58Z" fill="#A3A3A3"/>
<path d="M87.2769 145.14C86.8662 145.14 86.5022 145.084 86.1849 144.972C85.8769 144.851 85.6155 144.688 85.4009 144.482C85.1862 144.277 85.0229 144.034 84.9109 143.754C84.7989 143.474 84.7429 143.166 84.7429 142.83C84.7429 142.093 84.9575 141.561 85.3869 141.234C85.8255 140.908 86.4509 140.744 87.2629 140.744H89.6709V140.24C89.6709 139.606 89.5262 139.167 89.2369 138.924C88.9569 138.682 88.5322 138.56 87.9629 138.56C87.4309 138.56 87.0435 138.663 86.8009 138.868C86.5582 139.064 86.4229 139.288 86.3949 139.54H85.1629C85.1815 139.242 85.2609 138.966 85.4009 138.714C85.5502 138.453 85.7462 138.229 85.9889 138.042C86.2409 137.856 86.5395 137.711 86.8849 137.608C87.2302 137.496 87.6129 137.44 88.0329 137.44C88.9102 137.44 89.6055 137.65 90.1189 138.07C90.6415 138.481 90.9029 139.158 90.9029 140.1V143.11C90.9029 143.502 90.9029 143.848 90.9029 144.146C90.9122 144.436 90.9355 144.72 90.9729 145H89.8949C89.8669 144.786 89.8482 144.585 89.8389 144.398C89.8295 144.202 89.8249 143.983 89.8249 143.74C89.6289 144.132 89.3115 144.464 88.8729 144.734C88.4342 145.005 87.9022 145.14 87.2769 145.14ZM87.5429 144.02C87.8322 144.02 88.1029 143.983 88.3549 143.908C88.6162 143.824 88.8449 143.708 89.0409 143.558C89.2369 143.4 89.3909 143.208 89.5029 142.984C89.6149 142.76 89.6709 142.499 89.6709 142.2V141.696H87.4729C87.0155 141.696 86.6562 141.79 86.3949 141.976C86.1335 142.154 86.0029 142.438 86.0029 142.83C86.0029 143.176 86.1242 143.46 86.3669 143.684C86.6189 143.908 87.0109 144.02 87.5429 144.02Z" fill="#A3A3A3"/>
<path d="M93.0789 137.58H94.2269V138.98C94.4789 138.486 94.8289 138.108 95.2769 137.846C95.7342 137.576 96.2616 137.44 96.8589 137.44C97.7922 137.44 98.5389 137.748 99.0989 138.364C99.6589 138.971 99.9389 139.876 99.9389 141.08V141.36C99.9389 141.995 99.8642 142.55 99.7149 143.026C99.5655 143.493 99.3556 143.885 99.0849 144.202C98.8142 144.51 98.4876 144.744 98.1049 144.902C97.7316 145.061 97.3162 145.14 96.8589 145.14C96.2242 145.14 95.6922 145 95.2629 144.72C94.8429 144.44 94.5255 144.09 94.3109 143.67V147.8H93.0789V137.58ZM96.5789 144.048C96.8776 144.048 97.1576 143.992 97.4189 143.88C97.6802 143.759 97.9042 143.586 98.0909 143.362C98.2869 143.138 98.4362 142.858 98.5389 142.522C98.6509 142.186 98.7069 141.799 98.7069 141.36V141.08C98.7069 140.679 98.6509 140.32 98.5389 140.002C98.4362 139.685 98.2869 139.419 98.0909 139.204C97.9042 138.98 97.6802 138.812 97.4189 138.7C97.1576 138.588 96.8776 138.532 96.5789 138.532C96.2429 138.532 95.9349 138.588 95.6549 138.7C95.3749 138.803 95.1369 138.952 94.9409 139.148C94.7449 139.335 94.5909 139.559 94.4789 139.82C94.3669 140.082 94.3109 140.362 94.3109 140.66V141.78C94.3109 142.116 94.3669 142.424 94.4789 142.704C94.5909 142.984 94.7449 143.222 94.9409 143.418C95.1369 143.614 95.3749 143.768 95.6549 143.88C95.9349 143.992 96.2429 144.048 96.5789 144.048Z" fill="#A3A3A3"/>
<path d="M104.772 145.14C104.296 145.14 103.844 145.066 103.414 144.916C102.985 144.758 102.607 144.524 102.28 144.216C101.953 143.899 101.692 143.502 101.496 143.026C101.3 142.55 101.202 141.995 101.202 141.36V141.08C101.202 140.483 101.3 139.956 101.496 139.498C101.692 139.041 101.953 138.663 102.28 138.364C102.607 138.056 102.985 137.828 103.414 137.678C103.844 137.52 104.296 137.44 104.772 137.44C105.248 137.44 105.701 137.52 106.13 137.678C106.559 137.828 106.938 138.056 107.264 138.364C107.591 138.663 107.852 139.041 108.048 139.498C108.244 139.956 108.342 140.483 108.342 141.08V141.36C108.342 141.995 108.244 142.55 108.048 143.026C107.852 143.502 107.591 143.899 107.264 144.216C106.938 144.524 106.559 144.758 106.13 144.916C105.701 145.066 105.248 145.14 104.772 145.14ZM104.772 144.02C105.052 144.02 105.332 143.974 105.612 143.88C105.892 143.778 106.139 143.624 106.354 143.418C106.569 143.204 106.742 142.928 106.872 142.592C107.012 142.256 107.082 141.846 107.082 141.36V141.08C107.082 140.632 107.012 140.25 106.872 139.932C106.742 139.615 106.569 139.354 106.354 139.148C106.139 138.943 105.892 138.794 105.612 138.7C105.332 138.607 105.052 138.56 104.772 138.56C104.492 138.56 104.212 138.607 103.932 138.7C103.652 138.794 103.405 138.943 103.19 139.148C102.976 139.354 102.798 139.615 102.658 139.932C102.527 140.25 102.462 140.632 102.462 141.08V141.36C102.462 141.846 102.527 142.256 102.658 142.592C102.798 142.928 102.976 143.204 103.19 143.418C103.405 143.624 103.652 143.778 103.932 143.88C104.212 143.974 104.492 144.02 104.772 144.02Z" fill="#A3A3A3"/>
<path d="M109.6 145.14C109.46 145.14 109.32 145.126 109.18 145.098V143.866C109.227 143.876 109.297 143.88 109.39 143.88C109.595 143.88 109.773 143.815 109.922 143.684C110.081 143.554 110.207 143.325 110.3 142.998C110.393 142.672 110.463 142.228 110.51 141.668C110.557 141.108 110.58 140.399 110.58 139.54V137.58H115.9V145H114.668V138.672H111.812V139.82C111.812 140.856 111.765 141.715 111.672 142.396C111.579 143.078 111.439 143.624 111.252 144.034C111.075 144.436 110.846 144.72 110.566 144.888C110.286 145.056 109.964 145.14 109.6 145.14Z" fill="#A3A3A3"/>
<path d="M118.139 137.58H119.371V140.38H121.149C122.083 140.38 122.769 140.586 123.207 140.996C123.655 141.407 123.879 141.976 123.879 142.704C123.879 143.414 123.655 143.974 123.207 144.384C122.769 144.795 122.083 145 121.149 145H118.139V137.58ZM121.079 143.908C121.658 143.908 122.064 143.806 122.297 143.6C122.531 143.395 122.647 143.092 122.647 142.69C122.647 142.289 122.531 141.986 122.297 141.78C122.064 141.575 121.658 141.472 121.079 141.472H119.371V143.908H121.079Z" fill="#A3A3A3"/>
<path d="M208.494 107.14C207.915 107.14 207.402 107.07 206.954 106.93C206.506 106.78 206.123 106.575 205.806 106.314C205.489 106.052 205.237 105.744 205.05 105.39C204.863 105.026 204.751 104.629 204.714 104.2H206.03C206.105 104.732 206.357 105.161 206.786 105.488C207.215 105.805 207.785 105.964 208.494 105.964C209.362 105.964 209.987 105.81 210.37 105.502C210.762 105.194 210.958 104.778 210.958 104.256C210.958 103.752 210.771 103.336 210.398 103.01C210.025 102.674 209.413 102.506 208.564 102.506H207.234V101.414H208.564C209.264 101.414 209.777 101.264 210.104 100.966C210.44 100.658 210.608 100.27 210.608 99.8036C210.608 99.3369 210.431 98.9589 210.076 98.6696C209.721 98.3803 209.194 98.2356 208.494 98.2356C207.747 98.2356 207.197 98.3803 206.842 98.6696C206.497 98.9496 206.296 99.3229 206.24 99.7896H204.924C204.961 99.3976 205.059 99.0336 205.218 98.6976C205.386 98.3616 205.619 98.0723 205.918 97.8296C206.217 97.5869 206.581 97.4003 207.01 97.2696C207.439 97.1296 207.934 97.0596 208.494 97.0596C209.623 97.0596 210.477 97.3116 211.056 97.8156C211.635 98.3196 211.924 98.9823 211.924 99.8036C211.924 100.317 211.775 100.756 211.476 101.12C211.187 101.474 210.799 101.731 210.314 101.89C210.902 102.03 211.373 102.3 211.728 102.702C212.092 103.103 212.274 103.621 212.274 104.256C212.274 104.676 212.19 105.063 212.022 105.418C211.863 105.763 211.621 106.066 211.294 106.328C210.977 106.58 210.585 106.78 210.118 106.93C209.651 107.07 209.11 107.14 208.494 107.14Z" fill="#A3A3A3"/>
<path d="M216.189 107.14C215.778 107.14 215.414 107.084 215.097 106.972C214.789 106.85 214.528 106.687 214.313 106.482C214.098 106.276 213.935 106.034 213.823 105.754C213.711 105.474 213.655 105.166 213.655 104.83C213.655 104.092 213.87 103.56 214.299 103.234C214.738 102.907 215.363 102.744 216.175 102.744H218.583V102.24C218.583 101.605 218.438 101.166 218.149 100.924C217.869 100.681 217.444 100.56 216.875 100.56C216.343 100.56 215.956 100.662 215.713 100.868C215.47 101.064 215.335 101.288 215.307 101.54H214.075C214.094 101.241 214.173 100.966 214.313 100.714C214.462 100.452 214.658 100.228 214.901 100.042C215.153 99.8549 215.452 99.7103 215.797 99.6076C216.142 99.4956 216.525 99.4396 216.945 99.4396C217.822 99.4396 218.518 99.6496 219.031 100.07C219.554 100.48 219.815 101.157 219.815 102.1V105.11C219.815 105.502 219.815 105.847 219.815 106.146C219.824 106.435 219.848 106.72 219.885 107H218.807C218.779 106.785 218.76 106.584 218.751 106.398C218.742 106.202 218.737 105.982 218.737 105.74C218.541 106.132 218.224 106.463 217.785 106.734C217.346 107.004 216.814 107.14 216.189 107.14ZM216.455 106.02C216.744 106.02 217.015 105.982 217.267 105.908C217.528 105.824 217.757 105.707 217.953 105.558C218.149 105.399 218.303 105.208 218.415 104.984C218.527 104.76 218.583 104.498 218.583 104.2V103.696H216.385C215.928 103.696 215.568 103.789 215.307 103.976C215.046 104.153 214.915 104.438 214.915 104.83C214.915 105.175 215.036 105.46 215.279 105.684C215.531 105.908 215.923 106.02 216.455 106.02Z" fill="#A3A3A3"/>
<path d="M225.071 107.14C224.576 107.14 224.114 107.046 223.685 106.86C223.265 106.673 222.896 106.402 222.579 106.048C222.271 105.684 222.024 105.24 221.837 104.718C221.66 104.195 221.571 103.602 221.571 102.94V102.66C221.571 101.82 221.632 101.073 221.753 100.42C221.874 99.7569 222.08 99.1969 222.369 98.7396C222.668 98.2729 223.055 97.9089 223.531 97.6476C224.016 97.3863 224.623 97.2369 225.351 97.1996C225.939 97.1716 226.452 97.1483 226.891 97.1296C227.33 97.1016 227.703 97.0083 228.011 96.8496V98.0396C227.862 98.1236 227.586 98.1889 227.185 98.2356C226.793 98.2823 226.252 98.3149 225.561 98.3336C225.113 98.3429 224.716 98.3989 224.371 98.5016C224.035 98.6043 223.746 98.7676 223.503 98.9916C223.27 99.2156 223.083 99.5096 222.943 99.8736C222.812 100.228 222.728 100.667 222.691 101.19C222.915 100.695 223.26 100.303 223.727 100.014C224.194 99.7243 224.735 99.5796 225.351 99.5796C225.827 99.5796 226.261 99.6636 226.653 99.8316C227.045 99.9903 227.381 100.219 227.661 100.518C227.95 100.816 228.174 101.185 228.333 101.624C228.492 102.053 228.571 102.538 228.571 103.08V103.36C228.571 103.938 228.482 104.461 228.305 104.928C228.128 105.385 227.885 105.782 227.577 106.118C227.269 106.444 226.9 106.696 226.471 106.874C226.042 107.051 225.575 107.14 225.071 107.14ZM225.071 106.02C225.724 106.02 226.261 105.796 226.681 105.348C227.101 104.89 227.311 104.228 227.311 103.36V103.08C227.311 102.716 227.255 102.389 227.143 102.1C227.031 101.81 226.877 101.563 226.681 101.358C226.485 101.143 226.247 100.98 225.967 100.868C225.696 100.756 225.398 100.7 225.071 100.7C224.744 100.7 224.441 100.756 224.161 100.868C223.89 100.98 223.657 101.143 223.461 101.358C223.265 101.563 223.111 101.81 222.999 102.1C222.887 102.389 222.831 102.716 222.831 103.08V103.36C222.831 103.77 222.887 104.144 222.999 104.48C223.12 104.806 223.284 105.086 223.489 105.32C223.694 105.544 223.932 105.716 224.203 105.838C224.474 105.959 224.763 106.02 225.071 106.02Z" fill="#A3A3A3"/>
<path d="M230.317 99.5796H231.549V102.38H233.047C233.98 102.38 234.666 102.585 235.105 102.996C235.553 103.406 235.777 103.976 235.777 104.704C235.777 105.413 235.553 105.973 235.105 106.384C234.666 106.794 233.98 107 233.047 107H230.317V99.5796ZM232.977 105.908C233.556 105.908 233.962 105.805 234.195 105.6C234.428 105.394 234.545 105.091 234.545 104.69C234.545 104.288 234.428 103.985 234.195 103.78C233.962 103.574 233.556 103.472 232.977 103.472H231.549V105.908H232.977ZM236.925 99.5796H238.157V107H236.925V99.5796Z" fill="#A3A3A3"/>
<path d="M240.043 107.14C239.903 107.14 239.763 107.126 239.623 107.098V105.866C239.67 105.875 239.74 105.88 239.833 105.88C240.039 105.88 240.216 105.814 240.365 105.684C240.524 105.553 240.65 105.324 240.743 104.998C240.837 104.671 240.907 104.228 240.953 103.668C241 103.108 241.023 102.398 241.023 101.54V99.5796H246.343V107H245.111V100.672H242.255V101.82C242.255 102.856 242.209 103.714 242.115 104.396C242.022 105.077 241.882 105.623 241.695 106.034C241.518 106.435 241.289 106.72 241.009 106.888C240.729 107.056 240.407 107.14 240.043 107.14Z" fill="#A3A3A3"/>
<path d="M248.583 99.5796H249.815V105.18L253.651 99.5796H254.883V107H253.651V101.4L249.815 107H248.583V99.5796Z" fill="#A3A3A3"/>
<path d="M260.628 99.5796H266.788V107H265.556V100.672H261.86V107H260.628V99.5796Z" fill="#A3A3A3"/>
<path d="M271.136 107.14C270.726 107.14 270.362 107.084 270.044 106.972C269.736 106.85 269.475 106.687 269.26 106.482C269.046 106.276 268.882 106.034 268.77 105.754C268.658 105.474 268.602 105.166 268.602 104.83C268.602 104.092 268.817 103.56 269.246 103.234C269.685 102.907 270.31 102.744 271.122 102.744H273.53V102.24C273.53 101.605 273.386 101.166 273.096 100.924C272.816 100.681 272.392 100.56 271.822 100.56C271.29 100.56 270.903 100.662 270.66 100.868C270.418 101.064 270.282 101.288 270.254 101.54H269.022C269.041 101.241 269.12 100.966 269.26 100.714C269.41 100.452 269.606 100.228 269.848 100.042C270.1 99.8549 270.399 99.7103 270.744 99.6076C271.09 99.4956 271.472 99.4396 271.892 99.4396C272.77 99.4396 273.465 99.6496 273.978 100.07C274.501 100.48 274.762 101.157 274.762 102.1V105.11C274.762 105.502 274.762 105.847 274.762 106.146C274.772 106.435 274.795 106.72 274.832 107H273.754C273.726 106.785 273.708 106.584 273.698 106.398C273.689 106.202 273.684 105.982 273.684 105.74C273.488 106.132 273.171 106.463 272.732 106.734C272.294 107.004 271.762 107.14 271.136 107.14ZM271.402 106.02C271.692 106.02 271.962 105.982 272.214 105.908C272.476 105.824 272.704 105.707 272.9 105.558C273.096 105.399 273.25 105.208 273.362 104.984C273.474 104.76 273.53 104.498 273.53 104.2V103.696H271.332C270.875 103.696 270.516 103.789 270.254 103.976C269.993 104.153 269.862 104.438 269.862 104.83C269.862 105.175 269.984 105.46 270.226 105.684C270.478 105.908 270.87 106.02 271.402 106.02Z" fill="#A3A3A3"/>
<path d="M276.938 99.5796H278.086V100.98C278.338 100.485 278.688 100.107 279.136 99.8456C279.594 99.5749 280.121 99.4396 280.718 99.4396C281.652 99.4396 282.398 99.7476 282.958 100.364C283.518 100.97 283.798 101.876 283.798 103.08V103.36C283.798 103.994 283.724 104.55 283.574 105.026C283.425 105.492 283.215 105.884 282.944 106.202C282.674 106.51 282.347 106.743 281.964 106.902C281.591 107.06 281.176 107.14 280.718 107.14C280.084 107.14 279.552 107 279.122 106.72C278.702 106.44 278.385 106.09 278.17 105.67V109.8H276.938V99.5796ZM280.438 106.048C280.737 106.048 281.017 105.992 281.278 105.88C281.54 105.758 281.764 105.586 281.95 105.362C282.146 105.138 282.296 104.858 282.398 104.522C282.51 104.186 282.566 103.798 282.566 103.36V103.08C282.566 102.678 282.51 102.319 282.398 102.002C282.296 101.684 282.146 101.418 281.95 101.204C281.764 100.98 281.54 100.812 281.278 100.7C281.017 100.588 280.737 100.532 280.438 100.532C280.102 100.532 279.794 100.588 279.514 100.7C279.234 100.802 278.996 100.952 278.8 101.148C278.604 101.334 278.45 101.558 278.338 101.82C278.226 102.081 278.17 102.361 278.17 102.66V103.78C278.17 104.116 278.226 104.424 278.338 104.704C278.45 104.984 278.604 105.222 278.8 105.418C278.996 105.614 279.234 105.768 279.514 105.88C279.794 105.992 280.102 106.048 280.438 106.048Z" fill="#A3A3A3"/>
<path d="M288.632 107.14C288.156 107.14 287.703 107.065 287.274 106.916C286.844 106.757 286.466 106.524 286.14 106.216C285.813 105.898 285.552 105.502 285.356 105.026C285.16 104.55 285.062 103.994 285.062 103.36V103.08C285.062 102.482 285.16 101.955 285.356 101.498C285.552 101.04 285.813 100.662 286.14 100.364C286.466 100.056 286.844 99.8269 287.274 99.6776C287.703 99.5189 288.156 99.4396 288.632 99.4396C289.108 99.4396 289.56 99.5189 289.99 99.6776C290.419 99.8269 290.797 100.056 291.124 100.364C291.45 100.662 291.712 101.04 291.908 101.498C292.104 101.955 292.202 102.482 292.202 103.08V103.36C292.202 103.994 292.104 104.55 291.908 105.026C291.712 105.502 291.45 105.898 291.124 106.216C290.797 106.524 290.419 106.757 289.99 106.916C289.56 107.065 289.108 107.14 288.632 107.14ZM288.632 106.02C288.912 106.02 289.192 105.973 289.472 105.88C289.752 105.777 289.999 105.623 290.214 105.418C290.428 105.203 290.601 104.928 290.732 104.592C290.872 104.256 290.942 103.845 290.942 103.36V103.08C290.942 102.632 290.872 102.249 290.732 101.932C290.601 101.614 290.428 101.353 290.214 101.148C289.999 100.942 289.752 100.793 289.472 100.7C289.192 100.606 288.912 100.56 288.632 100.56C288.352 100.56 288.072 100.606 287.792 100.7C287.512 100.793 287.264 100.942 287.05 101.148C286.835 101.353 286.658 101.614 286.518 101.932C286.387 102.249 286.322 102.632 286.322 103.08V103.36C286.322 103.845 286.387 104.256 286.518 104.592C286.658 104.928 286.835 105.203 287.05 105.418C287.264 105.623 287.512 105.777 287.792 105.88C288.072 105.973 288.352 106.02 288.632 106.02Z" fill="#A3A3A3"/>
<path d="M293.459 107.14C293.319 107.14 293.179 107.126 293.039 107.098V105.866C293.086 105.875 293.156 105.88 293.249 105.88C293.455 105.88 293.632 105.814 293.781 105.684C293.94 105.553 294.066 105.324 294.159 104.998C294.253 104.671 294.323 104.228 294.369 103.668C294.416 103.108 294.439 102.398 294.439 101.54V99.5796H299.759V107H298.527V100.672H295.671V101.82C295.671 102.856 295.625 103.714 295.531 104.396C295.438 105.077 295.298 105.623 295.111 106.034C294.934 106.435 294.705 106.72 294.425 106.888C294.145 107.056 293.823 107.14 293.459 107.14Z" fill="#A3A3A3"/>
<path d="M301.999 99.5796H303.231V102.38H305.009C305.942 102.38 306.628 102.585 307.067 102.996C307.515 103.406 307.739 103.976 307.739 104.704C307.739 105.413 307.515 105.973 307.067 106.384C306.628 106.794 305.942 107 305.009 107H301.999V99.5796ZM304.939 105.908C305.517 105.908 305.923 105.805 306.157 105.6C306.39 105.394 306.507 105.091 306.507 104.69C306.507 104.288 306.39 103.985 306.157 103.78C305.923 103.574 305.517 103.472 304.939 103.472H303.231V105.908H304.939Z" fill="#A3A3A3"/>
<path d="M311.174 103.5C311.174 103.322 311.184 103.159 311.202 103.01C311.23 102.851 311.282 102.697 311.356 102.548C311.44 102.389 311.552 102.226 311.692 102.058C311.842 101.89 312.038 101.703 312.28 101.498C312.672 101.162 312.971 100.858 313.176 100.588C313.382 100.317 313.484 100.028 313.484 99.7196C313.484 99.2716 313.335 98.9029 313.036 98.6136C312.738 98.3243 312.327 98.1796 311.804 98.1796C311.282 98.1796 310.871 98.3243 310.572 98.6136C310.274 98.9029 310.124 99.2716 310.124 99.7196H308.864C308.864 99.3369 308.93 98.9869 309.06 98.6696C309.2 98.3429 309.396 98.0629 309.648 97.8296C309.91 97.5869 310.222 97.4003 310.586 97.2696C310.95 97.1296 311.356 97.0596 311.804 97.0596C312.252 97.0596 312.658 97.1296 313.022 97.2696C313.386 97.4003 313.694 97.5869 313.946 97.8296C314.208 98.0629 314.404 98.3429 314.534 98.6696C314.674 98.9869 314.744 99.3369 314.744 99.7196C314.744 99.9809 314.702 100.228 314.618 100.462C314.534 100.695 314.418 100.919 314.268 101.134C314.128 101.339 313.965 101.54 313.778 101.736C313.592 101.922 313.4 102.1 313.204 102.268C313.046 102.398 312.915 102.524 312.812 102.646C312.71 102.758 312.626 102.87 312.56 102.982C312.504 103.084 312.462 103.192 312.434 103.304C312.416 103.406 312.406 103.518 312.406 103.64V103.92H311.174V103.5ZM311.804 107.14C311.534 107.14 311.3 107.046 311.104 106.86C310.918 106.664 310.824 106.43 310.824 106.16C310.824 105.88 310.918 105.646 311.104 105.46C311.3 105.273 311.534 105.18 311.804 105.18C312.075 105.18 312.304 105.273 312.49 105.46C312.686 105.646 312.784 105.88 312.784 106.16C312.784 106.43 312.686 106.664 312.49 106.86C312.304 107.046 312.075 107.14 311.804 107.14Z" fill="#A3A3A3"/>
</svg>
